%TF.GenerationSoftware,KiCad,Pcbnew,9.0.2*%
%TF.CreationDate,2025-09-10T16:53:27+09:00*%
%TF.ProjectId,CL70_PCB,434c3730-5f50-4434-922e-6b696361645f,rev?*%
%TF.SameCoordinates,Original*%
%TF.FileFunction,Copper,L2,Bot*%
%TF.FilePolarity,Positive*%
%FSLAX46Y46*%
G04 Gerber Fmt 4.6, Leading zero omitted, Abs format (unit mm)*
G04 Created by KiCad (PCBNEW 9.0.2) date 2025-09-10 16:53:27*
%MOMM*%
%LPD*%
G01*
G04 APERTURE LIST*
G04 Aperture macros list*
%AMRoundRect*
0 Rectangle with rounded corners*
0 $1 Rounding radius*
0 $2 $3 $4 $5 $6 $7 $8 $9 X,Y pos of 4 corners*
0 Add a 4 corners polygon primitive as box body*
4,1,4,$2,$3,$4,$5,$6,$7,$8,$9,$2,$3,0*
0 Add four circle primitives for the rounded corners*
1,1,$1+$1,$2,$3*
1,1,$1+$1,$4,$5*
1,1,$1+$1,$6,$7*
1,1,$1+$1,$8,$9*
0 Add four rect primitives between the rounded corners*
20,1,$1+$1,$2,$3,$4,$5,0*
20,1,$1+$1,$4,$5,$6,$7,0*
20,1,$1+$1,$6,$7,$8,$9,0*
20,1,$1+$1,$8,$9,$2,$3,0*%
G04 Aperture macros list end*
%TA.AperFunction,EtchedComponent*%
%ADD10C,0.000000*%
%TD*%
%TA.AperFunction,ComponentPad*%
%ADD11C,2.500000*%
%TD*%
%TA.AperFunction,ComponentPad*%
%ADD12R,1.800000X1.800000*%
%TD*%
%TA.AperFunction,ComponentPad*%
%ADD13C,1.800000*%
%TD*%
%TA.AperFunction,SMDPad,CuDef*%
%ADD14RoundRect,0.250000X-1.025000X-1.000000X1.025000X-1.000000X1.025000X1.000000X-1.025000X1.000000X0*%
%TD*%
%TA.AperFunction,ComponentPad*%
%ADD15R,2.000000X2.000000*%
%TD*%
%TA.AperFunction,ComponentPad*%
%ADD16C,2.000000*%
%TD*%
%TA.AperFunction,ComponentPad*%
%ADD17R,2.000000X3.200000*%
%TD*%
%TA.AperFunction,SMDPad,CuDef*%
%ADD18R,1.000000X0.750000*%
%TD*%
%TA.AperFunction,SMDPad,CuDef*%
%ADD19R,1.800000X1.000000*%
%TD*%
%TA.AperFunction,SMDPad,CuDef*%
%ADD20RoundRect,0.225000X0.375000X-0.225000X0.375000X0.225000X-0.375000X0.225000X-0.375000X-0.225000X0*%
%TD*%
%TA.AperFunction,SMDPad,CuDef*%
%ADD21R,0.750000X1.000000*%
%TD*%
%TA.AperFunction,SMDPad,CuDef*%
%ADD22R,0.900000X0.800000*%
%TD*%
%TA.AperFunction,SMDPad,CuDef*%
%ADD23R,1.000000X1.200000*%
%TD*%
%TA.AperFunction,SMDPad,CuDef*%
%ADD24R,1.000000X0.900000*%
%TD*%
%TA.AperFunction,SMDPad,CuDef*%
%ADD25R,1.800000X1.100000*%
%TD*%
%TA.AperFunction,ComponentPad*%
%ADD26C,1.700000*%
%TD*%
%TA.AperFunction,ComponentPad*%
%ADD27R,1.700000X1.700000*%
%TD*%
%TA.AperFunction,SMDPad,CuDef*%
%ADD28R,0.800000X0.900000*%
%TD*%
%TA.AperFunction,SMDPad,CuDef*%
%ADD29RoundRect,0.250000X0.350000X-0.450000X0.350000X0.450000X-0.350000X0.450000X-0.350000X-0.450000X0*%
%TD*%
%TA.AperFunction,SMDPad,CuDef*%
%ADD30R,0.600000X1.450000*%
%TD*%
%TA.AperFunction,SMDPad,CuDef*%
%ADD31R,0.300000X1.450000*%
%TD*%
%TA.AperFunction,ComponentPad*%
%ADD32O,1.000000X1.600000*%
%TD*%
%TA.AperFunction,ComponentPad*%
%ADD33O,1.000000X2.100000*%
%TD*%
%TA.AperFunction,SMDPad,CuDef*%
%ADD34O,0.250000X1.000000*%
%TD*%
%TA.AperFunction,SMDPad,CuDef*%
%ADD35O,1.000000X0.250000*%
%TD*%
%TA.AperFunction,SMDPad,CuDef*%
%ADD36RoundRect,0.500000X-2.000000X2.000000X-2.000000X-2.000000X2.000000X-2.000000X2.000000X2.000000X0*%
%TD*%
%TA.AperFunction,SMDPad,CuDef*%
%ADD37RoundRect,0.250000X0.625000X-0.375000X0.625000X0.375000X-0.625000X0.375000X-0.625000X-0.375000X0*%
%TD*%
%TA.AperFunction,ViaPad*%
%ADD38C,0.600000*%
%TD*%
%TA.AperFunction,Conductor*%
%ADD39C,0.381000*%
%TD*%
%TA.AperFunction,Conductor*%
%ADD40C,0.254000*%
%TD*%
G04 APERTURE END LIST*
D10*
%TA.AperFunction,EtchedComponent*%
%TO.C,G\u002A\u002A\u002A*%
G36*
X282034005Y-158223862D02*
G01*
X282034005Y-158967584D01*
X281573906Y-158967584D01*
X281113807Y-158967584D01*
X281113807Y-158854135D01*
X281113807Y-158740686D01*
X281441549Y-158740686D01*
X281769291Y-158740686D01*
X281769291Y-158110413D01*
X281769291Y-157480140D01*
X281901648Y-157480140D01*
X282034005Y-157480140D01*
X282034005Y-158223862D01*
G37*
%TD.AperFunction*%
%TA.AperFunction,EtchedComponent*%
G36*
X268523111Y-158674398D02*
G01*
X268571275Y-158699247D01*
X268606790Y-158737932D01*
X268627493Y-158785843D01*
X268631221Y-158838364D01*
X268615813Y-158890884D01*
X268579105Y-158938789D01*
X268550740Y-158961932D01*
X268518221Y-158976514D01*
X268476576Y-158980190D01*
X268465347Y-158979913D01*
X268404000Y-158966263D01*
X268358065Y-158933337D01*
X268329250Y-158882911D01*
X268319266Y-158816760D01*
X268326844Y-158773068D01*
X268354862Y-158724389D01*
X268398577Y-158687826D01*
X268452731Y-158669194D01*
X268464459Y-158668000D01*
X268523111Y-158674398D01*
G37*
%TD.AperFunction*%
%TA.AperFunction,EtchedComponent*%
G36*
X258593570Y-157599723D02*
G01*
X258776933Y-157719307D01*
X258776933Y-157839227D01*
X258776693Y-157870327D01*
X258775296Y-157916024D01*
X258772932Y-157947455D01*
X258769921Y-157959147D01*
X258764980Y-157956904D01*
X258741897Y-157943560D01*
X258703617Y-157920218D01*
X258653923Y-157889197D01*
X258596596Y-157852818D01*
X258430283Y-157746488D01*
X258427012Y-158357036D01*
X258423741Y-158967584D01*
X258285201Y-158967584D01*
X258146660Y-158967584D01*
X258146660Y-158223862D01*
X258146660Y-157480140D01*
X258278433Y-157480140D01*
X258410206Y-157480140D01*
X258593570Y-157599723D01*
G37*
%TD.AperFunction*%
%TA.AperFunction,EtchedComponent*%
G36*
X267896399Y-157599723D02*
G01*
X268079762Y-157719307D01*
X268079762Y-157839227D01*
X268079521Y-157870327D01*
X268078125Y-157916024D01*
X268075761Y-157947455D01*
X268072750Y-157959147D01*
X268067809Y-157956904D01*
X268044726Y-157943560D01*
X268006446Y-157920218D01*
X267956752Y-157889197D01*
X267899425Y-157852818D01*
X267733112Y-157746488D01*
X267729841Y-158357036D01*
X267726569Y-158967584D01*
X267588029Y-158967584D01*
X267449489Y-158967584D01*
X267449489Y-158223862D01*
X267449489Y-157480140D01*
X267581262Y-157480140D01*
X267713035Y-157480140D01*
X267896399Y-157599723D01*
G37*
%TD.AperFunction*%
%TA.AperFunction,EtchedComponent*%
G36*
X269434265Y-157599723D02*
G01*
X269617628Y-157719307D01*
X269617628Y-157839227D01*
X269617387Y-157870327D01*
X269615991Y-157916024D01*
X269613627Y-157947455D01*
X269610616Y-157959147D01*
X269605675Y-157956904D01*
X269582592Y-157943560D01*
X269544312Y-157920218D01*
X269494618Y-157889197D01*
X269437291Y-157852818D01*
X269270978Y-157746488D01*
X269267707Y-158357036D01*
X269264435Y-158967584D01*
X269125895Y-158967584D01*
X268987355Y-158967584D01*
X268987355Y-158223862D01*
X268987355Y-157480140D01*
X269119128Y-157480140D01*
X269250901Y-157480140D01*
X269434265Y-157599723D01*
G37*
%TD.AperFunction*%
%TA.AperFunction,EtchedComponent*%
G36*
X280962541Y-157593589D02*
G01*
X280962541Y-157707038D01*
X280590680Y-157707038D01*
X280560755Y-157707057D01*
X280469221Y-157707364D01*
X280387362Y-157708007D01*
X280318285Y-157708936D01*
X280265098Y-157710103D01*
X280230907Y-157711458D01*
X280218819Y-157712951D01*
X280219835Y-157715406D01*
X280230002Y-157736233D01*
X280250221Y-157776481D01*
X280279423Y-157834057D01*
X280316541Y-157906867D01*
X280360504Y-157992816D01*
X280410244Y-158089810D01*
X280464693Y-158195756D01*
X280522783Y-158308559D01*
X280545036Y-158351732D01*
X280602767Y-158463736D01*
X280657002Y-158568961D01*
X280706590Y-158665175D01*
X280750380Y-158750144D01*
X280787221Y-158821636D01*
X280815963Y-158877418D01*
X280835454Y-158915257D01*
X280844546Y-158932919D01*
X280862345Y-158967584D01*
X280720210Y-158967249D01*
X280578075Y-158966913D01*
X280259787Y-158343938D01*
X279941499Y-157720963D01*
X279941499Y-157600551D01*
X279941499Y-157480140D01*
X280452020Y-157480140D01*
X280962541Y-157480140D01*
X280962541Y-157593589D01*
G37*
%TD.AperFunction*%
%TA.AperFunction,EtchedComponent*%
G36*
X270796715Y-157848567D02*
G01*
X270828605Y-157850780D01*
X270840358Y-157854214D01*
X270836940Y-157865514D01*
X270825809Y-157898457D01*
X270807767Y-157950582D01*
X270783652Y-158019507D01*
X270754298Y-158102850D01*
X270720544Y-158198230D01*
X270683226Y-158303264D01*
X270643180Y-158415570D01*
X270446001Y-158967584D01*
X270299650Y-158967584D01*
X270153299Y-158967584D01*
X269961506Y-158428701D01*
X269929752Y-158339359D01*
X269892185Y-158233329D01*
X269857908Y-158136217D01*
X269827786Y-158050494D01*
X269802684Y-157978632D01*
X269783467Y-157923100D01*
X269771002Y-157886369D01*
X269766152Y-157870909D01*
X269766761Y-157864467D01*
X269776061Y-157858179D01*
X269798742Y-157854376D01*
X269838744Y-157852502D01*
X269900004Y-157852001D01*
X270037418Y-157852001D01*
X270162593Y-158255376D01*
X270183981Y-158324017D01*
X270212689Y-158415246D01*
X270238665Y-158496744D01*
X270260973Y-158565636D01*
X270278682Y-158619049D01*
X270290857Y-158654109D01*
X270296566Y-158667942D01*
X270300611Y-158662053D01*
X270311489Y-158635062D01*
X270328024Y-158588793D01*
X270349312Y-158525928D01*
X270374447Y-158449148D01*
X270402525Y-158361134D01*
X270432643Y-158264568D01*
X270559923Y-157852001D01*
X270700141Y-157848437D01*
X270749743Y-157847783D01*
X270796715Y-157848567D01*
G37*
%TD.AperFunction*%
%TA.AperFunction,EtchedComponent*%
G36*
X277861598Y-158223862D02*
G01*
X277861598Y-158967584D01*
X277729241Y-158967584D01*
X277596884Y-158967584D01*
X277596884Y-158715475D01*
X277596884Y-158463366D01*
X277398348Y-158463216D01*
X277304128Y-158462053D01*
X277225001Y-158457912D01*
X277160717Y-158449852D01*
X277106015Y-158436934D01*
X277055636Y-158418217D01*
X277004319Y-158392760D01*
X276941084Y-158349580D01*
X276874722Y-158278833D01*
X276824727Y-158193201D01*
X276792584Y-158096184D01*
X276779777Y-157991284D01*
X276781864Y-157962810D01*
X277057569Y-157962810D01*
X277063996Y-158043899D01*
X277091510Y-158114839D01*
X277138503Y-158172596D01*
X277203371Y-158214130D01*
X277234321Y-158225046D01*
X277278726Y-158234131D01*
X277338312Y-158240624D01*
X277418081Y-158245250D01*
X277425379Y-158245553D01*
X277485773Y-158247209D01*
X277536317Y-158247139D01*
X277571905Y-158245437D01*
X277587430Y-158242195D01*
X277588251Y-158240341D01*
X277591000Y-158218896D01*
X277593372Y-158177218D01*
X277595233Y-158119194D01*
X277596449Y-158048710D01*
X277596884Y-157969652D01*
X277596884Y-157707038D01*
X277442467Y-157707109D01*
X277382186Y-157708035D01*
X277321922Y-157710759D01*
X277273039Y-157714843D01*
X277242448Y-157719846D01*
X277175560Y-157747724D01*
X277118366Y-157795444D01*
X277079495Y-157860309D01*
X277059388Y-157941788D01*
X277057569Y-157962810D01*
X276781864Y-157962810D01*
X276787788Y-157881999D01*
X276797692Y-157835666D01*
X276836041Y-157733113D01*
X276893492Y-157646168D01*
X276968685Y-157576225D01*
X277060263Y-157524679D01*
X277166867Y-157492922D01*
X277184963Y-157490545D01*
X277230709Y-157487196D01*
X277294337Y-157484332D01*
X277371415Y-157482102D01*
X277457508Y-157480655D01*
X277548182Y-157480140D01*
X277861598Y-157480140D01*
X277861598Y-157969652D01*
X277861598Y-158223862D01*
G37*
%TD.AperFunction*%
%TA.AperFunction,EtchedComponent*%
G36*
X263621327Y-157474417D02*
G01*
X263718695Y-157506057D01*
X263804983Y-157553195D01*
X263877554Y-157614103D01*
X263933772Y-157687054D01*
X263971002Y-157770320D01*
X263986609Y-157862173D01*
X263989291Y-157927634D01*
X263866168Y-157931244D01*
X263819691Y-157932583D01*
X263778034Y-157932220D01*
X263752737Y-157927013D01*
X263738806Y-157914282D01*
X263731244Y-157891346D01*
X263725057Y-157855524D01*
X263720727Y-157836553D01*
X263692649Y-157780772D01*
X263646788Y-157735442D01*
X263587910Y-157702698D01*
X263520783Y-157684676D01*
X263450172Y-157683510D01*
X263380844Y-157701337D01*
X263334257Y-157725534D01*
X263281318Y-157773090D01*
X263249737Y-157833963D01*
X263239266Y-157908519D01*
X263239597Y-157927645D01*
X263242408Y-157958840D01*
X263249400Y-157988984D01*
X263262135Y-158020126D01*
X263282179Y-158054314D01*
X263311095Y-158093597D01*
X263350446Y-158140024D01*
X263401797Y-158195645D01*
X263466710Y-158262507D01*
X263546750Y-158342661D01*
X263643481Y-158438155D01*
X263983156Y-158772200D01*
X263983072Y-158869892D01*
X263982988Y-158967584D01*
X263466164Y-158967584D01*
X262949340Y-158967584D01*
X262949340Y-158854135D01*
X262949340Y-158740686D01*
X263277082Y-158740686D01*
X263358642Y-158740465D01*
X263438442Y-158739770D01*
X263506270Y-158738673D01*
X263558816Y-158737243D01*
X263592770Y-158735551D01*
X263604824Y-158733668D01*
X263604798Y-158733539D01*
X263595305Y-158722274D01*
X263570297Y-158695786D01*
X263532080Y-158656429D01*
X263482959Y-158606560D01*
X263425239Y-158548535D01*
X263361226Y-158484710D01*
X263265796Y-158388364D01*
X263182008Y-158299487D01*
X263114802Y-158222068D01*
X263062712Y-158153739D01*
X263024268Y-158092130D01*
X262998003Y-158034872D01*
X262982449Y-157979596D01*
X262976139Y-157923933D01*
X262977604Y-157865512D01*
X262996259Y-157768820D01*
X263036880Y-157679548D01*
X263097576Y-157603211D01*
X263176758Y-157541365D01*
X263272839Y-157495565D01*
X263384229Y-157467367D01*
X263403890Y-157464539D01*
X263515513Y-157460002D01*
X263621327Y-157474417D01*
G37*
%TD.AperFunction*%
%TA.AperFunction,EtchedComponent*%
G36*
X266230657Y-157474417D02*
G01*
X266328025Y-157506057D01*
X266414313Y-157553195D01*
X266486884Y-157614103D01*
X266543102Y-157687054D01*
X266580332Y-157770320D01*
X266595939Y-157862173D01*
X266598621Y-157927634D01*
X266475498Y-157931244D01*
X266429021Y-157932583D01*
X266387364Y-157932220D01*
X266362067Y-157927013D01*
X266348136Y-157914282D01*
X266340574Y-157891346D01*
X266334387Y-157855524D01*
X266330057Y-157836553D01*
X266301980Y-157780772D01*
X266256118Y-157735442D01*
X266197241Y-157702698D01*
X266130113Y-157684676D01*
X266059502Y-157683510D01*
X265990174Y-157701337D01*
X265943587Y-157725534D01*
X265890648Y-157773090D01*
X265859068Y-157833963D01*
X265848596Y-157908519D01*
X265848927Y-157927645D01*
X265851738Y-157958840D01*
X265858730Y-157988984D01*
X265871466Y-158020126D01*
X265891509Y-158054314D01*
X265920425Y-158093597D01*
X265959776Y-158140024D01*
X266011127Y-158195645D01*
X266076040Y-158262507D01*
X266156080Y-158342661D01*
X266252811Y-158438155D01*
X266592486Y-158772200D01*
X266592402Y-158869892D01*
X266592318Y-158967584D01*
X266075494Y-158967584D01*
X265558670Y-158967584D01*
X265558670Y-158854135D01*
X265558670Y-158740686D01*
X265886412Y-158740686D01*
X265967973Y-158740465D01*
X266047772Y-158739770D01*
X266115600Y-158738673D01*
X266168146Y-158737243D01*
X266202100Y-158735551D01*
X266214154Y-158733668D01*
X266214128Y-158733539D01*
X266204635Y-158722274D01*
X266179627Y-158695786D01*
X266141410Y-158656429D01*
X266092289Y-158606560D01*
X266034569Y-158548535D01*
X265970556Y-158484710D01*
X265875126Y-158388364D01*
X265791338Y-158299487D01*
X265724132Y-158222068D01*
X265672042Y-158153739D01*
X265633598Y-158092130D01*
X265607333Y-158034872D01*
X265591779Y-157979596D01*
X265585469Y-157923933D01*
X265586934Y-157865512D01*
X265605589Y-157768820D01*
X265646210Y-157679548D01*
X265706906Y-157603211D01*
X265786088Y-157541365D01*
X265882169Y-157495565D01*
X265993559Y-157467367D01*
X266013220Y-157464539D01*
X266124843Y-157460002D01*
X266230657Y-157474417D01*
G37*
%TD.AperFunction*%
%TA.AperFunction,EtchedComponent*%
G36*
X273248000Y-158223862D02*
G01*
X273248000Y-158967584D01*
X273115643Y-158967584D01*
X272983286Y-158967584D01*
X272983286Y-158696154D01*
X272983286Y-158424724D01*
X272842741Y-158428288D01*
X272702197Y-158431852D01*
X272559956Y-158696567D01*
X272417715Y-158961281D01*
X272264623Y-158964829D01*
X272260463Y-158964922D01*
X272202965Y-158965416D01*
X272156857Y-158964383D01*
X272126742Y-158962021D01*
X272117220Y-158958526D01*
X272122423Y-158949442D01*
X272144508Y-158910015D01*
X272173351Y-158857640D01*
X272207070Y-158795824D01*
X272243782Y-158728076D01*
X272281603Y-158657903D01*
X272318652Y-158588815D01*
X272353045Y-158524319D01*
X272382899Y-158467924D01*
X272406331Y-158423138D01*
X272421460Y-158393469D01*
X272426401Y-158382426D01*
X272423724Y-158380691D01*
X272405063Y-158369218D01*
X272375621Y-158351417D01*
X272367662Y-158346414D01*
X272315451Y-158304449D01*
X272264936Y-158250470D01*
X272222915Y-158192536D01*
X272196184Y-158138702D01*
X272175129Y-158059686D01*
X272165837Y-157959147D01*
X272447629Y-157959147D01*
X272450474Y-158008616D01*
X272467390Y-158072027D01*
X272501570Y-158121243D01*
X272555345Y-158160626D01*
X272578220Y-158172443D01*
X272602210Y-158181443D01*
X272631021Y-158187607D01*
X272669751Y-158191692D01*
X272723497Y-158194458D01*
X272797355Y-158196665D01*
X272983286Y-158201399D01*
X272983286Y-157953037D01*
X272983286Y-157704674D01*
X272803270Y-157709008D01*
X272745470Y-157710602D01*
X272688111Y-157713210D01*
X272646451Y-157717151D01*
X272615101Y-157723229D01*
X272588671Y-157732246D01*
X272561772Y-157745008D01*
X272516607Y-157774250D01*
X272476939Y-157820617D01*
X272454593Y-157881037D01*
X272447629Y-157959147D01*
X272165837Y-157959147D01*
X272165175Y-157951980D01*
X272176325Y-157848538D01*
X272207467Y-157752477D01*
X272257491Y-157666911D01*
X272325284Y-157594959D01*
X272409737Y-157539737D01*
X272410449Y-157539384D01*
X272448258Y-157522198D01*
X272486701Y-157508615D01*
X272529287Y-157498230D01*
X272579524Y-157490640D01*
X272640923Y-157485440D01*
X272716992Y-157482226D01*
X272811242Y-157480594D01*
X272927182Y-157480140D01*
X273248000Y-157480140D01*
X273248000Y-157953037D01*
X273248000Y-158223862D01*
G37*
%TD.AperFunction*%
%TA.AperFunction,EtchedComponent*%
G36*
X257812097Y-158228966D02*
G01*
X257811728Y-158312046D01*
X257810220Y-158375773D01*
X257807070Y-158425703D01*
X257801776Y-158467388D01*
X257793835Y-158506383D01*
X257782745Y-158548242D01*
X257768587Y-158593439D01*
X257718035Y-158709138D01*
X257652689Y-158806238D01*
X257573532Y-158883700D01*
X257481550Y-158940487D01*
X257377727Y-158975559D01*
X257332765Y-158983815D01*
X257214277Y-158989998D01*
X257103594Y-158972957D01*
X257002339Y-158933689D01*
X256912135Y-158873190D01*
X256834603Y-158792456D01*
X256771366Y-158692483D01*
X256724048Y-158574267D01*
X256720661Y-158562915D01*
X256692931Y-158437764D01*
X256679090Y-158304978D01*
X256678824Y-158216418D01*
X256950325Y-158216418D01*
X256955331Y-158339800D01*
X256972268Y-158456667D01*
X257001243Y-158560077D01*
X257029536Y-158618500D01*
X257074447Y-158678691D01*
X257127153Y-158724973D01*
X257182384Y-158751770D01*
X257217659Y-158759360D01*
X257292941Y-158759179D01*
X257360676Y-158735237D01*
X257419781Y-158688037D01*
X257469172Y-158618085D01*
X257472653Y-158611573D01*
X257504537Y-158536276D01*
X257526362Y-158449292D01*
X257538895Y-158346521D01*
X257542902Y-158223862D01*
X257536861Y-158084280D01*
X257518269Y-157963736D01*
X257487078Y-157864788D01*
X257443240Y-157787292D01*
X257386710Y-157731098D01*
X257374945Y-157723063D01*
X257308126Y-157693520D01*
X257238891Y-157686720D01*
X257170959Y-157701373D01*
X257108047Y-157736187D01*
X257053872Y-157789873D01*
X257012151Y-157861139D01*
X257005810Y-157876601D01*
X256975673Y-157977876D01*
X256957142Y-158093463D01*
X256950325Y-158216418D01*
X256678824Y-158216418D01*
X256678684Y-158169597D01*
X256691262Y-158036660D01*
X256716370Y-157911207D01*
X256753556Y-157798276D01*
X256802366Y-157702906D01*
X256854413Y-157634274D01*
X256933911Y-157561803D01*
X257023487Y-157508756D01*
X257120024Y-157474939D01*
X257220406Y-157460160D01*
X257321517Y-157464224D01*
X257420240Y-157486937D01*
X257513458Y-157528108D01*
X257598056Y-157587541D01*
X257670918Y-157665045D01*
X257728925Y-157760424D01*
X257740150Y-157784505D01*
X257766303Y-157846810D01*
X257785435Y-157905931D01*
X257798564Y-157967533D01*
X257806706Y-158037280D01*
X257810877Y-158120835D01*
X257812095Y-158223862D01*
X257812097Y-158228966D01*
G37*
%TD.AperFunction*%
%TA.AperFunction,EtchedComponent*%
G36*
X261442470Y-158228966D02*
G01*
X261442100Y-158312046D01*
X261440592Y-158375773D01*
X261437442Y-158425703D01*
X261432148Y-158467388D01*
X261424207Y-158506383D01*
X261413117Y-158548242D01*
X261398959Y-158593439D01*
X261348407Y-158709138D01*
X261283061Y-158806238D01*
X261203904Y-158883700D01*
X261111922Y-158940487D01*
X261008100Y-158975559D01*
X260963137Y-158983815D01*
X260844649Y-158989998D01*
X260733966Y-158972957D01*
X260632711Y-158933689D01*
X260542507Y-158873190D01*
X260464975Y-158792456D01*
X260401739Y-158692483D01*
X260354420Y-158574267D01*
X260351034Y-158562915D01*
X260323303Y-158437764D01*
X260309462Y-158304978D01*
X260309197Y-158216418D01*
X260580698Y-158216418D01*
X260585703Y-158339800D01*
X260602640Y-158456667D01*
X260631615Y-158560077D01*
X260659908Y-158618500D01*
X260704819Y-158678691D01*
X260757525Y-158724973D01*
X260812757Y-158751770D01*
X260848031Y-158759360D01*
X260923313Y-158759179D01*
X260991048Y-158735237D01*
X261050153Y-158688037D01*
X261099544Y-158618085D01*
X261103025Y-158611573D01*
X261134909Y-158536276D01*
X261156735Y-158449292D01*
X261169267Y-158346521D01*
X261173275Y-158223862D01*
X261167233Y-158084280D01*
X261148641Y-157963736D01*
X261117450Y-157864788D01*
X261073612Y-157787292D01*
X261017082Y-157731098D01*
X261005318Y-157723063D01*
X260938498Y-157693520D01*
X260869263Y-157686720D01*
X260801331Y-157701373D01*
X260738419Y-157736187D01*
X260684244Y-157789873D01*
X260642523Y-157861139D01*
X260636182Y-157876601D01*
X260606045Y-157977876D01*
X260587514Y-158093463D01*
X260580698Y-158216418D01*
X260309197Y-158216418D01*
X260309057Y-158169597D01*
X260321634Y-158036660D01*
X260346743Y-157911207D01*
X260383928Y-157798276D01*
X260432738Y-157702906D01*
X260484785Y-157634274D01*
X260564283Y-157561803D01*
X260653859Y-157508756D01*
X260750396Y-157474939D01*
X260850778Y-157460160D01*
X260951889Y-157464224D01*
X261050612Y-157486937D01*
X261143831Y-157528108D01*
X261228429Y-157587541D01*
X261301290Y-157665045D01*
X261359298Y-157760424D01*
X261370523Y-157784505D01*
X261396675Y-157846810D01*
X261415807Y-157905931D01*
X261428936Y-157967533D01*
X261437078Y-158037280D01*
X261441249Y-158120835D01*
X261442467Y-158223862D01*
X261442470Y-158228966D01*
G37*
%TD.AperFunction*%
%TA.AperFunction,EtchedComponent*%
G36*
X265350162Y-158228966D02*
G01*
X265349793Y-158312046D01*
X265348284Y-158375773D01*
X265345135Y-158425703D01*
X265339840Y-158467388D01*
X265331900Y-158506383D01*
X265320810Y-158548242D01*
X265306651Y-158593439D01*
X265256099Y-158709138D01*
X265190753Y-158806238D01*
X265111597Y-158883700D01*
X265019615Y-158940487D01*
X264915792Y-158975559D01*
X264870829Y-158983815D01*
X264752341Y-158989998D01*
X264641659Y-158972957D01*
X264540404Y-158933689D01*
X264450199Y-158873190D01*
X264372667Y-158792456D01*
X264309431Y-158692483D01*
X264262112Y-158574267D01*
X264258726Y-158562915D01*
X264230996Y-158437764D01*
X264217154Y-158304978D01*
X264216889Y-158216418D01*
X264488390Y-158216418D01*
X264493396Y-158339800D01*
X264510332Y-158456667D01*
X264539308Y-158560077D01*
X264567600Y-158618500D01*
X264612511Y-158678691D01*
X264665217Y-158724973D01*
X264720449Y-158751770D01*
X264755724Y-158759360D01*
X264831006Y-158759179D01*
X264898741Y-158735237D01*
X264957846Y-158688037D01*
X265007236Y-158618085D01*
X265010717Y-158611573D01*
X265042602Y-158536276D01*
X265064427Y-158449292D01*
X265076960Y-158346521D01*
X265080967Y-158223862D01*
X265074926Y-158084280D01*
X265056333Y-157963736D01*
X265025142Y-157864788D01*
X264981305Y-157787292D01*
X264924774Y-157731098D01*
X264913010Y-157723063D01*
X264846190Y-157693520D01*
X264776956Y-157686720D01*
X264709024Y-157701373D01*
X264646112Y-157736187D01*
X264591936Y-157789873D01*
X264550216Y-157861139D01*
X264543874Y-157876601D01*
X264513738Y-157977876D01*
X264495207Y-158093463D01*
X264488390Y-158216418D01*
X264216889Y-158216418D01*
X264216749Y-158169597D01*
X264229327Y-158036660D01*
X264254435Y-157911207D01*
X264291621Y-157798276D01*
X264340431Y-157702906D01*
X264392477Y-157634274D01*
X264471975Y-157561803D01*
X264561551Y-157508756D01*
X264658088Y-157474939D01*
X264758471Y-157460160D01*
X264859581Y-157464224D01*
X264958304Y-157486937D01*
X265051523Y-157528108D01*
X265136121Y-157587541D01*
X265208982Y-157665045D01*
X265266990Y-157760424D01*
X265278215Y-157784505D01*
X265304367Y-157846810D01*
X265323499Y-157905931D01*
X265336628Y-157967533D01*
X265344770Y-158037280D01*
X265348942Y-158120835D01*
X265350159Y-158223862D01*
X265350162Y-158228966D01*
G37*
%TD.AperFunction*%
%TA.AperFunction,EtchedComponent*%
G36*
X271989073Y-158289877D02*
G01*
X271999655Y-158412944D01*
X271997157Y-158478196D01*
X271977168Y-158600773D01*
X271937856Y-158709033D01*
X271880029Y-158801832D01*
X271804492Y-158878024D01*
X271712050Y-158936463D01*
X271603510Y-158976005D01*
X271555334Y-158984571D01*
X271475430Y-158988972D01*
X271389518Y-158985196D01*
X271307724Y-158973818D01*
X271240174Y-158955412D01*
X271187268Y-158931589D01*
X271113417Y-158884651D01*
X271052132Y-158828718D01*
X271007562Y-158767829D01*
X270983859Y-158706021D01*
X270975866Y-158665053D01*
X271102047Y-158665053D01*
X271119770Y-158665066D01*
X271171565Y-158665658D01*
X271205024Y-158668013D01*
X271225565Y-158673328D01*
X271238606Y-158682800D01*
X271249568Y-158697623D01*
X271267417Y-158718504D01*
X271315698Y-158749980D01*
X271379082Y-158770569D01*
X271451722Y-158777949D01*
X271524099Y-158770715D01*
X271600334Y-158742900D01*
X271662374Y-158694826D01*
X271679689Y-158672796D01*
X271707385Y-158622457D01*
X271727549Y-158567196D01*
X271735345Y-158518688D01*
X271735345Y-158488941D01*
X271347727Y-158485608D01*
X270960110Y-158482274D01*
X270963045Y-158381430D01*
X270965748Y-158326808D01*
X270969260Y-158299495D01*
X271215202Y-158299495D01*
X271475274Y-158299495D01*
X271497623Y-158299454D01*
X271573296Y-158298678D01*
X271638620Y-158297034D01*
X271689879Y-158294680D01*
X271723360Y-158291775D01*
X271735345Y-158288474D01*
X271734507Y-158282900D01*
X271727584Y-158257675D01*
X271715947Y-158222474D01*
X271685854Y-158162384D01*
X271639022Y-158110530D01*
X271581955Y-158074494D01*
X271518535Y-158054074D01*
X271452647Y-158049068D01*
X271388173Y-158059274D01*
X271328997Y-158084489D01*
X271279001Y-158124512D01*
X271242070Y-158179140D01*
X271222086Y-158248172D01*
X271215202Y-158299495D01*
X270969260Y-158299495D01*
X270977362Y-158236494D01*
X270999079Y-158157620D01*
X271032848Y-158081820D01*
X271040805Y-158067307D01*
X271102255Y-157984515D01*
X271181389Y-157919207D01*
X271277131Y-157872102D01*
X271388401Y-157843923D01*
X271462262Y-157837157D01*
X271572650Y-157845583D01*
X271674514Y-157875724D01*
X271765942Y-157925800D01*
X271845023Y-157994032D01*
X271909846Y-158078642D01*
X271958499Y-158177850D01*
X271988690Y-158288474D01*
X271989073Y-158289877D01*
G37*
%TD.AperFunction*%
%TA.AperFunction,EtchedComponent*%
G36*
X276064549Y-157472581D02*
G01*
X276149146Y-157491407D01*
X276245393Y-157531233D01*
X276349717Y-157598550D01*
X276439621Y-157685195D01*
X276512431Y-157788974D01*
X276545729Y-157857031D01*
X276584858Y-157976929D01*
X276607350Y-158107273D01*
X276613104Y-158242771D01*
X276602014Y-158378127D01*
X276573978Y-158508047D01*
X276528890Y-158627237D01*
X276524603Y-158635993D01*
X276462007Y-158735055D01*
X276381086Y-158822248D01*
X276286165Y-158894243D01*
X276181569Y-158947709D01*
X276071623Y-158979316D01*
X276064986Y-158980385D01*
X276015168Y-158985136D01*
X275953992Y-158987181D01*
X275893179Y-158986075D01*
X275813939Y-158977916D01*
X275692362Y-158947026D01*
X275583703Y-158895584D01*
X275489575Y-158824906D01*
X275411592Y-158736311D01*
X275351371Y-158631115D01*
X275310523Y-158510636D01*
X275302210Y-158475971D01*
X275438790Y-158475971D01*
X275575371Y-158475971D01*
X275604139Y-158545378D01*
X275626223Y-158589419D01*
X275679711Y-158655112D01*
X275750124Y-158702437D01*
X275836905Y-158731070D01*
X275939498Y-158740686D01*
X275964018Y-158740399D01*
X276014111Y-158736126D01*
X276057398Y-158724373D01*
X276106921Y-158702138D01*
X276135301Y-158686997D01*
X276193282Y-158646119D01*
X276239144Y-158594733D01*
X276280047Y-158525536D01*
X276281012Y-158523625D01*
X276307893Y-158460187D01*
X276325465Y-158392570D01*
X276335005Y-158313964D01*
X276337791Y-158217559D01*
X276332845Y-158122849D01*
X276311388Y-158008843D01*
X276273461Y-157911244D01*
X276219624Y-157831391D01*
X276150439Y-157770618D01*
X276126900Y-157755900D01*
X276059285Y-157724850D01*
X275987040Y-157710250D01*
X275901449Y-157709976D01*
X275840427Y-157718118D01*
X275753624Y-157747010D01*
X275681542Y-157794037D01*
X275626425Y-157857568D01*
X275590517Y-157935971D01*
X275576020Y-157984358D01*
X275439115Y-157984358D01*
X275302210Y-157984358D01*
X275309871Y-157949693D01*
X275314978Y-157928400D01*
X275344387Y-157839140D01*
X275384253Y-157753801D01*
X275430868Y-157679478D01*
X275480524Y-157623264D01*
X275491412Y-157613873D01*
X275559003Y-157566030D01*
X275638444Y-157522968D01*
X275718670Y-157490838D01*
X275772507Y-157477344D01*
X275866417Y-157465536D01*
X275967035Y-157463953D01*
X276064549Y-157472581D01*
G37*
%TD.AperFunction*%
%TA.AperFunction,EtchedComponent*%
G36*
X283022762Y-157472581D02*
G01*
X283107359Y-157491407D01*
X283203606Y-157531233D01*
X283307930Y-157598550D01*
X283397835Y-157685195D01*
X283470645Y-157788974D01*
X283503943Y-157857031D01*
X283543071Y-157976929D01*
X283565564Y-158107273D01*
X283571317Y-158242771D01*
X283560228Y-158378127D01*
X283532191Y-158508047D01*
X283487103Y-158627237D01*
X283482816Y-158635993D01*
X283420221Y-158735055D01*
X283339300Y-158822248D01*
X283244378Y-158894243D01*
X283139782Y-158947709D01*
X283029837Y-158979316D01*
X283023199Y-158980385D01*
X282973381Y-158985136D01*
X282912205Y-158987181D01*
X282851392Y-158986075D01*
X282772153Y-158977916D01*
X282650576Y-158947026D01*
X282541916Y-158895584D01*
X282447788Y-158824906D01*
X282369806Y-158736311D01*
X282309584Y-158631115D01*
X282268737Y-158510636D01*
X282260423Y-158475971D01*
X282397004Y-158475971D01*
X282533585Y-158475971D01*
X282562352Y-158545378D01*
X282584437Y-158589419D01*
X282637925Y-158655112D01*
X282708337Y-158702437D01*
X282795118Y-158731070D01*
X282897711Y-158740686D01*
X282922231Y-158740399D01*
X282972324Y-158736126D01*
X283015612Y-158724373D01*
X283065135Y-158702138D01*
X283093514Y-158686997D01*
X283151495Y-158646119D01*
X283197357Y-158594733D01*
X283238261Y-158525536D01*
X283239225Y-158523625D01*
X283266106Y-158460187D01*
X283283678Y-158392570D01*
X283293219Y-158313964D01*
X283296005Y-158217559D01*
X283291058Y-158122849D01*
X283269601Y-158008843D01*
X283231674Y-157911244D01*
X283177838Y-157831391D01*
X283108652Y-157770618D01*
X283085113Y-157755900D01*
X283017498Y-157724850D01*
X282945253Y-157710250D01*
X282859663Y-157709976D01*
X282798641Y-157718118D01*
X282711838Y-157747010D01*
X282639756Y-157794037D01*
X282584638Y-157857568D01*
X282548730Y-157935971D01*
X282534233Y-157984358D01*
X282397328Y-157984358D01*
X282260423Y-157984358D01*
X282268085Y-157949693D01*
X282273192Y-157928400D01*
X282302600Y-157839140D01*
X282342467Y-157753801D01*
X282389082Y-157679478D01*
X282438737Y-157623264D01*
X282449626Y-157613873D01*
X282517217Y-157566030D01*
X282596658Y-157522968D01*
X282676884Y-157490838D01*
X282730720Y-157477344D01*
X282824630Y-157465536D01*
X282925248Y-157463953D01*
X283022762Y-157472581D01*
G37*
%TD.AperFunction*%
%TA.AperFunction,EtchedComponent*%
G36*
X279732988Y-158223862D02*
G01*
X279732991Y-158228966D01*
X279732621Y-158312046D01*
X279731113Y-158375773D01*
X279727963Y-158425703D01*
X279722669Y-158467388D01*
X279714728Y-158506383D01*
X279703639Y-158548242D01*
X279689480Y-158593439D01*
X279638928Y-158709138D01*
X279573582Y-158806238D01*
X279494425Y-158883700D01*
X279402443Y-158940487D01*
X279298621Y-158975559D01*
X279253658Y-158983815D01*
X279135170Y-158989998D01*
X279024487Y-158972957D01*
X278923232Y-158933689D01*
X278833028Y-158873190D01*
X278755496Y-158792456D01*
X278692260Y-158692483D01*
X278644941Y-158574267D01*
X278641555Y-158562915D01*
X278613824Y-158437764D01*
X278599983Y-158304978D01*
X278599721Y-158217559D01*
X278870725Y-158217559D01*
X278871511Y-158267654D01*
X278882267Y-158393150D01*
X278905084Y-158502817D01*
X278939277Y-158595083D01*
X278984163Y-158668378D01*
X279039058Y-158721130D01*
X279103278Y-158751770D01*
X279107555Y-158752926D01*
X279184847Y-158762011D01*
X279254974Y-158747505D01*
X279316942Y-158710227D01*
X279369759Y-158651000D01*
X279412432Y-158570645D01*
X279443967Y-158469982D01*
X279444178Y-158469070D01*
X279455116Y-158400773D01*
X279461665Y-158316035D01*
X279463825Y-158223109D01*
X279461595Y-158130250D01*
X279454976Y-158045710D01*
X279443967Y-157977742D01*
X279442997Y-157973612D01*
X279411412Y-157875910D01*
X279368409Y-157797076D01*
X279315389Y-157738302D01*
X279253754Y-157700778D01*
X279184905Y-157685695D01*
X279110244Y-157694243D01*
X279089198Y-157701089D01*
X279025629Y-157738545D01*
X278971971Y-157797527D01*
X278928939Y-157876479D01*
X278897245Y-157973840D01*
X278877602Y-158088053D01*
X278870725Y-158217559D01*
X278599721Y-158217559D01*
X278599578Y-158169597D01*
X278612156Y-158036660D01*
X278637264Y-157911207D01*
X278674449Y-157798276D01*
X278723259Y-157702906D01*
X278775306Y-157634274D01*
X278854804Y-157561803D01*
X278944380Y-157508756D01*
X279040917Y-157474939D01*
X279141299Y-157460160D01*
X279242410Y-157464224D01*
X279341133Y-157486937D01*
X279434352Y-157528108D01*
X279518950Y-157587541D01*
X279591811Y-157665045D01*
X279649819Y-157760424D01*
X279661044Y-157784505D01*
X279687196Y-157846810D01*
X279706328Y-157905931D01*
X279719457Y-157967533D01*
X279727599Y-158037280D01*
X279731770Y-158120835D01*
X279732979Y-158223109D01*
X279732988Y-158223862D01*
G37*
%TD.AperFunction*%
%TA.AperFunction,EtchedComponent*%
G36*
X262614563Y-157508502D02*
G01*
X262616547Y-157521305D01*
X262621107Y-157557667D01*
X262627437Y-157612287D01*
X262635123Y-157681226D01*
X262643754Y-157760549D01*
X262652916Y-157846320D01*
X262662195Y-157934602D01*
X262671180Y-158021459D01*
X262679457Y-158102954D01*
X262686614Y-158175152D01*
X262692237Y-158234116D01*
X262695914Y-158275909D01*
X262697231Y-158296595D01*
X262697224Y-158298267D01*
X262695547Y-158310790D01*
X262687623Y-158318568D01*
X262668711Y-158322729D01*
X262634071Y-158324399D01*
X262578962Y-158324706D01*
X262460693Y-158324706D01*
X262411656Y-158275668D01*
X262367065Y-158239641D01*
X262296174Y-158208874D01*
X262211838Y-158198722D01*
X262193693Y-158199153D01*
X262109281Y-158214424D01*
X262037038Y-158249861D01*
X261979600Y-158303161D01*
X261939600Y-158372021D01*
X261919673Y-158454139D01*
X261920233Y-158531484D01*
X261941175Y-158609335D01*
X261981691Y-158674023D01*
X262039643Y-158723172D01*
X262112897Y-158754404D01*
X262199315Y-158765343D01*
X262246834Y-158762038D01*
X262320166Y-158742513D01*
X262381334Y-158707681D01*
X262426383Y-158660100D01*
X262451358Y-158602328D01*
X262459731Y-158564210D01*
X262592697Y-158564210D01*
X262725664Y-158564210D01*
X262717365Y-158617783D01*
X262708519Y-158659305D01*
X262672071Y-158747380D01*
X262614720Y-158824963D01*
X262538662Y-158889985D01*
X262446095Y-158940376D01*
X262339213Y-158974067D01*
X262338375Y-158974249D01*
X262217376Y-158989663D01*
X262103324Y-158983602D01*
X261998036Y-158958001D01*
X261903330Y-158914795D01*
X261821023Y-158855920D01*
X261752933Y-158783311D01*
X261700878Y-158698904D01*
X261666674Y-158604634D01*
X261652139Y-158502437D01*
X261659091Y-158394248D01*
X261689348Y-158282002D01*
X261707130Y-158241366D01*
X261760632Y-158160196D01*
X261830181Y-158093021D01*
X261911968Y-158041107D01*
X262002187Y-158005724D01*
X262097030Y-157988139D01*
X262192690Y-157989621D01*
X262285359Y-158011439D01*
X262371230Y-158054860D01*
X262435822Y-158098327D01*
X262428640Y-158050797D01*
X262425180Y-158025217D01*
X262419407Y-157977879D01*
X262412606Y-157918788D01*
X262405624Y-157855152D01*
X262389790Y-157707038D01*
X262058201Y-157707038D01*
X261726611Y-157707038D01*
X261726611Y-157593589D01*
X261726611Y-157480140D01*
X262167562Y-157480140D01*
X262608513Y-157480140D01*
X262614563Y-157508502D01*
G37*
%TD.AperFunction*%
%TA.AperFunction,EtchedComponent*%
G36*
X260108263Y-158020902D02*
G01*
X260089320Y-158119530D01*
X260051899Y-158211850D01*
X259996236Y-158294004D01*
X259922567Y-158362133D01*
X259881000Y-158389628D01*
X259801435Y-158426673D01*
X259715175Y-158445464D01*
X259615196Y-158447962D01*
X259526249Y-158438143D01*
X259444175Y-158413285D01*
X259371459Y-158370758D01*
X259301386Y-158307557D01*
X259239684Y-158242770D01*
X259248741Y-158335839D01*
X259254142Y-158380145D01*
X259275021Y-158480467D01*
X259305616Y-158567565D01*
X259344142Y-158635826D01*
X259395039Y-158687983D01*
X259463068Y-158727822D01*
X259539027Y-158749089D01*
X259617070Y-158750208D01*
X259691351Y-158729597D01*
X259712447Y-158718416D01*
X259759490Y-158682255D01*
X259797194Y-158638446D01*
X259818254Y-158594752D01*
X259820723Y-158585945D01*
X259826790Y-158575508D01*
X259839439Y-158569095D01*
X259863328Y-158565728D01*
X259903114Y-158564426D01*
X259963453Y-158564210D01*
X260100987Y-158564210D01*
X260092523Y-158598875D01*
X260089858Y-158609432D01*
X260050104Y-158718980D01*
X259992774Y-158810529D01*
X259918105Y-158883841D01*
X259826334Y-158938679D01*
X259717697Y-158974805D01*
X259650301Y-158985040D01*
X259554840Y-158986772D01*
X259459839Y-158976259D01*
X259376436Y-158954174D01*
X259300968Y-158917766D01*
X259214915Y-158852449D01*
X259140852Y-158767709D01*
X259079727Y-158665556D01*
X259032491Y-158548000D01*
X259000094Y-158417052D01*
X258983486Y-158274721D01*
X258983617Y-158123018D01*
X258989893Y-158043910D01*
X259002456Y-157963630D01*
X259281152Y-157963630D01*
X259281263Y-157972821D01*
X259293185Y-158050143D01*
X259326190Y-158116809D01*
X259382298Y-158177078D01*
X259400297Y-158190945D01*
X259445976Y-158218098D01*
X259489159Y-158235157D01*
X259557315Y-158246264D01*
X259634703Y-158240009D01*
X259704345Y-158210409D01*
X259768657Y-158156786D01*
X259784147Y-158139133D01*
X259825012Y-158071367D01*
X259844583Y-157998960D01*
X259844289Y-157925798D01*
X259825560Y-157855761D01*
X259789824Y-157792734D01*
X259738510Y-157740600D01*
X259673047Y-157703240D01*
X259594865Y-157684539D01*
X259516588Y-157686188D01*
X259439314Y-157708501D01*
X259374328Y-157749898D01*
X259324434Y-157807883D01*
X259292440Y-157879959D01*
X259281152Y-157963630D01*
X259002456Y-157963630D01*
X259008734Y-157923512D01*
X259038876Y-157820036D01*
X259081672Y-157729324D01*
X259138475Y-157647220D01*
X259189510Y-157594230D01*
X259274107Y-157534749D01*
X259370411Y-157492564D01*
X259474393Y-157467843D01*
X259582026Y-157460757D01*
X259689280Y-157471476D01*
X259792126Y-157500171D01*
X259886536Y-157547010D01*
X259968481Y-157612166D01*
X259994528Y-157640493D01*
X260051860Y-157725762D01*
X260089769Y-157820160D01*
X260108491Y-157919826D01*
X260108312Y-157998960D01*
X260108263Y-158020902D01*
G37*
%TD.AperFunction*%
%TA.AperFunction,EtchedComponent*%
G36*
X275075792Y-158223862D02*
G01*
X275075792Y-158527456D01*
X275075792Y-158967584D01*
X274719185Y-158967584D01*
X274633121Y-158967426D01*
X274536492Y-158966637D01*
X274459635Y-158965059D01*
X274399425Y-158962550D01*
X274352739Y-158958968D01*
X274316454Y-158954172D01*
X274287448Y-158948021D01*
X274219482Y-158925697D01*
X274128310Y-158876699D01*
X274055217Y-158810825D01*
X274001109Y-158728770D01*
X273985707Y-158686564D01*
X273973449Y-158615040D01*
X273971837Y-158541428D01*
X274244882Y-158541428D01*
X274256023Y-158606571D01*
X274289586Y-158663242D01*
X274344718Y-158708491D01*
X274346073Y-158709280D01*
X274365379Y-158718858D01*
X274388065Y-158725873D01*
X274418498Y-158730839D01*
X274461043Y-158734272D01*
X274520067Y-158736686D01*
X274599936Y-158738597D01*
X274811077Y-158742811D01*
X274811077Y-158527456D01*
X274811077Y-158312100D01*
X274630179Y-158312100D01*
X274592780Y-158312340D01*
X274498436Y-158316175D01*
X274424563Y-158325610D01*
X274367865Y-158341838D01*
X274325045Y-158366052D01*
X274292805Y-158399445D01*
X274267850Y-158443211D01*
X274257020Y-158470762D01*
X274244882Y-158541428D01*
X273971837Y-158541428D01*
X273971737Y-158536868D01*
X273980600Y-158461495D01*
X274000069Y-158398368D01*
X274007749Y-158382752D01*
X274060034Y-158308630D01*
X274129178Y-158250539D01*
X274210701Y-158212434D01*
X274226897Y-158207384D01*
X274260639Y-158196119D01*
X274274187Y-158188679D01*
X274270483Y-158182403D01*
X274252465Y-158174631D01*
X274225717Y-158164948D01*
X274210617Y-158160835D01*
X274204152Y-158158039D01*
X274181503Y-158144417D01*
X274149667Y-158123277D01*
X274118266Y-158098107D01*
X274069047Y-158035256D01*
X274039665Y-157957374D01*
X274036216Y-157922730D01*
X274296577Y-157922730D01*
X274314054Y-157983947D01*
X274352718Y-158037113D01*
X274410940Y-158078152D01*
X274431414Y-158087940D01*
X274458004Y-158098165D01*
X274486727Y-158104725D01*
X274523352Y-158108419D01*
X274573646Y-158110048D01*
X274643379Y-158110413D01*
X274811077Y-158110413D01*
X274811077Y-157908726D01*
X274811077Y-157707038D01*
X274642785Y-157707038D01*
X274625650Y-157707089D01*
X274532365Y-157709963D01*
X274460021Y-157718162D01*
X274405191Y-157732952D01*
X274364451Y-157755600D01*
X274334374Y-157787373D01*
X274311537Y-157829537D01*
X274301919Y-157857541D01*
X274296577Y-157922730D01*
X274036216Y-157922730D01*
X274030498Y-157865283D01*
X274032800Y-157817474D01*
X274038501Y-157769653D01*
X274046255Y-157736232D01*
X274048197Y-157731120D01*
X274086310Y-157660723D01*
X274139783Y-157598531D01*
X274201421Y-157553036D01*
X274219679Y-157543371D01*
X274259224Y-157524657D01*
X274299106Y-157509985D01*
X274342878Y-157498879D01*
X274394091Y-157490861D01*
X274456297Y-157485455D01*
X274533049Y-157482185D01*
X274627898Y-157480572D01*
X274744396Y-157480140D01*
X275075792Y-157480140D01*
X275075792Y-157908726D01*
X275075792Y-158223862D01*
G37*
%TD.AperFunction*%
%TD*%
D11*
%TO.P,S45,1,1*%
%TO.N,COL6*%
X272415000Y-146685000D03*
%TO.P,S45,2,2*%
%TO.N,Net-(D45-A)*%
X278765000Y-144145000D03*
%TD*%
%TO.P,S53,1,1*%
%TO.N,COL4*%
X186690000Y-165735000D03*
%TO.P,S53,2,2*%
%TO.N,Net-(D53-A)*%
X193040000Y-163195000D03*
%TD*%
%TO.P,S10,1,1*%
%TO.N,COL5*%
X220027500Y-108585000D03*
%TO.P,S10,2,2*%
%TO.N,Net-(D10-A)*%
X226377500Y-106045000D03*
%TD*%
%TO.P,S9,1,1*%
%TO.N,COL4*%
X200977500Y-108585000D03*
%TO.P,S9,2,2*%
%TO.N,Net-(D9-A)*%
X207327500Y-106045000D03*
%TD*%
%TO.P,S18,1,1*%
%TO.N,COL0*%
X43815000Y-132397500D03*
%TO.P,S18,2,2*%
%TO.N,Net-(D18-A)*%
X50165000Y-129857500D03*
%TD*%
%TO.P,S16,1,1*%
%TO.N,COL8*%
X334327500Y-108585000D03*
%TO.P,S16,2,2*%
%TO.N,Net-(D16-A)*%
X340677500Y-106045000D03*
%TD*%
%TO.P,S35,1,1*%
%TO.N,COL1*%
X74771250Y-146685000D03*
%TO.P,S35,2,2*%
%TO.N,Net-(D35-A)*%
X81121250Y-144145000D03*
%TD*%
%TO.P,S61,1,1*%
%TO.N,COL1*%
X70008750Y-184785000D03*
%TO.P,S61,2,2*%
%TO.N,Net-(D61-A)*%
X76358750Y-182245000D03*
%TD*%
D12*
%TO.P,LED1,1,K*%
%TO.N,GND*%
X46355000Y-174625000D03*
D13*
%TO.P,LED1,2,A*%
%TO.N,Net-(LED1-A)*%
X48895000Y-174625000D03*
%TD*%
D11*
%TO.P,S3,1,1*%
%TO.N,COL1*%
X86677500Y-108585000D03*
%TO.P,S3,2,2*%
%TO.N,Net-(D3-A)*%
X93027500Y-106045000D03*
%TD*%
D14*
%TO.P,S64,1,1*%
%TO.N,COL3*%
X188177500Y-184785000D03*
%TO.P,S64,2,2*%
%TO.N,Net-(D64-A)*%
X201104500Y-182245000D03*
%TD*%
D11*
%TO.P,S49,1,1*%
%TO.N,COL2*%
X110490000Y-165735000D03*
%TO.P,S49,2,2*%
%TO.N,Net-(D49-A)*%
X116840000Y-163195000D03*
%TD*%
%TO.P,S50,1,1*%
%TO.N,COL2*%
X129540000Y-165735000D03*
%TO.P,S50,2,2*%
%TO.N,Net-(D50-A)*%
X135890000Y-163195000D03*
%TD*%
%TO.P,S1,1,1*%
%TO.N,COL0*%
X43815000Y-108585000D03*
%TO.P,S1,2,2*%
%TO.N,Net-(D1-A)*%
X50165000Y-106045000D03*
%TD*%
%TO.P,S33,1,1*%
%TO.N,COL8*%
X358140000Y-127635000D03*
%TO.P,S33,2,2*%
%TO.N,Net-(D33-A)*%
X364490000Y-125095000D03*
%TD*%
%TO.P,S55,1,1*%
%TO.N,COL5*%
X224790000Y-165735000D03*
%TO.P,S55,2,2*%
%TO.N,Net-(D55-A)*%
X231140000Y-163195000D03*
%TD*%
%TO.P,S60,1,1*%
%TO.N,COL8*%
X339090000Y-165735000D03*
%TO.P,S60,2,2*%
%TO.N,Net-(D60-A)*%
X345440000Y-163195000D03*
%TD*%
%TO.P,S41,1,1*%
%TO.N,COL4*%
X196215000Y-146685000D03*
%TO.P,S41,2,2*%
%TO.N,Net-(D41-A)*%
X202565000Y-144145000D03*
%TD*%
%TO.P,S5,1,1*%
%TO.N,COL2*%
X124777500Y-108585000D03*
%TO.P,S5,2,2*%
%TO.N,Net-(D5-A)*%
X131127500Y-106045000D03*
%TD*%
D14*
%TO.P,S47,1,1*%
%TO.N,COL7*%
X319146250Y-146685000D03*
%TO.P,S47,2,2*%
%TO.N,Net-(D47-A)*%
X332073250Y-144145000D03*
%TD*%
D11*
%TO.P,S57,1,1*%
%TO.N,COL6*%
X262890000Y-165735000D03*
%TO.P,S57,2,2*%
%TO.N,Net-(D57-A)*%
X269240000Y-163195000D03*
%TD*%
%TO.P,S26,1,1*%
%TO.N,COL4*%
X210502500Y-127635000D03*
%TO.P,S26,2,2*%
%TO.N,Net-(D26-A)*%
X216852500Y-125095000D03*
%TD*%
%TO.P,S43,1,1*%
%TO.N,COL5*%
X234315000Y-146685000D03*
%TO.P,S43,2,2*%
%TO.N,Net-(D43-A)*%
X240665000Y-144145000D03*
%TD*%
%TO.P,S51,1,1*%
%TO.N,COL3*%
X148590000Y-165735000D03*
%TO.P,S51,2,2*%
%TO.N,Net-(D51-A)*%
X154940000Y-163195000D03*
%TD*%
D14*
%TO.P,S59,1,1*%
%TO.N,COL7*%
X307240000Y-165735000D03*
%TO.P,S59,2,2*%
%TO.N,Net-(D59-A)*%
X320167000Y-163195000D03*
%TD*%
D11*
%TO.P,S4,1,1*%
%TO.N,COL2*%
X105727500Y-108585000D03*
%TO.P,S4,2,2*%
%TO.N,Net-(D4-A)*%
X112077500Y-106045000D03*
%TD*%
%TO.P,S63,1,1*%
%TO.N,COL2*%
X120015000Y-184785000D03*
%TO.P,S63,2,2*%
%TO.N,Net-(D63-A)*%
X126365000Y-182245000D03*
%TD*%
%TO.P,S27,1,1*%
%TO.N,COL5*%
X229552500Y-127635000D03*
%TO.P,S27,2,2*%
%TO.N,Net-(D27-A)*%
X235902500Y-125095000D03*
%TD*%
%TO.P,S58,1,1*%
%TO.N,COL6*%
X281940000Y-165735000D03*
%TO.P,S58,2,2*%
%TO.N,Net-(D58-A)*%
X288290000Y-163195000D03*
%TD*%
%TO.P,S7,1,1*%
%TO.N,COL3*%
X162877500Y-108585000D03*
%TO.P,S7,2,2*%
%TO.N,Net-(D7-A)*%
X169227500Y-106045000D03*
%TD*%
%TO.P,S62,1,1*%
%TO.N,COL1*%
X93821250Y-184785000D03*
%TO.P,S62,2,2*%
%TO.N,Net-(D62-A)*%
X100171250Y-182245000D03*
%TD*%
%TO.P,S14,1,1*%
%TO.N,COL7*%
X296227500Y-108585000D03*
%TO.P,S14,2,2*%
%TO.N,Net-(D14-A)*%
X302577500Y-106045000D03*
%TD*%
%TO.P,S39,1,1*%
%TO.N,COL3*%
X158115000Y-146685000D03*
%TO.P,S39,2,2*%
%TO.N,Net-(D39-A)*%
X164465000Y-144145000D03*
%TD*%
%TO.P,S24,1,1*%
%TO.N,COL3*%
X172402500Y-127635000D03*
%TO.P,S24,2,2*%
%TO.N,Net-(D24-A)*%
X178752500Y-125095000D03*
%TD*%
%TO.P,S54,1,1*%
%TO.N,COL4*%
X205740000Y-165735000D03*
%TO.P,S54,2,2*%
%TO.N,Net-(D54-A)*%
X212090000Y-163195000D03*
%TD*%
%TO.P,S67,1,1*%
%TO.N,COL7*%
X320040000Y-184785000D03*
%TO.P,S67,2,2*%
%TO.N,Net-(D67-A)*%
X326390000Y-182245000D03*
%TD*%
%TO.P,S29,1,1*%
%TO.N,COL6*%
X267652500Y-127635000D03*
%TO.P,S29,2,2*%
%TO.N,Net-(D29-A)*%
X274002500Y-125095000D03*
%TD*%
D12*
%TO.P,LED3,1,K*%
%TO.N,GND*%
X46355000Y-187312500D03*
D13*
%TO.P,LED3,2,A*%
%TO.N,Net-(LED3-A)*%
X48895000Y-187312500D03*
%TD*%
D11*
%TO.P,S25,1,1*%
%TO.N,COL4*%
X191452500Y-127635000D03*
%TO.P,S25,2,2*%
%TO.N,Net-(D25-A)*%
X197802500Y-125095000D03*
%TD*%
%TO.P,S36,1,1*%
%TO.N,COL2*%
X100965000Y-146685000D03*
%TO.P,S36,2,2*%
%TO.N,Net-(D36-A)*%
X107315000Y-144145000D03*
%TD*%
%TO.P,S22,1,1*%
%TO.N,COL2*%
X134302500Y-127635000D03*
%TO.P,S22,2,2*%
%TO.N,Net-(D22-A)*%
X140652500Y-125095000D03*
%TD*%
%TO.P,S66,1,1*%
%TO.N,COL6*%
X289083750Y-184785000D03*
%TO.P,S66,2,2*%
%TO.N,Net-(D66-A)*%
X295433750Y-182245000D03*
%TD*%
%TO.P,S34,1,1*%
%TO.N,COL0*%
X43815000Y-151447500D03*
%TO.P,S34,2,2*%
%TO.N,Net-(D34-A)*%
X50165000Y-148907500D03*
%TD*%
%TO.P,S69,1,1*%
%TO.N,COL8*%
X358140000Y-184785000D03*
%TO.P,S69,2,2*%
%TO.N,Net-(D69-A)*%
X364490000Y-182245000D03*
%TD*%
%TO.P,S28,1,1*%
%TO.N,COL5*%
X248602500Y-127635000D03*
%TO.P,S28,2,2*%
%TO.N,Net-(D28-A)*%
X254952500Y-125095000D03*
%TD*%
%TO.P,S30,1,1*%
%TO.N,COL6*%
X286702500Y-127635000D03*
%TO.P,S30,2,2*%
%TO.N,Net-(D30-A)*%
X293052500Y-125095000D03*
%TD*%
%TO.P,S13,1,1*%
%TO.N,COL6*%
X277177500Y-108585000D03*
%TO.P,S13,2,2*%
%TO.N,Net-(D13-A)*%
X283527500Y-106045000D03*
%TD*%
%TO.P,S23,1,1*%
%TO.N,COL3*%
X153352500Y-127635000D03*
%TO.P,S23,2,2*%
%TO.N,Net-(D23-A)*%
X159702500Y-125095000D03*
%TD*%
%TO.P,S56,1,1*%
%TO.N,COL5*%
X243840000Y-165735000D03*
%TO.P,S56,2,2*%
%TO.N,Net-(D56-A)*%
X250190000Y-163195000D03*
%TD*%
%TO.P,S17,1,1*%
%TO.N,COL8*%
X358140000Y-108585000D03*
%TO.P,S17,2,2*%
%TO.N,Net-(D17-A)*%
X364490000Y-106045000D03*
%TD*%
%TO.P,S31,1,1*%
%TO.N,COL7*%
X305752500Y-127635000D03*
%TO.P,S31,2,2*%
%TO.N,Net-(D31-A)*%
X312102500Y-125095000D03*
%TD*%
%TO.P,S52,1,1*%
%TO.N,COL3*%
X167640000Y-165735000D03*
%TO.P,S52,2,2*%
%TO.N,Net-(D52-A)*%
X173990000Y-163195000D03*
%TD*%
D15*
%TO.P,RESW1,A,A*%
%TO.N,RESW_A*%
X368975000Y-166250000D03*
D16*
%TO.P,RESW1,B,B*%
%TO.N,RESW_B*%
X373975000Y-166250000D03*
%TO.P,RESW1,C,C*%
%TO.N,GND*%
X371475000Y-166250000D03*
D17*
%TO.P,RESW1,MP*%
%TO.N,N/C*%
X365875000Y-158750000D03*
X377075000Y-158750000D03*
D16*
%TO.P,RESW1,S1,S1*%
%TO.N,Net-(D70-A)*%
X373975000Y-151750000D03*
%TO.P,RESW1,S2,S2*%
%TO.N,COL8*%
X368975000Y-151750000D03*
%TD*%
D11*
%TO.P,S46,1,1*%
%TO.N,COL7*%
X291465000Y-146685000D03*
%TO.P,S46,2,2*%
%TO.N,Net-(D46-A)*%
X297815000Y-144145000D03*
%TD*%
%TO.P,S11,1,1*%
%TO.N,COL5*%
X239077500Y-108585000D03*
%TO.P,S11,2,2*%
%TO.N,Net-(D11-A)*%
X245427500Y-106045000D03*
%TD*%
%TO.P,S12,1,1*%
%TO.N,COL6*%
X258127500Y-108585000D03*
%TO.P,S12,2,2*%
%TO.N,Net-(D12-A)*%
X264477500Y-106045000D03*
%TD*%
D14*
%TO.P,S48,1,1*%
%TO.N,COL1*%
X76258750Y-165735000D03*
%TO.P,S48,2,2*%
%TO.N,Net-(D48-A)*%
X89185750Y-163195000D03*
%TD*%
D11*
%TO.P,S42,1,1*%
%TO.N,COL5*%
X215265000Y-146685000D03*
%TO.P,S42,2,2*%
%TO.N,Net-(D42-A)*%
X221615000Y-144145000D03*
%TD*%
%TO.P,S65,1,1*%
%TO.N,COL5*%
X262890000Y-184785000D03*
%TO.P,S65,2,2*%
%TO.N,Net-(D65-A)*%
X269240000Y-182245000D03*
%TD*%
%TO.P,S68,1,1*%
%TO.N,COL8*%
X339090000Y-184785000D03*
%TO.P,S68,2,2*%
%TO.N,Net-(D68-A)*%
X345440000Y-182245000D03*
%TD*%
%TO.P,S40,1,1*%
%TO.N,COL4*%
X177165000Y-146685000D03*
%TO.P,S40,2,2*%
%TO.N,Net-(D40-A)*%
X183515000Y-144145000D03*
%TD*%
%TO.P,S19,1,1*%
%TO.N,COL1*%
X72390000Y-127635000D03*
%TO.P,S19,2,2*%
%TO.N,Net-(D19-A)*%
X78740000Y-125095000D03*
%TD*%
%TO.P,S6,1,1*%
%TO.N,COL3*%
X143827500Y-108585000D03*
%TO.P,S6,2,2*%
%TO.N,Net-(D6-A)*%
X150177500Y-106045000D03*
%TD*%
%TO.P,S21,1,1*%
%TO.N,COL2*%
X115252500Y-127635000D03*
%TO.P,S21,2,2*%
%TO.N,Net-(D21-A)*%
X121602500Y-125095000D03*
%TD*%
%TO.P,S15,1,1*%
%TO.N,COL7*%
X315277500Y-108585000D03*
%TO.P,S15,2,2*%
%TO.N,Net-(D15-A)*%
X321627500Y-106045000D03*
%TD*%
D12*
%TO.P,LED2,1,K*%
%TO.N,GND*%
X46355000Y-180968750D03*
D13*
%TO.P,LED2,2,A*%
%TO.N,Net-(LED2-A)*%
X48895000Y-180968750D03*
%TD*%
D11*
%TO.P,S20,1,1*%
%TO.N,COL1*%
X96202500Y-127635000D03*
%TO.P,S20,2,2*%
%TO.N,Net-(D20-A)*%
X102552500Y-125095000D03*
%TD*%
%TO.P,S37,1,1*%
%TO.N,COL2*%
X120015000Y-146685000D03*
%TO.P,S37,2,2*%
%TO.N,Net-(D37-A)*%
X126365000Y-144145000D03*
%TD*%
%TO.P,S32,1,1*%
%TO.N,COL7*%
X329565000Y-127635000D03*
%TO.P,S32,2,2*%
%TO.N,Net-(D32-A)*%
X335915000Y-125095000D03*
%TD*%
%TO.P,S8,1,1*%
%TO.N,COL4*%
X181927500Y-108585000D03*
%TO.P,S8,2,2*%
%TO.N,Net-(D8-A)*%
X188277500Y-106045000D03*
%TD*%
%TO.P,S38,1,1*%
%TO.N,COL3*%
X139065000Y-146685000D03*
%TO.P,S38,2,2*%
%TO.N,Net-(D38-A)*%
X145415000Y-144145000D03*
%TD*%
%TO.P,S44,1,1*%
%TO.N,COL6*%
X253365000Y-146685000D03*
%TO.P,S44,2,2*%
%TO.N,Net-(D44-A)*%
X259715000Y-144145000D03*
%TD*%
%TO.P,S2,1,1*%
%TO.N,COL1*%
X67627500Y-108585000D03*
%TO.P,S2,2,2*%
%TO.N,Net-(D2-A)*%
X73977500Y-106045000D03*
%TD*%
D18*
%TO.P,C6,1*%
%TO.N,GND*%
X353200000Y-153250000D03*
%TO.P,C6,2*%
%TO.N,+5V*%
X351500000Y-153250000D03*
%TD*%
D19*
%TO.P,RGB7,1,VDD*%
%TO.N,+5V*%
X94812500Y-121443750D03*
%TO.P,RGB7,2,DOUT*%
%TO.N,Net-(RGB7-DOUT)*%
X94812500Y-118243750D03*
%TO.P,RGB7,3,VSS*%
%TO.N,GND*%
X100012500Y-118243750D03*
%TO.P,RGB7,4,DIN*%
%TO.N,Net-(RGB6-DOUT)*%
X100012500Y-121443750D03*
%TD*%
D20*
%TO.P,D8,1,K*%
%TO.N,ROW1*%
X193675000Y-112043750D03*
%TO.P,D8,2,A*%
%TO.N,Net-(D8-A)*%
X193675000Y-108743750D03*
%TD*%
D19*
%TO.P,RGB16,1,VDD*%
%TO.N,+5V*%
X357187500Y-175337500D03*
%TO.P,RGB16,2,DOUT*%
%TO.N,unconnected-(RGB16-DOUT-Pad2)*%
X357187500Y-178537500D03*
%TO.P,RGB16,3,VSS*%
%TO.N,GND*%
X351987500Y-178537500D03*
%TO.P,RGB16,4,DIN*%
%TO.N,Net-(RGB15-DOUT)*%
X351987500Y-175337500D03*
%TD*%
%TO.P,RGB14,1,VDD*%
%TO.N,+5V*%
X273843750Y-175418750D03*
%TO.P,RGB14,2,DOUT*%
%TO.N,Net-(RGB14-DOUT)*%
X273843750Y-178618750D03*
%TO.P,RGB14,3,VSS*%
%TO.N,GND*%
X268643750Y-178618750D03*
%TO.P,RGB14,4,DIN*%
%TO.N,Net-(RGB13-DOUT)*%
X268643750Y-175418750D03*
%TD*%
D21*
%TO.P,CRGB14,1*%
%TO.N,+5V*%
X277018750Y-176100000D03*
%TO.P,CRGB14,2*%
%TO.N,GND*%
X277018750Y-177800000D03*
%TD*%
D20*
%TO.P,D58,1,K*%
%TO.N,ROW6*%
X293687500Y-169068750D03*
%TO.P,D58,2,A*%
%TO.N,Net-(D58-A)*%
X293687500Y-165768750D03*
%TD*%
%TO.P,D49,1,K*%
%TO.N,ROW7*%
X122237500Y-169068750D03*
%TO.P,D49,2,A*%
%TO.N,Net-(D49-A)*%
X122237500Y-165768750D03*
%TD*%
%TO.P,D60,1,K*%
%TO.N,ROW6*%
X346868750Y-173831250D03*
%TO.P,D60,2,A*%
%TO.N,Net-(D60-A)*%
X346868750Y-170531250D03*
%TD*%
D18*
%TO.P,C1,1*%
%TO.N,Net-(U1-UCAP)*%
X350500000Y-138906250D03*
%TO.P,C1,2*%
%TO.N,GND*%
X348800000Y-138906250D03*
%TD*%
D20*
%TO.P,D55,1,K*%
%TO.N,ROW7*%
X236537500Y-169068750D03*
%TO.P,D55,2,A*%
%TO.N,Net-(D55-A)*%
X236537500Y-165768750D03*
%TD*%
%TO.P,D70,1,K*%
%TO.N,ROW7*%
X365750000Y-155050000D03*
%TO.P,D70,2,A*%
%TO.N,Net-(D70-A)*%
X365750000Y-151750000D03*
%TD*%
D19*
%TO.P,RGB6,1,VDD*%
%TO.N,+5V*%
X136087500Y-121443750D03*
%TO.P,RGB6,2,DOUT*%
%TO.N,Net-(RGB6-DOUT)*%
X136087500Y-118243750D03*
%TO.P,RGB6,3,VSS*%
%TO.N,GND*%
X141287500Y-118243750D03*
%TO.P,RGB6,4,DIN*%
%TO.N,Net-(RGB5-DOUT)*%
X141287500Y-121443750D03*
%TD*%
D20*
%TO.P,D57,1,K*%
%TO.N,ROW7*%
X274637500Y-169068750D03*
%TO.P,D57,2,A*%
%TO.N,Net-(D57-A)*%
X274637500Y-165768750D03*
%TD*%
%TO.P,D14,1,K*%
%TO.N,ROW1*%
X307975000Y-111981250D03*
%TO.P,D14,2,A*%
%TO.N,Net-(D14-A)*%
X307975000Y-108681250D03*
%TD*%
%TO.P,D7,1,K*%
%TO.N,ROW0*%
X174625000Y-112043750D03*
%TO.P,D7,2,A*%
%TO.N,Net-(D7-A)*%
X174625000Y-108743750D03*
%TD*%
D18*
%TO.P,C9,1*%
%TO.N,GND*%
X364800000Y-169900000D03*
%TO.P,C9,2*%
%TO.N,RESW_A*%
X366500000Y-169900000D03*
%TD*%
D19*
%TO.P,RGB8,1,VDD*%
%TO.N,+5V*%
X52750000Y-121450000D03*
%TO.P,RGB8,2,DOUT*%
%TO.N,Net-(RGB8-DOUT)*%
X52750000Y-118250000D03*
%TO.P,RGB8,3,VSS*%
%TO.N,GND*%
X57950000Y-118250000D03*
%TO.P,RGB8,4,DIN*%
%TO.N,Net-(RGB7-DOUT)*%
X57950000Y-121450000D03*
%TD*%
D20*
%TO.P,D47,1,K*%
%TO.N,ROW5*%
X330200000Y-154781250D03*
%TO.P,D47,2,A*%
%TO.N,Net-(D47-A)*%
X330200000Y-151481250D03*
%TD*%
%TO.P,D4,1,K*%
%TO.N,ROW1*%
X117475000Y-112043750D03*
%TO.P,D4,2,A*%
%TO.N,Net-(D4-A)*%
X117475000Y-108743750D03*
%TD*%
D21*
%TO.P,CRGB15,1*%
%TO.N,+5V*%
X317500000Y-176100000D03*
%TO.P,CRGB15,2*%
%TO.N,GND*%
X317500000Y-177800000D03*
%TD*%
D22*
%TO.P,RC1,1*%
%TO.N,D-*%
X346075000Y-136525000D03*
%TO.P,RC1,2*%
%TO.N,Net-(U2-IO2)*%
X346075000Y-134725000D03*
%TD*%
D21*
%TO.P,CRGB2,1*%
%TO.N,+5V*%
X317500000Y-120762500D03*
%TO.P,CRGB2,2*%
%TO.N,GND*%
X317500000Y-119062500D03*
%TD*%
D20*
%TO.P,D27,1,K*%
%TO.N,ROW3*%
X241300000Y-130968750D03*
%TO.P,D27,2,A*%
%TO.N,Net-(D27-A)*%
X241300000Y-127668750D03*
%TD*%
%TO.P,D26,1,K*%
%TO.N,ROW2*%
X222250000Y-130968750D03*
%TO.P,D26,2,A*%
%TO.N,Net-(D26-A)*%
X222250000Y-127668750D03*
%TD*%
D22*
%TO.P,RC2,1*%
%TO.N,Net-(U2-IO1)*%
X348000000Y-134750000D03*
%TO.P,RC2,2*%
%TO.N,D+*%
X348000000Y-136550000D03*
%TD*%
D20*
%TO.P,D20,1,K*%
%TO.N,ROW2*%
X107950000Y-130968750D03*
%TO.P,D20,2,A*%
%TO.N,Net-(D20-A)*%
X107950000Y-127668750D03*
%TD*%
D23*
%TO.P,U2,1,GND*%
%TO.N,GND*%
X350756250Y-107837500D03*
D24*
%TO.P,U2,2,IO1*%
%TO.N,Net-(U2-IO1)*%
X350756250Y-109537500D03*
%TO.P,U2,3,IO2*%
%TO.N,Net-(U2-IO2)*%
X348456250Y-109537500D03*
%TO.P,U2,4,VCC*%
%TO.N,VCC*%
X348456250Y-107637500D03*
%TD*%
D18*
%TO.P,C8,1*%
%TO.N,RESW_B*%
X366500000Y-171500000D03*
%TO.P,C8,2*%
%TO.N,GND*%
X364800000Y-171500000D03*
%TD*%
D21*
%TO.P,CRGB9,1*%
%TO.N,+5V*%
X61250000Y-176100000D03*
%TO.P,CRGB9,2*%
%TO.N,GND*%
X61250000Y-177800000D03*
%TD*%
%TO.P,CRGB11,1*%
%TO.N,+5V*%
X144750000Y-176550000D03*
%TO.P,CRGB11,2*%
%TO.N,GND*%
X144750000Y-178250000D03*
%TD*%
D20*
%TO.P,D5,1,K*%
%TO.N,ROW0*%
X136525000Y-112043750D03*
%TO.P,D5,2,A*%
%TO.N,Net-(D5-A)*%
X136525000Y-108743750D03*
%TD*%
D21*
%TO.P,CRGB16,1*%
%TO.N,+5V*%
X360362500Y-176100000D03*
%TO.P,CRGB16,2*%
%TO.N,GND*%
X360362500Y-177800000D03*
%TD*%
D20*
%TO.P,D37,1,K*%
%TO.N,ROW5*%
X131762500Y-150018750D03*
%TO.P,D37,2,A*%
%TO.N,Net-(D37-A)*%
X131762500Y-146718750D03*
%TD*%
%TO.P,D51,1,K*%
%TO.N,ROW7*%
X160337500Y-169193750D03*
%TO.P,D51,2,A*%
%TO.N,Net-(D51-A)*%
X160337500Y-165893750D03*
%TD*%
D21*
%TO.P,C4,1*%
%TO.N,GND*%
X345281250Y-138906250D03*
%TO.P,C4,2*%
%TO.N,+5V*%
X345281250Y-140606250D03*
%TD*%
D20*
%TO.P,D6,1,K*%
%TO.N,ROW1*%
X155575000Y-112043750D03*
%TO.P,D6,2,A*%
%TO.N,Net-(D6-A)*%
X155575000Y-108743750D03*
%TD*%
%TO.P,D62,1,K*%
%TO.N,ROW9*%
X105568750Y-188243750D03*
%TO.P,D62,2,A*%
%TO.N,Net-(D62-A)*%
X105568750Y-184943750D03*
%TD*%
%TO.P,D18,1,K*%
%TO.N,ROW2*%
X55562500Y-135856250D03*
%TO.P,D18,2,A*%
%TO.N,Net-(D18-A)*%
X55562500Y-132556250D03*
%TD*%
D19*
%TO.P,RGB13,1,VDD*%
%TO.N,+5V*%
X230981250Y-174600000D03*
%TO.P,RGB13,2,DOUT*%
%TO.N,Net-(RGB13-DOUT)*%
X230981250Y-177800000D03*
%TO.P,RGB13,3,VSS*%
%TO.N,GND*%
X225781250Y-177800000D03*
%TO.P,RGB13,4,DIN*%
%TO.N,Net-(RGB12-DOUT)*%
X225781250Y-174600000D03*
%TD*%
D18*
%TO.P,C3,1*%
%TO.N,XTAL2*%
X359800000Y-146843750D03*
%TO.P,C3,2*%
%TO.N,GND*%
X361500000Y-146843750D03*
%TD*%
D20*
%TO.P,D13,1,K*%
%TO.N,ROW0*%
X288925000Y-111981250D03*
%TO.P,D13,2,A*%
%TO.N,Net-(D13-A)*%
X288925000Y-108681250D03*
%TD*%
D21*
%TO.P,CRGB4,1*%
%TO.N,+5V*%
X234156250Y-120650000D03*
%TO.P,CRGB4,2*%
%TO.N,GND*%
X234156250Y-118950000D03*
%TD*%
D25*
%TO.P,SW1,1,1*%
%TO.N,GND*%
X365050000Y-138906250D03*
%TO.P,SW1,2,2*%
%TO.N,RESET*%
X358850000Y-142606250D03*
%TO.P,SW1,3*%
%TO.N,N/C*%
X365050000Y-142606250D03*
%TO.P,SW1,4*%
X358850000Y-138906250D03*
%TD*%
D20*
%TO.P,D50,1,K*%
%TO.N,ROW6*%
X141287500Y-169193750D03*
%TO.P,D50,2,A*%
%TO.N,Net-(D50-A)*%
X141287500Y-165893750D03*
%TD*%
%TO.P,D43,1,K*%
%TO.N,ROW5*%
X246062500Y-150081250D03*
%TO.P,D43,2,A*%
%TO.N,Net-(D43-A)*%
X246062500Y-146781250D03*
%TD*%
%TO.P,D59,1,K*%
%TO.N,ROW7*%
X323056250Y-169987500D03*
%TO.P,D59,2,A*%
%TO.N,Net-(D59-A)*%
X323056250Y-166687500D03*
%TD*%
D18*
%TO.P,C7,1*%
%TO.N,GND*%
X356750000Y-142500000D03*
%TO.P,C7,2*%
%TO.N,+5V*%
X355050000Y-142500000D03*
%TD*%
D20*
%TO.P,D41,1,K*%
%TO.N,ROW5*%
X207962500Y-150081250D03*
%TO.P,D41,2,A*%
%TO.N,Net-(D41-A)*%
X207962500Y-146781250D03*
%TD*%
D19*
%TO.P,RGB12,1,VDD*%
%TO.N,+5V*%
X183575000Y-174600000D03*
%TO.P,RGB12,2,DOUT*%
%TO.N,Net-(RGB12-DOUT)*%
X183575000Y-177800000D03*
%TO.P,RGB12,3,VSS*%
%TO.N,GND*%
X178375000Y-177800000D03*
%TO.P,RGB12,4,DIN*%
%TO.N,Net-(RGB11-DOUT)*%
X178375000Y-174600000D03*
%TD*%
D20*
%TO.P,D39,1,K*%
%TO.N,ROW5*%
X169862500Y-150018750D03*
%TO.P,D39,2,A*%
%TO.N,Net-(D39-A)*%
X169862500Y-146718750D03*
%TD*%
D19*
%TO.P,RGB4,1,VDD*%
%TO.N,+5V*%
X225781250Y-121443750D03*
%TO.P,RGB4,2,DOUT*%
%TO.N,Net-(RGB4-DOUT)*%
X225781250Y-118243750D03*
%TO.P,RGB4,3,VSS*%
%TO.N,GND*%
X230981250Y-118243750D03*
%TO.P,RGB4,4,DIN*%
%TO.N,Net-(RGB3-DOUT)*%
X230981250Y-121443750D03*
%TD*%
D26*
%TO.P,J1,1,MISO*%
%TO.N,RGBLED*%
X358000000Y-160460000D03*
%TO.P,J1,2,VCC*%
%TO.N,+5V*%
X355460000Y-160460000D03*
%TO.P,J1,3,SCK*%
%TO.N,COL8*%
X358000000Y-163000000D03*
%TO.P,J1,4,MOSI*%
%TO.N,SLOCK_IND*%
X355460000Y-163000000D03*
%TO.P,J1,5,~{RST}*%
%TO.N,RESET*%
X358000000Y-165540000D03*
D27*
%TO.P,J1,6,GND*%
%TO.N,GND*%
X355460000Y-165540000D03*
%TD*%
D19*
%TO.P,RGB2,1,VDD*%
%TO.N,+5V*%
X309125000Y-121443750D03*
%TO.P,RGB2,2,DOUT*%
%TO.N,Net-(RGB2-DOUT)*%
X309125000Y-118243750D03*
%TO.P,RGB2,3,VSS*%
%TO.N,GND*%
X314325000Y-118243750D03*
%TO.P,RGB2,4,DIN*%
%TO.N,Net-(RGB1-DOUT)*%
X314325000Y-121443750D03*
%TD*%
D28*
%TO.P,RC8,1*%
%TO.N,Net-(U1-~{HWB}{slash}PE2)*%
X343000000Y-152750000D03*
%TO.P,RC8,2*%
%TO.N,GND*%
X341200000Y-152750000D03*
%TD*%
D20*
%TO.P,D30,1,K*%
%TO.N,ROW2*%
X298450000Y-131031250D03*
%TO.P,D30,2,A*%
%TO.N,Net-(D30-A)*%
X298450000Y-127731250D03*
%TD*%
%TO.P,D54,1,K*%
%TO.N,ROW6*%
X217487500Y-169068750D03*
%TO.P,D54,2,A*%
%TO.N,Net-(D54-A)*%
X217487500Y-165768750D03*
%TD*%
%TO.P,D24,1,K*%
%TO.N,ROW2*%
X184150000Y-130968750D03*
%TO.P,D24,2,A*%
%TO.N,Net-(D24-A)*%
X184150000Y-127668750D03*
%TD*%
%TO.P,D36,1,K*%
%TO.N,ROW4*%
X112712500Y-150018750D03*
%TO.P,D36,2,A*%
%TO.N,Net-(D36-A)*%
X112712500Y-146718750D03*
%TD*%
D22*
%TO.P,RC7,1*%
%TO.N,GND*%
X353137500Y-109425000D03*
%TO.P,RC7,2*%
%TO.N,Net-(USB1-CC2)*%
X353137500Y-107625000D03*
%TD*%
D20*
%TO.P,D9,1,K*%
%TO.N,ROW0*%
X212725000Y-112043750D03*
%TO.P,D9,2,A*%
%TO.N,Net-(D9-A)*%
X212725000Y-108743750D03*
%TD*%
%TO.P,D38,1,K*%
%TO.N,ROW4*%
X150812500Y-150081250D03*
%TO.P,D38,2,A*%
%TO.N,Net-(D38-A)*%
X150812500Y-146781250D03*
%TD*%
%TO.P,D31,1,K*%
%TO.N,ROW3*%
X317500000Y-130968750D03*
%TO.P,D31,2,A*%
%TO.N,Net-(D31-A)*%
X317500000Y-127668750D03*
%TD*%
D19*
%TO.P,RGB1,1,VDD*%
%TO.N,+5V*%
X351987500Y-121468750D03*
%TO.P,RGB1,2,DOUT*%
%TO.N,Net-(RGB1-DOUT)*%
X351987500Y-118268750D03*
%TO.P,RGB1,3,VSS*%
%TO.N,GND*%
X357187500Y-118268750D03*
%TO.P,RGB1,4,DIN*%
%TO.N,RGBLED*%
X357187500Y-121468750D03*
%TD*%
D28*
%TO.P,RLED1,1*%
%TO.N,LAYER_IND*%
X61118750Y-182562500D03*
%TO.P,RLED1,2*%
%TO.N,Net-(LED1-A)*%
X59318750Y-182562500D03*
%TD*%
%TO.P,RLED2,1*%
%TO.N,CAPS_IND*%
X61118750Y-185737500D03*
%TO.P,RLED2,2*%
%TO.N,Net-(LED2-A)*%
X59318750Y-185737500D03*
%TD*%
D19*
%TO.P,RGB5,1,VDD*%
%TO.N,+5V*%
X178156250Y-121443750D03*
%TO.P,RGB5,2,DOUT*%
%TO.N,Net-(RGB5-DOUT)*%
X178156250Y-118243750D03*
%TO.P,RGB5,3,VSS*%
%TO.N,GND*%
X183356250Y-118243750D03*
%TO.P,RGB5,4,DIN*%
%TO.N,Net-(RGB4-DOUT)*%
X183356250Y-121443750D03*
%TD*%
D18*
%TO.P,C2,1*%
%TO.N,XTAL1*%
X359843750Y-149225000D03*
%TO.P,C2,2*%
%TO.N,GND*%
X361543750Y-149225000D03*
%TD*%
D20*
%TO.P,D32,1,K*%
%TO.N,ROW2*%
X337343750Y-135731250D03*
%TO.P,D32,2,A*%
%TO.N,Net-(D32-A)*%
X337343750Y-132431250D03*
%TD*%
%TO.P,D21,1,K*%
%TO.N,ROW3*%
X127000000Y-130968750D03*
%TO.P,D21,2,A*%
%TO.N,Net-(D21-A)*%
X127000000Y-127668750D03*
%TD*%
%TO.P,D22,1,K*%
%TO.N,ROW2*%
X146050000Y-130968750D03*
%TO.P,D22,2,A*%
%TO.N,Net-(D22-A)*%
X146050000Y-127668750D03*
%TD*%
%TO.P,D40,1,K*%
%TO.N,ROW4*%
X188912500Y-150018750D03*
%TO.P,D40,2,A*%
%TO.N,Net-(D40-A)*%
X188912500Y-146718750D03*
%TD*%
D29*
%TO.P,Y1,1,1*%
%TO.N,XTAL1*%
X355193750Y-149043750D03*
%TO.P,Y1,2,2*%
%TO.N,GND*%
X355193750Y-146843750D03*
%TO.P,Y1,3,3*%
%TO.N,XTAL2*%
X356893750Y-146843750D03*
%TO.P,Y1,4,4*%
%TO.N,GND*%
X356893750Y-149043750D03*
%TD*%
D19*
%TO.P,RGB10,1,VDD*%
%TO.N,+5V*%
X100012500Y-175418750D03*
%TO.P,RGB10,2,DOUT*%
%TO.N,Net-(RGB10-DOUT)*%
X100012500Y-178618750D03*
%TO.P,RGB10,3,VSS*%
%TO.N,GND*%
X94812500Y-178618750D03*
%TO.P,RGB10,4,DIN*%
%TO.N,Net-(RGB10-DIN)*%
X94812500Y-175418750D03*
%TD*%
D20*
%TO.P,D53,1,K*%
%TO.N,ROW7*%
X198437500Y-169193750D03*
%TO.P,D53,2,A*%
%TO.N,Net-(D53-A)*%
X198437500Y-165893750D03*
%TD*%
D19*
%TO.P,RGB3,1,VDD*%
%TO.N,+5V*%
X268643750Y-121443750D03*
%TO.P,RGB3,2,DOUT*%
%TO.N,Net-(RGB3-DOUT)*%
X268643750Y-118243750D03*
%TO.P,RGB3,3,VSS*%
%TO.N,GND*%
X273843750Y-118243750D03*
%TO.P,RGB3,4,DIN*%
%TO.N,Net-(RGB2-DOUT)*%
X273843750Y-121443750D03*
%TD*%
D20*
%TO.P,D34,1,K*%
%TO.N,ROW4*%
X55562500Y-154843750D03*
%TO.P,D34,2,A*%
%TO.N,Net-(D34-A)*%
X55562500Y-151543750D03*
%TD*%
%TO.P,D52,1,K*%
%TO.N,ROW6*%
X179387500Y-169193750D03*
%TO.P,D52,2,A*%
%TO.N,Net-(D52-A)*%
X179387500Y-165893750D03*
%TD*%
D28*
%TO.P,RC5,1*%
%TO.N,Net-(U1-PD1)*%
X364912500Y-168275000D03*
%TO.P,RC5,2*%
%TO.N,RESW_A*%
X366712500Y-168275000D03*
%TD*%
D30*
%TO.P,USB1,1,GND*%
%TO.N,GND*%
X346825000Y-103500000D03*
%TO.P,USB1,2,VBUS*%
%TO.N,VCC*%
X347600000Y-103500000D03*
D31*
%TO.P,USB1,3,SBU2*%
%TO.N,unconnected-(USB1-SBU2-Pad3)*%
X348300000Y-103500000D03*
%TO.P,USB1,4,CC1*%
%TO.N,Net-(USB1-CC1)*%
X348800000Y-103500000D03*
%TO.P,USB1,5,DN2*%
%TO.N,Net-(U2-IO2)*%
X349300000Y-103500000D03*
%TO.P,USB1,6,DP1*%
%TO.N,Net-(U2-IO1)*%
X349800000Y-103500000D03*
%TO.P,USB1,7,DN1*%
%TO.N,Net-(U2-IO2)*%
X350300000Y-103500000D03*
%TO.P,USB1,8,DP2*%
%TO.N,Net-(U2-IO1)*%
X350800000Y-103500000D03*
%TO.P,USB1,9,SBU1*%
%TO.N,unconnected-(USB1-SBU1-Pad9)*%
X351300000Y-103500000D03*
%TO.P,USB1,10,CC2*%
%TO.N,Net-(USB1-CC2)*%
X351800000Y-103500000D03*
D30*
%TO.P,USB1,11,VBUS*%
%TO.N,VCC*%
X352500000Y-103500000D03*
%TO.P,USB1,12,GND*%
%TO.N,GND*%
X353275000Y-103500000D03*
D32*
%TO.P,USB1,13,SHIELD*%
X345730000Y-98405000D03*
D33*
X345730000Y-102585000D03*
D32*
X354370000Y-98405000D03*
D33*
X354370000Y-102585000D03*
%TD*%
D20*
%TO.P,D15,1,K*%
%TO.N,ROW0*%
X327025000Y-111918750D03*
%TO.P,D15,2,A*%
%TO.N,Net-(D15-A)*%
X327025000Y-108618750D03*
%TD*%
D21*
%TO.P,CRGB6,1*%
%TO.N,+5V*%
X144750000Y-120750000D03*
%TO.P,CRGB6,2*%
%TO.N,GND*%
X144750000Y-119050000D03*
%TD*%
D20*
%TO.P,D44,1,K*%
%TO.N,ROW4*%
X265112500Y-150018750D03*
%TO.P,D44,2,A*%
%TO.N,Net-(D44-A)*%
X265112500Y-146718750D03*
%TD*%
%TO.P,D19,1,K*%
%TO.N,ROW3*%
X84137500Y-131031250D03*
%TO.P,D19,2,A*%
%TO.N,Net-(D19-A)*%
X84137500Y-127731250D03*
%TD*%
D21*
%TO.P,CRGB5,1*%
%TO.N,+5V*%
X187000000Y-120750000D03*
%TO.P,CRGB5,2*%
%TO.N,GND*%
X187000000Y-119050000D03*
%TD*%
D19*
%TO.P,RGB15,1,VDD*%
%TO.N,+5V*%
X314325000Y-175393750D03*
%TO.P,RGB15,2,DOUT*%
%TO.N,Net-(RGB15-DOUT)*%
X314325000Y-178593750D03*
%TO.P,RGB15,3,VSS*%
%TO.N,GND*%
X309125000Y-178593750D03*
%TO.P,RGB15,4,DIN*%
%TO.N,Net-(RGB14-DOUT)*%
X309125000Y-175393750D03*
%TD*%
D20*
%TO.P,D12,1,K*%
%TO.N,ROW1*%
X269875000Y-111981250D03*
%TO.P,D12,2,A*%
%TO.N,Net-(D12-A)*%
X269875000Y-108681250D03*
%TD*%
%TO.P,D69,1,K*%
%TO.N,ROW9*%
X365918750Y-192881250D03*
%TO.P,D69,2,A*%
%TO.N,Net-(D69-A)*%
X365918750Y-189581250D03*
%TD*%
D21*
%TO.P,CRGB10,1*%
%TO.N,+5V*%
X103250000Y-176250000D03*
%TO.P,CRGB10,2*%
%TO.N,GND*%
X103250000Y-177950000D03*
%TD*%
D20*
%TO.P,D64,1,K*%
%TO.N,ROW9*%
X203993750Y-188912500D03*
%TO.P,D64,2,A*%
%TO.N,Net-(D64-A)*%
X203993750Y-185612500D03*
%TD*%
D28*
%TO.P,RC3,1*%
%TO.N,+5V*%
X354450000Y-139750000D03*
%TO.P,RC3,2*%
%TO.N,RESET*%
X356250000Y-139750000D03*
%TD*%
%TO.P,RLED3,1*%
%TO.N,SLOCK_IND*%
X61118750Y-188912500D03*
%TO.P,RLED3,2*%
%TO.N,Net-(LED3-A)*%
X59318750Y-188912500D03*
%TD*%
D21*
%TO.P,CRGB7,1*%
%TO.N,+5V*%
X103500000Y-120750000D03*
%TO.P,CRGB7,2*%
%TO.N,GND*%
X103500000Y-119050000D03*
%TD*%
D20*
%TO.P,D68,1,K*%
%TO.N,ROW8*%
X346868750Y-192881250D03*
%TO.P,D68,2,A*%
%TO.N,Net-(D68-A)*%
X346868750Y-189581250D03*
%TD*%
%TO.P,D3,1,K*%
%TO.N,ROW0*%
X98425000Y-112043750D03*
%TO.P,D3,2,A*%
%TO.N,Net-(D3-A)*%
X98425000Y-108743750D03*
%TD*%
D19*
%TO.P,RGB11,1,VDD*%
%TO.N,+5V*%
X141287500Y-175393750D03*
%TO.P,RGB11,2,DOUT*%
%TO.N,Net-(RGB11-DOUT)*%
X141287500Y-178593750D03*
%TO.P,RGB11,3,VSS*%
%TO.N,GND*%
X136087500Y-178593750D03*
%TO.P,RGB11,4,DIN*%
%TO.N,Net-(RGB10-DOUT)*%
X136087500Y-175393750D03*
%TD*%
D20*
%TO.P,D48,1,K*%
%TO.N,ROW6*%
X92075000Y-169925000D03*
%TO.P,D48,2,A*%
%TO.N,Net-(D48-A)*%
X92075000Y-166625000D03*
%TD*%
%TO.P,D17,1,K*%
%TO.N,ROW0*%
X365918750Y-116681250D03*
%TO.P,D17,2,A*%
%TO.N,Net-(D17-A)*%
X365918750Y-113381250D03*
%TD*%
%TO.P,D25,1,K*%
%TO.N,ROW3*%
X203200000Y-130968750D03*
%TO.P,D25,2,A*%
%TO.N,Net-(D25-A)*%
X203200000Y-127668750D03*
%TD*%
%TO.P,D46,1,K*%
%TO.N,ROW4*%
X303212500Y-150018750D03*
%TO.P,D46,2,A*%
%TO.N,Net-(D46-A)*%
X303212500Y-146718750D03*
%TD*%
%TO.P,D66,1,K*%
%TO.N,ROW8*%
X300831250Y-188243750D03*
%TO.P,D66,2,A*%
%TO.N,Net-(D66-A)*%
X300831250Y-184943750D03*
%TD*%
%TO.P,D1,1,K*%
%TO.N,ROW0*%
X55562500Y-112043750D03*
%TO.P,D1,2,A*%
%TO.N,Net-(D1-A)*%
X55562500Y-108743750D03*
%TD*%
%TO.P,D2,1,K*%
%TO.N,ROW1*%
X79375000Y-112043750D03*
%TO.P,D2,2,A*%
%TO.N,Net-(D2-A)*%
X79375000Y-108743750D03*
%TD*%
D19*
%TO.P,RGB9,1,VDD*%
%TO.N,+5V*%
X57943750Y-175418750D03*
%TO.P,RGB9,2,DOUT*%
%TO.N,Net-(RGB10-DIN)*%
X57943750Y-178618750D03*
%TO.P,RGB9,3,VSS*%
%TO.N,GND*%
X52743750Y-178618750D03*
%TO.P,RGB9,4,DIN*%
%TO.N,Net-(RGB8-DOUT)*%
X52743750Y-175418750D03*
%TD*%
D20*
%TO.P,D11,1,K*%
%TO.N,ROW0*%
X250825000Y-112043750D03*
%TO.P,D11,2,A*%
%TO.N,Net-(D11-A)*%
X250825000Y-108743750D03*
%TD*%
%TO.P,D61,1,K*%
%TO.N,ROW8*%
X81756250Y-188243750D03*
%TO.P,D61,2,A*%
%TO.N,Net-(D61-A)*%
X81756250Y-184943750D03*
%TD*%
%TO.P,D33,1,K*%
%TO.N,ROW3*%
X365918750Y-135731250D03*
%TO.P,D33,2,A*%
%TO.N,Net-(D33-A)*%
X365918750Y-132431250D03*
%TD*%
%TO.P,D56,1,K*%
%TO.N,ROW6*%
X255587500Y-169068750D03*
%TO.P,D56,2,A*%
%TO.N,Net-(D56-A)*%
X255587500Y-165768750D03*
%TD*%
%TO.P,D28,1,K*%
%TO.N,ROW2*%
X260350000Y-130968750D03*
%TO.P,D28,2,A*%
%TO.N,Net-(D28-A)*%
X260350000Y-127668750D03*
%TD*%
D21*
%TO.P,CRGB3,1*%
%TO.N,+5V*%
X277018750Y-120762500D03*
%TO.P,CRGB3,2*%
%TO.N,GND*%
X277018750Y-119062500D03*
%TD*%
%TO.P,CRGB13,1*%
%TO.N,+5V*%
X234156250Y-175418750D03*
%TO.P,CRGB13,2*%
%TO.N,GND*%
X234156250Y-177118750D03*
%TD*%
D20*
%TO.P,D67,1,K*%
%TO.N,ROW9*%
X327818750Y-192881250D03*
%TO.P,D67,2,A*%
%TO.N,Net-(D67-A)*%
X327818750Y-189581250D03*
%TD*%
D21*
%TO.P,C5,1*%
%TO.N,GND*%
X341312500Y-149550000D03*
%TO.P,C5,2*%
%TO.N,+5V*%
X341312500Y-151250000D03*
%TD*%
D20*
%TO.P,D23,1,K*%
%TO.N,ROW3*%
X165100000Y-130968750D03*
%TO.P,D23,2,A*%
%TO.N,Net-(D23-A)*%
X165100000Y-127668750D03*
%TD*%
%TO.P,D16,1,K*%
%TO.N,ROW1*%
X342106250Y-116681250D03*
%TO.P,D16,2,A*%
%TO.N,Net-(D16-A)*%
X342106250Y-113381250D03*
%TD*%
%TO.P,D10,1,K*%
%TO.N,ROW1*%
X231775000Y-112043750D03*
%TO.P,D10,2,A*%
%TO.N,Net-(D10-A)*%
X231775000Y-108743750D03*
%TD*%
%TO.P,D65,1,K*%
%TO.N,ROW9*%
X274637500Y-188243750D03*
%TO.P,D65,2,A*%
%TO.N,Net-(D65-A)*%
X274637500Y-184943750D03*
%TD*%
D22*
%TO.P,RC6,1*%
%TO.N,GND*%
X345200000Y-109425000D03*
%TO.P,RC6,2*%
%TO.N,Net-(USB1-CC1)*%
X345200000Y-107625000D03*
%TD*%
D20*
%TO.P,D42,1,K*%
%TO.N,ROW4*%
X227012500Y-150018750D03*
%TO.P,D42,2,A*%
%TO.N,Net-(D42-A)*%
X227012500Y-146718750D03*
%TD*%
%TO.P,D29,1,K*%
%TO.N,ROW3*%
X279400000Y-130968750D03*
%TO.P,D29,2,A*%
%TO.N,Net-(D29-A)*%
X279400000Y-127668750D03*
%TD*%
D21*
%TO.P,CRGB12,1*%
%TO.N,+5V*%
X187250000Y-175500000D03*
%TO.P,CRGB12,2*%
%TO.N,GND*%
X187250000Y-177200000D03*
%TD*%
D20*
%TO.P,D63,1,K*%
%TO.N,ROW8*%
X131762500Y-188243750D03*
%TO.P,D63,2,A*%
%TO.N,Net-(D63-A)*%
X131762500Y-184943750D03*
%TD*%
D21*
%TO.P,CRGB1,1*%
%TO.N,+5V*%
X360362500Y-120762500D03*
%TO.P,CRGB1,2*%
%TO.N,GND*%
X360362500Y-119062500D03*
%TD*%
D28*
%TO.P,RC4,1*%
%TO.N,Net-(U1-PD2)*%
X364912500Y-173100000D03*
%TO.P,RC4,2*%
%TO.N,RESW_B*%
X366712500Y-173100000D03*
%TD*%
D20*
%TO.P,D35,1,K*%
%TO.N,ROW5*%
X86518750Y-150018750D03*
%TO.P,D35,2,A*%
%TO.N,Net-(D35-A)*%
X86518750Y-146718750D03*
%TD*%
D21*
%TO.P,CRGB8,1*%
%TO.N,+5V*%
X61500000Y-121000000D03*
%TO.P,CRGB8,2*%
%TO.N,GND*%
X61500000Y-119300000D03*
%TD*%
D34*
%TO.P,U1,1,PE6*%
%TO.N,CAPS_IND*%
X345956250Y-144237500D03*
%TO.P,U1,2,UVCC*%
%TO.N,+5V*%
X346456250Y-144237500D03*
%TO.P,U1,3,D-*%
%TO.N,D-*%
X346956250Y-144237500D03*
%TO.P,U1,4,D+*%
%TO.N,D+*%
X347456250Y-144237500D03*
%TO.P,U1,5,UGND*%
%TO.N,GND*%
X347956250Y-144237500D03*
%TO.P,U1,6,UCAP*%
%TO.N,Net-(U1-UCAP)*%
X348456250Y-144237500D03*
%TO.P,U1,7,VBUS*%
%TO.N,+5V*%
X348956250Y-144237500D03*
%TO.P,U1,8,PB0*%
%TO.N,COL7*%
X349456250Y-144237500D03*
%TO.P,U1,9,PB1*%
%TO.N,COL8*%
X349956250Y-144237500D03*
%TO.P,U1,10,PB2*%
%TO.N,SLOCK_IND*%
X350456250Y-144237500D03*
%TO.P,U1,11,PB3*%
%TO.N,RGBLED*%
X350956250Y-144237500D03*
D35*
%TO.P,U1,12,PB7*%
%TO.N,LAYER_IND*%
X351856250Y-145137500D03*
%TO.P,U1,13,~{RESET}*%
%TO.N,RESET*%
X351856250Y-145637500D03*
%TO.P,U1,14,VCC*%
%TO.N,+5V*%
X351856250Y-146137500D03*
%TO.P,U1,15,GND*%
%TO.N,GND*%
X351856250Y-146637500D03*
%TO.P,U1,16,XTAL2*%
%TO.N,XTAL2*%
X351856250Y-147137500D03*
%TO.P,U1,17,XTAL1*%
%TO.N,XTAL1*%
X351856250Y-147637500D03*
%TO.P,U1,18,PD0*%
%TO.N,ROW7*%
X351856250Y-148137500D03*
%TO.P,U1,19,PD1*%
%TO.N,Net-(U1-PD1)*%
X351856250Y-148637500D03*
%TO.P,U1,20,PD2*%
%TO.N,Net-(U1-PD2)*%
X351856250Y-149137500D03*
%TO.P,U1,21,PD3*%
%TO.N,ROW8*%
X351856250Y-149637500D03*
%TO.P,U1,22,PD5*%
%TO.N,ROW9*%
X351856250Y-150137500D03*
D34*
%TO.P,U1,23,GND*%
%TO.N,GND*%
X350956250Y-151037500D03*
%TO.P,U1,24,AVCC*%
%TO.N,+5V*%
X350456250Y-151037500D03*
%TO.P,U1,25,PD4*%
%TO.N,ROW6*%
X349956250Y-151037500D03*
%TO.P,U1,26,PD6*%
%TO.N,ROW4*%
X349456250Y-151037500D03*
%TO.P,U1,27,PD7*%
%TO.N,ROW5*%
X348956250Y-151037500D03*
%TO.P,U1,28,PB4*%
%TO.N,ROW2*%
X348456250Y-151037500D03*
%TO.P,U1,29,PB5*%
%TO.N,ROW3*%
X347956250Y-151037500D03*
%TO.P,U1,30,PB6*%
%TO.N,ROW1*%
X347456250Y-151037500D03*
%TO.P,U1,31,PC6*%
%TO.N,ROW0*%
X346956250Y-151037500D03*
%TO.P,U1,32,PC7*%
%TO.N,COL6*%
X346456250Y-151037500D03*
%TO.P,U1,33,~{HWB}/PE2*%
%TO.N,Net-(U1-~{HWB}{slash}PE2)*%
X345956250Y-151037500D03*
D35*
%TO.P,U1,34,VCC*%
%TO.N,+5V*%
X345056250Y-150137500D03*
%TO.P,U1,35,GND*%
%TO.N,GND*%
X345056250Y-149637500D03*
%TO.P,U1,36,PF7*%
%TO.N,COL5*%
X345056250Y-149137500D03*
%TO.P,U1,37,PF6*%
%TO.N,COL4*%
X345056250Y-148637500D03*
%TO.P,U1,38,PF5*%
%TO.N,COL3*%
X345056250Y-148137500D03*
%TO.P,U1,39,PF4*%
%TO.N,COL2*%
X345056250Y-147637500D03*
%TO.P,U1,40,PF1*%
%TO.N,COL1*%
X345056250Y-147137500D03*
%TO.P,U1,41,PF0*%
%TO.N,COL0*%
X345056250Y-146637500D03*
%TO.P,U1,42,AREF*%
%TO.N,unconnected-(U1-AREF-Pad42)*%
X345056250Y-146137500D03*
%TO.P,U1,43,GND*%
%TO.N,GND*%
X345056250Y-145637500D03*
%TO.P,U1,44,AVCC*%
%TO.N,+5V*%
X345056250Y-145137500D03*
D36*
%TO.P,U1,45,GND*%
%TO.N,GND*%
X348456250Y-147637500D03*
%TD*%
D20*
%TO.P,D45,1,K*%
%TO.N,ROW5*%
X284162500Y-150081250D03*
%TO.P,D45,2,A*%
%TO.N,Net-(D45-A)*%
X284162500Y-146781250D03*
%TD*%
D37*
%TO.P,F1,1*%
%TO.N,+5V*%
X347662500Y-115512500D03*
%TO.P,F1,2*%
%TO.N,VCC*%
X347662500Y-112712500D03*
%TD*%
D38*
%TO.N,GND*%
X346075000Y-138112500D03*
X363500000Y-170500000D03*
X348456250Y-138112500D03*
X328750000Y-115500000D03*
X353250000Y-155000000D03*
X345250000Y-114250000D03*
%TO.N,+5V*%
X349000000Y-121000000D03*
X349083250Y-141191144D03*
X353441144Y-141191144D03*
X355000000Y-141500000D03*
X348056644Y-117056644D03*
X346250000Y-141250000D03*
X350583250Y-152500000D03*
X351000000Y-120000000D03*
X339750000Y-121000000D03*
X343250000Y-145000000D03*
X343250000Y-150264500D03*
X355460000Y-156500000D03*
%TO.N,ROW0*%
X338525000Y-138375000D03*
X353250000Y-134250000D03*
X356750000Y-115500000D03*
X330750000Y-115500000D03*
%TO.N,ROW1*%
X337377000Y-138386712D03*
X342106250Y-129643750D03*
%TO.N,ROW3*%
X349500000Y-136500000D03*
X343750000Y-136500000D03*
%TO.N,ROW6*%
X349500000Y-162750000D03*
X347530403Y-157310806D03*
%TO.N,ROW7*%
X363851999Y-154750000D03*
X361238000Y-156250000D03*
%TO.N,VCC*%
X348456250Y-105956250D03*
X351250000Y-106000000D03*
%TO.N,COL8*%
X354000000Y-136500000D03*
%TO.N,SLOCK_IND*%
X351000000Y-142250000D03*
X62500000Y-189000000D03*
%TO.N,RESET*%
X357500000Y-143750000D03*
%TO.N,RGBLED*%
X353250000Y-135123000D03*
X353250000Y-139750000D03*
%TO.N,Net-(USB1-CC1)*%
X348763479Y-105217592D03*
X345250000Y-106500000D03*
%TO.N,Net-(USB1-CC2)*%
X351518044Y-105246239D03*
X353137500Y-106750000D03*
%TO.N,Net-(RGB1-DOUT)*%
X349000000Y-120000000D03*
X339750000Y-120000000D03*
%TO.N,LAYER_IND*%
X353056644Y-143443356D03*
X62500000Y-182500000D03*
%TO.N,CAPS_IND*%
X345250000Y-142250000D03*
X62500000Y-185750000D03*
%TO.N,COL0*%
X342433125Y-143190067D03*
%TO.N,COL1*%
X341760686Y-142756673D03*
X70000000Y-168500000D03*
%TO.N,COL2*%
X341098287Y-142308085D03*
%TO.N,COL3*%
X154825000Y-188075000D03*
X340451796Y-141836861D03*
%TO.N,COL4*%
X339800000Y-141373000D03*
%TO.N,COL5*%
X339124501Y-140873000D03*
%TO.N,COL6*%
X338500000Y-140373000D03*
%TO.N,COL7*%
X351503000Y-137997000D03*
X292250000Y-157000000D03*
X332750000Y-139550000D03*
X304750000Y-169862500D03*
%TD*%
D39*
%TO.N,GND*%
X353275000Y-103500000D02*
X353275000Y-105318750D01*
X133200000Y-119050000D02*
X135250000Y-117000000D01*
D40*
X355193750Y-146843750D02*
X355193750Y-147343750D01*
X347956250Y-140293750D02*
X347956250Y-144237500D01*
D39*
X268643750Y-178618750D02*
X270025000Y-180000000D01*
X178375000Y-177800000D02*
X179825000Y-179250000D01*
X139243750Y-118243750D02*
X141287500Y-118243750D01*
X61250000Y-177800000D02*
X93993750Y-177800000D01*
X185200000Y-179250000D02*
X187250000Y-177200000D01*
X361500000Y-146843750D02*
X359953500Y-145297250D01*
X357187500Y-118268750D02*
X359568750Y-118268750D01*
X91450000Y-119300000D02*
X93750000Y-117000000D01*
X52743750Y-178618750D02*
X51000000Y-176875000D01*
X361500000Y-149181250D02*
X361543750Y-149225000D01*
X45218750Y-180968750D02*
X46355000Y-180968750D01*
X353275000Y-103500000D02*
X353455000Y-103500000D01*
X61500000Y-119300000D02*
X91450000Y-119300000D01*
X277018750Y-177800000D02*
X308331250Y-177800000D01*
X358750000Y-148000000D02*
X360343750Y-148000000D01*
X98243750Y-118243750D02*
X100012500Y-118243750D01*
X50000000Y-172750000D02*
X44500000Y-172750000D01*
X44500000Y-172750000D02*
X40750000Y-169000000D01*
D40*
X351856250Y-146637500D02*
X349456250Y-146637500D01*
D39*
X353250000Y-153300000D02*
X353200000Y-153250000D01*
X344250000Y-108500000D02*
X344275000Y-108500000D01*
D40*
X345056250Y-145637500D02*
X346456250Y-145637500D01*
D39*
X315300000Y-180000000D02*
X317500000Y-177800000D01*
X187000000Y-119050000D02*
X222700000Y-119050000D01*
X308000000Y-117000000D02*
X305937500Y-119062500D01*
X359568750Y-118268750D02*
X360362500Y-119062500D01*
X346825000Y-103500000D02*
X346645000Y-103500000D01*
X361321500Y-172821500D02*
X355460000Y-166960000D01*
D40*
X355193750Y-147343750D02*
X356893750Y-149043750D01*
D39*
X276200000Y-118243750D02*
X277018750Y-119062500D01*
X328750000Y-115500000D02*
X325187500Y-119062500D01*
X361321500Y-176841000D02*
X361321500Y-172821500D01*
X51000000Y-176875000D02*
X51000000Y-173750000D01*
X351250000Y-177800000D02*
X351987500Y-178537500D01*
X180500000Y-117000000D02*
X181743750Y-118243750D01*
X351987500Y-178537500D02*
X353450000Y-180000000D01*
X353275000Y-105318750D02*
X350756250Y-107837500D01*
X40750000Y-124000000D02*
X48000000Y-116750000D01*
X44500000Y-186500000D02*
X45312500Y-187312500D01*
X46355000Y-173645000D02*
X46355000Y-174625000D01*
X309125000Y-178593750D02*
X310531250Y-180000000D01*
X345281250Y-138906250D02*
X346075000Y-138112500D01*
X96193750Y-180000000D02*
X101200000Y-180000000D01*
X56450000Y-116750000D02*
X57950000Y-118250000D01*
X274818750Y-180000000D02*
X277018750Y-177800000D01*
X345250000Y-114250000D02*
X345200000Y-114200000D01*
X177925000Y-178250000D02*
X178375000Y-177800000D01*
X187250000Y-177200000D02*
X222450000Y-177200000D01*
X270025000Y-180000000D02*
X274818750Y-180000000D01*
D40*
X345056250Y-149637500D02*
X346456250Y-149637500D01*
D39*
X358500000Y-148750000D02*
X358206250Y-149043750D01*
D40*
X351650000Y-152400000D02*
X352662500Y-152400000D01*
D39*
X363000000Y-145750000D02*
X361906250Y-146843750D01*
X364500000Y-171500000D02*
X363500000Y-170500000D01*
X364800000Y-169900000D02*
X365633500Y-170733500D01*
X222450000Y-177200000D02*
X223050000Y-177800000D01*
X45312500Y-187312500D02*
X46355000Y-187312500D01*
D40*
X352952586Y-146637500D02*
X353264118Y-146325967D01*
D39*
X358750000Y-148000000D02*
X358500000Y-148250000D01*
D40*
X352662500Y-152400000D02*
X353200000Y-152937500D01*
D39*
X356750000Y-142500000D02*
X356750000Y-143547250D01*
X364800000Y-171500000D02*
X364500000Y-171500000D01*
X45218750Y-180968750D02*
X44500000Y-181687500D01*
D40*
X351856250Y-146637500D02*
X352952586Y-146637500D01*
D39*
X310531250Y-180000000D02*
X315300000Y-180000000D01*
X46355000Y-174625000D02*
X45375000Y-174625000D01*
X346645000Y-103500000D02*
X345730000Y-102585000D01*
X224750000Y-117000000D02*
X229737500Y-117000000D01*
X141287500Y-118243750D02*
X143943750Y-118243750D01*
X234156250Y-118950000D02*
X236106250Y-117000000D01*
D40*
X340609500Y-150253000D02*
X340609500Y-152159500D01*
X349456250Y-146637500D02*
X348456250Y-147637500D01*
D39*
X135443750Y-177950000D02*
X136087500Y-178593750D01*
X52743750Y-178618750D02*
X54125000Y-180000000D01*
X371475000Y-167356250D02*
X371475000Y-166250000D01*
X365050000Y-138906250D02*
X363000000Y-140956250D01*
X355268750Y-118268750D02*
X353137500Y-116137500D01*
X353450000Y-180000000D02*
X358162500Y-180000000D01*
X305937500Y-119062500D02*
X277018750Y-119062500D01*
X227231250Y-179250000D02*
X232025000Y-179250000D01*
X44500000Y-180250000D02*
X45218750Y-180968750D01*
X51000000Y-173750000D02*
X50000000Y-172750000D01*
X308331250Y-177800000D02*
X309125000Y-178593750D01*
X44500000Y-175500000D02*
X44500000Y-180250000D01*
X273843750Y-118243750D02*
X276200000Y-118243750D01*
X135250000Y-117000000D02*
X138000000Y-117000000D01*
X143000000Y-180000000D02*
X144750000Y-178250000D01*
X101200000Y-180000000D02*
X103250000Y-177950000D01*
X229737500Y-117000000D02*
X230981250Y-118243750D01*
D40*
X353200000Y-152937500D02*
X353200000Y-153250000D01*
D39*
X360362500Y-177800000D02*
X361321500Y-176841000D01*
X57950000Y-118250000D02*
X58950000Y-119250000D01*
X232025000Y-179250000D02*
X234156250Y-177118750D01*
X136087500Y-178593750D02*
X137493750Y-180000000D01*
X345200000Y-114200000D02*
X345200000Y-109425000D01*
X359953500Y-145297250D02*
X355000000Y-145297250D01*
X355460000Y-166960000D02*
X355460000Y-165540000D01*
X325187500Y-119062500D02*
X317500000Y-119062500D01*
X183356250Y-118243750D02*
X186193750Y-118243750D01*
X45375000Y-174625000D02*
X44500000Y-175500000D01*
D40*
X350956250Y-150137500D02*
X348456250Y-147637500D01*
X341312500Y-149550000D02*
X341400000Y-149637500D01*
D39*
X316681250Y-118243750D02*
X317500000Y-119062500D01*
D40*
X350956250Y-151706250D02*
X351650000Y-152400000D01*
D39*
X365633500Y-170733500D02*
X368097750Y-170733500D01*
D40*
X340609500Y-152159500D02*
X341200000Y-152750000D01*
D39*
X353250000Y-155000000D02*
X353250000Y-153300000D01*
X365633500Y-170733500D02*
X365566500Y-170733500D01*
X350756250Y-107837500D02*
X352168750Y-109250000D01*
X103250000Y-177950000D02*
X135443750Y-177950000D01*
X354382638Y-145297250D02*
X353214944Y-146464944D01*
X344250000Y-106075000D02*
X344250000Y-108500000D01*
X100012500Y-118243750D02*
X102693750Y-118243750D01*
X363000000Y-140956250D02*
X363000000Y-145750000D01*
X94812500Y-178618750D02*
X96193750Y-180000000D01*
X236106250Y-117000000D02*
X272600000Y-117000000D01*
D40*
X348800000Y-138906250D02*
X348800000Y-139450000D01*
D39*
X93750000Y-117000000D02*
X97000000Y-117000000D01*
X143943750Y-118243750D02*
X144750000Y-119050000D01*
X93993750Y-177800000D02*
X94812500Y-178618750D01*
X175200000Y-119050000D02*
X177250000Y-117000000D01*
D40*
X347956250Y-147137500D02*
X348456250Y-147637500D01*
D39*
X61450000Y-119250000D02*
X61500000Y-119300000D01*
X102693750Y-118243750D02*
X103500000Y-119050000D01*
X361906250Y-146843750D02*
X361500000Y-146843750D01*
X58950000Y-119250000D02*
X61450000Y-119250000D01*
X363500000Y-170500000D02*
X364100000Y-169900000D01*
X314325000Y-118243750D02*
X316681250Y-118243750D01*
X233450000Y-118243750D02*
X234156250Y-118950000D01*
X234156250Y-177118750D02*
X267143750Y-177118750D01*
X364100000Y-169900000D02*
X364800000Y-169900000D01*
X137493750Y-180000000D02*
X143000000Y-180000000D01*
D40*
X347956250Y-144237500D02*
X347956250Y-147137500D01*
D39*
X358162500Y-180000000D02*
X360362500Y-177800000D01*
X360750000Y-148000000D02*
X361543750Y-148793750D01*
X181743750Y-118243750D02*
X183356250Y-118243750D01*
X225781250Y-177800000D02*
X227231250Y-179250000D01*
X222700000Y-119050000D02*
X224750000Y-117000000D01*
X365566500Y-170733500D02*
X364800000Y-171500000D01*
X352962500Y-109250000D02*
X353137500Y-109425000D01*
D40*
X341400000Y-149637500D02*
X345056250Y-149637500D01*
D39*
X267143750Y-177118750D02*
X268643750Y-178618750D01*
X348800000Y-138456250D02*
X348456250Y-138112500D01*
X47250000Y-172750000D02*
X46355000Y-173645000D01*
X355000000Y-145297250D02*
X354382638Y-145297250D01*
X50000000Y-172750000D02*
X47250000Y-172750000D01*
X361543750Y-148793750D02*
X361543750Y-149225000D01*
X360343750Y-148000000D02*
X361500000Y-146843750D01*
D40*
X346456250Y-145637500D02*
X348456250Y-147637500D01*
X341312500Y-149550000D02*
X340609500Y-150253000D01*
D39*
X144750000Y-119050000D02*
X175200000Y-119050000D01*
X358500000Y-148250000D02*
X358500000Y-148750000D01*
X356750000Y-143547250D02*
X355000000Y-145297250D01*
X350950000Y-107837500D02*
X350756250Y-107837500D01*
D40*
X350956250Y-151037500D02*
X350956250Y-150137500D01*
D39*
X353455000Y-103500000D02*
X354370000Y-102585000D01*
X179825000Y-179250000D02*
X185200000Y-179250000D01*
X368097750Y-170733500D02*
X371475000Y-167356250D01*
X348800000Y-138906250D02*
X348800000Y-138456250D01*
X58918750Y-180000000D02*
X61118750Y-177800000D01*
D40*
X350956250Y-151037500D02*
X350956250Y-151706250D01*
X346456250Y-149637500D02*
X348456250Y-147637500D01*
D39*
X177250000Y-117000000D02*
X180500000Y-117000000D01*
X48000000Y-116750000D02*
X56450000Y-116750000D01*
D40*
X348800000Y-139450000D02*
X347956250Y-140293750D01*
D39*
X346825000Y-103500000D02*
X344250000Y-106075000D01*
X353137500Y-116137500D02*
X353137500Y-109425000D01*
X358206250Y-149043750D02*
X356893750Y-149043750D01*
X144750000Y-178250000D02*
X177925000Y-178250000D01*
X223050000Y-177800000D02*
X225781250Y-177800000D01*
X44500000Y-181687500D02*
X44500000Y-186500000D01*
X272600000Y-117000000D02*
X273843750Y-118243750D01*
X344275000Y-108500000D02*
X345200000Y-109425000D01*
X352168750Y-109250000D02*
X352962500Y-109250000D01*
X186193750Y-118243750D02*
X187000000Y-119050000D01*
X97000000Y-117000000D02*
X98243750Y-118243750D01*
X230981250Y-118243750D02*
X233450000Y-118243750D01*
X103500000Y-119050000D02*
X133200000Y-119050000D01*
X40750000Y-169000000D02*
X40750000Y-124000000D01*
X313081250Y-117000000D02*
X308000000Y-117000000D01*
X317500000Y-177800000D02*
X351250000Y-177800000D01*
X314325000Y-118243750D02*
X313081250Y-117000000D01*
X357187500Y-118268750D02*
X355268750Y-118268750D01*
X54125000Y-180000000D02*
X58918750Y-180000000D01*
X360343750Y-148000000D02*
X360750000Y-148000000D01*
X138000000Y-117000000D02*
X139243750Y-118243750D01*
D40*
%TO.N,Net-(U1-UCAP)*%
X348456250Y-140643750D02*
X348456250Y-144237500D01*
X350193750Y-138906250D02*
X348456250Y-140643750D01*
X350500000Y-138906250D02*
X350193750Y-138906250D01*
%TO.N,XTAL1*%
X356221750Y-150071750D02*
X358997000Y-150071750D01*
X355193750Y-149043750D02*
X356221750Y-150071750D01*
X354993750Y-149043750D02*
X355193750Y-149043750D01*
X358997000Y-150071750D02*
X359843750Y-149225000D01*
X351856250Y-147637500D02*
X353587500Y-147637500D01*
X353587500Y-147637500D02*
X354993750Y-149043750D01*
%TO.N,XTAL2*%
X356893750Y-146843750D02*
X359956250Y-146843750D01*
X354250000Y-146571734D02*
X354250000Y-146163158D01*
X353684234Y-147137500D02*
X354250000Y-146571734D01*
X351856250Y-147137500D02*
X353684234Y-147137500D01*
X354597408Y-145815750D02*
X355865750Y-145815750D01*
X354250000Y-146163158D02*
X354597408Y-145815750D01*
X355865750Y-145815750D02*
X356893750Y-146843750D01*
D39*
%TO.N,+5V*%
X317737500Y-121000000D02*
X339750000Y-121000000D01*
X225781250Y-121443750D02*
X227087500Y-122750000D01*
X357187500Y-175337500D02*
X359600000Y-175337500D01*
X141287500Y-175393750D02*
X143593750Y-175393750D01*
X222250000Y-175500000D02*
X224250000Y-173500000D01*
X355460000Y-156500000D02*
X354710000Y-155750000D01*
X52750000Y-121450000D02*
X52675000Y-121450000D01*
X347662500Y-115512500D02*
X347662500Y-116662500D01*
X144750000Y-176550000D02*
X173700000Y-176550000D01*
X136087500Y-121443750D02*
X136087500Y-121337500D01*
X317500000Y-176100000D02*
X349042000Y-176100000D01*
X94812500Y-121443750D02*
X96118750Y-122750000D01*
X182100000Y-174600000D02*
X183575000Y-174600000D01*
X144750000Y-120750000D02*
X177462500Y-120750000D01*
X314325000Y-175393750D02*
X316793750Y-175393750D01*
X355050000Y-141550000D02*
X355000000Y-141500000D01*
X177462500Y-120750000D02*
X178156250Y-121443750D01*
X228250000Y-173500000D02*
X229350000Y-174600000D01*
X317500000Y-120762500D02*
X317737500Y-121000000D01*
X267262500Y-120650000D02*
X234156250Y-120650000D01*
X133000000Y-176250000D02*
X135000000Y-174250000D01*
D40*
X350456250Y-151037500D02*
X350456250Y-152373000D01*
D39*
X354500000Y-174000000D02*
X355837500Y-175337500D01*
D40*
X61118750Y-175968750D02*
X61118750Y-176100000D01*
D39*
X349042000Y-176100000D02*
X351142000Y-174000000D01*
X352500000Y-155750000D02*
X351500000Y-154750000D01*
X276337500Y-175418750D02*
X277018750Y-176100000D01*
X101500000Y-122750000D02*
X103500000Y-120750000D01*
X135393750Y-120750000D02*
X136087500Y-121443750D01*
X273843750Y-175418750D02*
X276337500Y-175418750D01*
X351142000Y-174000000D02*
X354500000Y-174000000D01*
X187250000Y-175500000D02*
X222250000Y-175500000D01*
X183575000Y-174600000D02*
X186350000Y-174600000D01*
X352879000Y-120577250D02*
X351987500Y-121468750D01*
X351000000Y-120000000D02*
X351987500Y-120987500D01*
X268056250Y-121443750D02*
X267262500Y-120650000D01*
X308250000Y-174000000D02*
X311500000Y-174000000D01*
X355050000Y-142500000D02*
X355050000Y-141550000D01*
X230981250Y-174600000D02*
X233337500Y-174600000D01*
X222000000Y-121443750D02*
X225781250Y-121443750D01*
X141643750Y-175393750D02*
X141731250Y-175306250D01*
X103500000Y-120750000D02*
X135393750Y-120750000D01*
X355460000Y-160460000D02*
X354218500Y-161701500D01*
X50750000Y-143886152D02*
X47750000Y-146886152D01*
D40*
X345281250Y-140606250D02*
X345723962Y-140606250D01*
D39*
X52675000Y-121450000D02*
X48000000Y-126125000D01*
X61250000Y-176100000D02*
X91650000Y-176100000D01*
D40*
X350456250Y-152373000D02*
X351333250Y-153250000D01*
D39*
X50750000Y-168225000D02*
X57943750Y-175418750D01*
X135000000Y-174250000D02*
X140143750Y-174250000D01*
X360177250Y-120577250D02*
X352879000Y-120577250D01*
X355000000Y-141500000D02*
X354905712Y-141500000D01*
X234156250Y-175418750D02*
X266081250Y-175418750D01*
X309125000Y-121625000D02*
X310250000Y-122750000D01*
D40*
X342200000Y-151250000D02*
X343312500Y-150137500D01*
D39*
X309125000Y-121443750D02*
X309125000Y-121625000D01*
X224250000Y-173500000D02*
X228250000Y-173500000D01*
X52750000Y-121450000D02*
X53800000Y-122500000D01*
X48000000Y-126125000D02*
X48000000Y-131000000D01*
D40*
X343312500Y-150137500D02*
X345056250Y-150137500D01*
D39*
X47750000Y-149829849D02*
X50750000Y-152829849D01*
X137393750Y-122750000D02*
X142750000Y-122750000D01*
X102418750Y-175418750D02*
X103250000Y-176250000D01*
X141287500Y-175393750D02*
X141643750Y-175393750D01*
X178156250Y-121443750D02*
X179462500Y-122750000D01*
D40*
X351856250Y-146137500D02*
X352809118Y-146137500D01*
D39*
X268643750Y-121443750D02*
X268056250Y-121443750D01*
X355050000Y-142500000D02*
X355050000Y-143806816D01*
X93500000Y-174250000D02*
X98843750Y-174250000D01*
D40*
X345723962Y-140606250D02*
X346456250Y-141338538D01*
D39*
X316250000Y-122750000D02*
X317500000Y-121500000D01*
X277018750Y-176100000D02*
X306150000Y-176100000D01*
X308443750Y-120762500D02*
X309125000Y-121443750D01*
X186350000Y-174600000D02*
X187250000Y-175500000D01*
D40*
X343387500Y-145137500D02*
X343250000Y-145000000D01*
D39*
X317500000Y-121500000D02*
X317500000Y-120762500D01*
X62250000Y-121000000D02*
X62693750Y-121443750D01*
X179462500Y-122750000D02*
X185000000Y-122750000D01*
X227087500Y-122750000D02*
X232056250Y-122750000D01*
X355837500Y-175337500D02*
X357187500Y-175337500D01*
X135781250Y-121750000D02*
X136087500Y-121443750D01*
X354710000Y-155750000D02*
X352500000Y-155750000D01*
X50750000Y-152829849D02*
X50750000Y-168225000D01*
X143593750Y-175393750D02*
X144750000Y-176550000D01*
D40*
X346456250Y-141338538D02*
X346456250Y-144237500D01*
D39*
X312893750Y-175393750D02*
X314325000Y-175393750D01*
X354450000Y-139750000D02*
X354450000Y-140182288D01*
X268643750Y-121443750D02*
X269950000Y-122750000D01*
X91650000Y-176100000D02*
X93500000Y-174250000D01*
D40*
X57943750Y-175418750D02*
X60568750Y-175418750D01*
D39*
X316793750Y-175393750D02*
X317500000Y-176100000D01*
X354450000Y-140182288D02*
X353441144Y-141191144D01*
X62693750Y-121443750D02*
X94812500Y-121443750D01*
X173700000Y-176550000D02*
X176750000Y-173500000D01*
X359600000Y-175337500D02*
X360362500Y-176100000D01*
X351518750Y-121000000D02*
X351987500Y-121468750D01*
X310250000Y-122750000D02*
X316250000Y-122750000D01*
X61500000Y-121000000D02*
X62250000Y-121000000D01*
X103250000Y-176250000D02*
X133000000Y-176250000D01*
X275031250Y-122750000D02*
X277018750Y-120762500D01*
X349000000Y-121000000D02*
X351518750Y-121000000D01*
X232056250Y-122750000D02*
X234156250Y-120650000D01*
X277018750Y-120762500D02*
X308443750Y-120762500D01*
X140143750Y-174250000D02*
X141287500Y-175393750D01*
D40*
X341312500Y-151250000D02*
X342200000Y-151250000D01*
D39*
X272418750Y-175418750D02*
X273843750Y-175418750D01*
X360362500Y-120762500D02*
X360177250Y-120577250D01*
X50750000Y-133750000D02*
X50750000Y-143886152D01*
D40*
X60568750Y-175418750D02*
X61118750Y-175968750D01*
D39*
X267250000Y-174250000D02*
X271250000Y-174250000D01*
X351987500Y-120987500D02*
X351987500Y-121468750D01*
X271250000Y-174250000D02*
X272418750Y-175418750D01*
D40*
X352809118Y-146137500D02*
X353473309Y-145473309D01*
D39*
X269950000Y-122750000D02*
X275031250Y-122750000D01*
X185000000Y-122750000D02*
X187000000Y-120750000D01*
X266081250Y-175418750D02*
X267250000Y-174250000D01*
X229350000Y-174600000D02*
X230981250Y-174600000D01*
X354218500Y-166968500D02*
X360362500Y-173112500D01*
X142750000Y-122750000D02*
X144750000Y-120750000D01*
D40*
X345056250Y-145137500D02*
X343387500Y-145137500D01*
X351333250Y-153250000D02*
X351500000Y-153250000D01*
X348956250Y-144237500D02*
X348956250Y-141318144D01*
D39*
X96118750Y-122750000D02*
X101500000Y-122750000D01*
X100012500Y-175418750D02*
X102418750Y-175418750D01*
X306150000Y-176100000D02*
X308250000Y-174000000D01*
X351500000Y-154750000D02*
X351500000Y-153250000D01*
X136087500Y-121443750D02*
X137393750Y-122750000D01*
X98843750Y-174250000D02*
X100012500Y-175418750D01*
X360362500Y-173112500D02*
X360362500Y-176100000D01*
X48000000Y-131000000D02*
X50750000Y-133750000D01*
X176750000Y-173500000D02*
X181000000Y-173500000D01*
X347662500Y-116662500D02*
X348056644Y-117056644D01*
X60000000Y-122500000D02*
X61500000Y-121000000D01*
X181000000Y-173500000D02*
X182100000Y-174600000D01*
X221306250Y-120750000D02*
X222000000Y-121443750D01*
X233337500Y-174600000D02*
X234156250Y-175418750D01*
X187000000Y-120750000D02*
X221306250Y-120750000D01*
D40*
X348956250Y-141318144D02*
X349083250Y-141191144D01*
D39*
X355050000Y-143806816D02*
X353178408Y-145678408D01*
X53800000Y-122500000D02*
X60000000Y-122500000D01*
X354218500Y-161701500D02*
X354218500Y-166968500D01*
X47750000Y-146886152D02*
X47750000Y-149829849D01*
X311500000Y-174000000D02*
X312893750Y-175393750D01*
D40*
%TO.N,ROW0*%
X292693750Y-115750000D02*
X323193750Y-115750000D01*
X247118750Y-115750000D02*
X250825000Y-112043750D01*
X346956250Y-153293750D02*
X346956250Y-151037500D01*
X101881250Y-115500000D02*
X133068750Y-115500000D01*
X323193750Y-115750000D02*
X327025000Y-111918750D01*
X352930000Y-129678112D02*
X365918750Y-116689362D01*
X136525000Y-112043750D02*
X139981250Y-115500000D01*
X363931250Y-116681250D02*
X365918750Y-116681250D01*
X55562500Y-112043750D02*
X58768750Y-115250000D01*
X250825000Y-112043750D02*
X254531250Y-115750000D01*
X98425000Y-112043750D02*
X101881250Y-115500000D01*
X95218750Y-115250000D02*
X98425000Y-112043750D01*
X345865000Y-154385000D02*
X346956250Y-153293750D01*
X337705000Y-139195000D02*
X337705000Y-153024596D01*
X330750000Y-115500000D02*
X327168750Y-111918750D01*
X133068750Y-115500000D02*
X136525000Y-112043750D01*
X339065404Y-154385000D02*
X345865000Y-154385000D01*
X212725000Y-112043750D02*
X216431250Y-115750000D01*
X254531250Y-115750000D02*
X285156250Y-115750000D01*
X362750000Y-115500000D02*
X363931250Y-116681250D01*
X171168750Y-115500000D02*
X174625000Y-112043750D01*
X288925000Y-111981250D02*
X292693750Y-115750000D01*
X174625000Y-112043750D02*
X178331250Y-115750000D01*
X209018750Y-115750000D02*
X212725000Y-112043750D01*
X285156250Y-115750000D02*
X288925000Y-111981250D01*
X216431250Y-115750000D02*
X247118750Y-115750000D01*
D39*
X327168750Y-111918750D02*
X327025000Y-111918750D01*
D40*
X139981250Y-115500000D02*
X171168750Y-115500000D01*
X337705000Y-153024596D02*
X339065404Y-154385000D01*
X353250000Y-134250000D02*
X352930000Y-133930000D01*
X58768750Y-115250000D02*
X95218750Y-115250000D01*
X352930000Y-133930000D02*
X352930000Y-129678112D01*
X365918750Y-116689362D02*
X365918750Y-116681250D01*
X178331250Y-115750000D02*
X209018750Y-115750000D01*
X338525000Y-138375000D02*
X337705000Y-139195000D01*
X356750000Y-115500000D02*
X362750000Y-115500000D01*
%TO.N,Net-(D1-A)*%
X55562500Y-108062500D02*
X53545000Y-106045000D01*
X53545000Y-106045000D02*
X50165000Y-106045000D01*
X55562500Y-108743750D02*
X55562500Y-108062500D01*
%TO.N,ROW1*%
X100500000Y-110500000D02*
X104750000Y-114750000D01*
X191250000Y-114750000D02*
X193675000Y-112325000D01*
X138500000Y-110500000D02*
X142750000Y-114750000D01*
X214750000Y-110500000D02*
X219000000Y-114750000D01*
X257000000Y-114750000D02*
X267106250Y-114750000D01*
X142750000Y-114750000D02*
X152868750Y-114750000D01*
X269875000Y-111981250D02*
X272643750Y-114750000D01*
X132430456Y-114750000D02*
X136680456Y-110500000D01*
X346160000Y-154840000D02*
X347456250Y-153543750D01*
X284767956Y-114750000D02*
X289017956Y-110500000D01*
X337377000Y-138386712D02*
X337250000Y-138513712D01*
X307975000Y-111981250D02*
X310743750Y-114750000D01*
X94000000Y-114500000D02*
X98000000Y-110500000D01*
X193675000Y-112043750D02*
X196381250Y-114750000D01*
X333500000Y-114750000D02*
X335250000Y-114750000D01*
X114768750Y-114750000D02*
X117475000Y-112043750D01*
X347456250Y-153543750D02*
X347456250Y-151037500D01*
X327000000Y-110250000D02*
X329000000Y-110250000D01*
X152868750Y-114750000D02*
X155575000Y-112043750D01*
X295250000Y-114750000D02*
X305206250Y-114750000D01*
X120181250Y-114750000D02*
X132430456Y-114750000D01*
X329000000Y-110250000D02*
X333500000Y-114750000D01*
X337250000Y-153213064D02*
X338876936Y-154840000D01*
X212880456Y-110500000D02*
X214750000Y-110500000D01*
X310743750Y-114750000D02*
X322500000Y-114750000D01*
X234481250Y-114750000D02*
X246730456Y-114750000D01*
X246730456Y-114750000D02*
X250980456Y-110500000D01*
X79375000Y-112043750D02*
X81831250Y-114500000D01*
X291000000Y-110500000D02*
X295250000Y-114750000D01*
X267106250Y-114750000D02*
X269875000Y-111981250D01*
X272643750Y-114750000D02*
X284767956Y-114750000D01*
X176750000Y-110500000D02*
X181000000Y-114750000D01*
X337250000Y-138513712D02*
X337250000Y-153213064D01*
X337181250Y-116681250D02*
X342106250Y-116681250D01*
X104750000Y-114750000D02*
X114768750Y-114750000D01*
X252750000Y-110500000D02*
X257000000Y-114750000D01*
X305206250Y-114750000D02*
X307975000Y-111981250D01*
X170530456Y-114750000D02*
X174780456Y-110500000D01*
X335250000Y-114750000D02*
X337181250Y-116681250D01*
X342106250Y-129643750D02*
X342106250Y-116681250D01*
X98000000Y-110500000D02*
X100500000Y-110500000D01*
X155575000Y-112043750D02*
X158281250Y-114750000D01*
X158281250Y-114750000D02*
X170530456Y-114750000D01*
X193675000Y-112325000D02*
X193675000Y-112043750D01*
X136680456Y-110500000D02*
X138500000Y-110500000D01*
X117475000Y-112043750D02*
X120181250Y-114750000D01*
X81831250Y-114500000D02*
X94000000Y-114500000D01*
X196381250Y-114750000D02*
X208630456Y-114750000D01*
X174780456Y-110500000D02*
X176750000Y-110500000D01*
X231775000Y-112043750D02*
X234481250Y-114750000D01*
X289017956Y-110500000D02*
X291000000Y-110500000D01*
X181000000Y-114750000D02*
X191250000Y-114750000D01*
X250980456Y-110500000D02*
X252750000Y-110500000D01*
X219000000Y-114750000D02*
X229068750Y-114750000D01*
X208630456Y-114750000D02*
X212880456Y-110500000D01*
X338876936Y-154840000D02*
X346160000Y-154840000D01*
X322500000Y-114750000D02*
X327000000Y-110250000D01*
X229068750Y-114750000D02*
X231775000Y-112043750D01*
%TO.N,Net-(D2-A)*%
X79375000Y-108743750D02*
X79375000Y-107875000D01*
X77545000Y-106045000D02*
X73977500Y-106045000D01*
X79375000Y-107875000D02*
X77545000Y-106045000D01*
%TO.N,Net-(D3-A)*%
X98425000Y-107925000D02*
X96545000Y-106045000D01*
X98425000Y-108743750D02*
X98425000Y-107925000D01*
X96545000Y-106045000D02*
X93027500Y-106045000D01*
%TO.N,Net-(D4-A)*%
X117475000Y-108743750D02*
X117475000Y-107975000D01*
X117475000Y-107975000D02*
X115545000Y-106045000D01*
X115545000Y-106045000D02*
X112077500Y-106045000D01*
%TO.N,Net-(D5-A)*%
X134545000Y-106045000D02*
X131127500Y-106045000D01*
X136525000Y-108743750D02*
X136525000Y-108025000D01*
X136525000Y-108025000D02*
X134545000Y-106045000D01*
%TO.N,Net-(D6-A)*%
X153670000Y-106045000D02*
X150177500Y-106045000D01*
X155575000Y-107950000D02*
X153670000Y-106045000D01*
X155575000Y-108743750D02*
X155575000Y-107950000D01*
%TO.N,Net-(D7-A)*%
X174625000Y-108000000D02*
X172670000Y-106045000D01*
X174625000Y-108743750D02*
X174625000Y-108000000D01*
X172670000Y-106045000D02*
X169227500Y-106045000D01*
%TO.N,Net-(D8-A)*%
X193675000Y-108743750D02*
X193675000Y-107925000D01*
X193675000Y-107925000D02*
X191795000Y-106045000D01*
X191795000Y-106045000D02*
X188277500Y-106045000D01*
%TO.N,Net-(D9-A)*%
X210795000Y-106045000D02*
X207327500Y-106045000D01*
X212725000Y-108743750D02*
X212725000Y-107975000D01*
X212725000Y-107975000D02*
X210795000Y-106045000D01*
%TO.N,Net-(D10-A)*%
X229795000Y-106045000D02*
X226377500Y-106045000D01*
X231775000Y-108025000D02*
X229795000Y-106045000D01*
X231775000Y-108743750D02*
X231775000Y-108025000D01*
%TO.N,Net-(D11-A)*%
X248795000Y-106045000D02*
X245427500Y-106045000D01*
X250825000Y-108075000D02*
X248795000Y-106045000D01*
X250825000Y-108743750D02*
X250825000Y-108075000D01*
%TO.N,Net-(D12-A)*%
X269875000Y-107875000D02*
X268045000Y-106045000D01*
X268045000Y-106045000D02*
X264477500Y-106045000D01*
X269875000Y-108681250D02*
X269875000Y-107875000D01*
%TO.N,Net-(D13-A)*%
X288925000Y-108681250D02*
X288925000Y-107925000D01*
X288925000Y-107925000D02*
X287045000Y-106045000D01*
X287045000Y-106045000D02*
X283527500Y-106045000D01*
%TO.N,Net-(D14-A)*%
X307975000Y-108681250D02*
X307975000Y-107975000D01*
X307975000Y-107975000D02*
X306045000Y-106045000D01*
X306045000Y-106045000D02*
X302577500Y-106045000D01*
%TO.N,Net-(D15-A)*%
X327025000Y-107775000D02*
X325295000Y-106045000D01*
X327025000Y-108618750D02*
X327025000Y-107775000D01*
X325295000Y-106045000D02*
X321627500Y-106045000D01*
%TO.N,Net-(D16-A)*%
X341250000Y-112525000D02*
X341250000Y-106617500D01*
X341250000Y-106617500D02*
X340677500Y-106045000D01*
X342106250Y-113381250D02*
X341250000Y-112525000D01*
%TO.N,Net-(D17-A)*%
X365250000Y-112712500D02*
X365250000Y-106805000D01*
X365250000Y-106805000D02*
X364490000Y-106045000D01*
X365918750Y-113381250D02*
X365250000Y-112712500D01*
%TO.N,ROW2*%
X298450000Y-131031250D02*
X303150000Y-135731250D01*
X222250000Y-130968750D02*
X227031250Y-135750000D01*
X348456250Y-151037500D02*
X348456250Y-154043750D01*
X112731250Y-135750000D02*
X141268750Y-135750000D01*
X265131250Y-135750000D02*
X293731250Y-135750000D01*
X184150000Y-130968750D02*
X188931250Y-135750000D01*
X293731250Y-135750000D02*
X298450000Y-131031250D01*
X217468750Y-135750000D02*
X222250000Y-130968750D01*
X336250000Y-153500000D02*
X336250000Y-136825000D01*
X107950000Y-130968750D02*
X112731250Y-135750000D01*
X348456250Y-154043750D02*
X346750000Y-155750000D01*
X179368750Y-135750000D02*
X184150000Y-130968750D01*
X227031250Y-135750000D02*
X255568750Y-135750000D01*
X146050000Y-130968750D02*
X150831250Y-135750000D01*
X150831250Y-135750000D02*
X179368750Y-135750000D01*
X338500000Y-155750000D02*
X336250000Y-153500000D01*
X103062500Y-135856250D02*
X107950000Y-130968750D01*
X255568750Y-135750000D02*
X260350000Y-130968750D01*
X346750000Y-155750000D02*
X338500000Y-155750000D01*
X260350000Y-130968750D02*
X265131250Y-135750000D01*
X303150000Y-135731250D02*
X337343750Y-135731250D01*
X188931250Y-135750000D02*
X217468750Y-135750000D01*
X55562500Y-135856250D02*
X103062500Y-135856250D01*
X336250000Y-136825000D02*
X337343750Y-135731250D01*
X141268750Y-135750000D02*
X146050000Y-130968750D01*
%TO.N,Net-(D18-A)*%
X55562500Y-132556250D02*
X55562500Y-131812500D01*
X53607500Y-129857500D02*
X50165000Y-129857500D01*
X55562500Y-131812500D02*
X53607500Y-129857500D01*
%TO.N,ROW3*%
X260430456Y-129500000D02*
X262250000Y-129500000D01*
X349500000Y-136500000D02*
X350250000Y-135750000D01*
X317500000Y-130968750D02*
X320781250Y-134250000D01*
X123218750Y-134750000D02*
X127000000Y-130968750D01*
X230000000Y-134750000D02*
X237518750Y-134750000D01*
X350250000Y-135750000D02*
X365900000Y-135750000D01*
X148250000Y-129250000D02*
X153750000Y-134750000D01*
X336750000Y-153356532D02*
X336750000Y-138000000D01*
X279400000Y-130968750D02*
X283181250Y-134750000D01*
X203200000Y-130968750D02*
X206981250Y-134750000D01*
X313718750Y-134750000D02*
X317500000Y-130968750D01*
X224500000Y-129250000D02*
X230000000Y-134750000D01*
X262250000Y-129500000D02*
X267500000Y-134750000D01*
X146380456Y-129250000D02*
X148250000Y-129250000D01*
X245081250Y-134750000D02*
X255180456Y-134750000D01*
X199418750Y-134750000D02*
X203200000Y-130968750D01*
X365900000Y-135750000D02*
X365918750Y-135731250D01*
X275618750Y-134750000D02*
X279400000Y-130968750D01*
X191500000Y-134750000D02*
X199418750Y-134750000D01*
X320781250Y-134250000D02*
X338000000Y-134250000D01*
X186250000Y-129500000D02*
X191500000Y-134750000D01*
X347956250Y-151037500D02*
X347956250Y-153793750D01*
X293342956Y-134750000D02*
X298592956Y-129500000D01*
X217080456Y-134750000D02*
X222580456Y-129250000D01*
X347956250Y-153793750D02*
X346455000Y-155295000D01*
X102289510Y-134750000D02*
X107789510Y-129250000D01*
X184230456Y-129500000D02*
X186250000Y-129500000D01*
X267500000Y-134750000D02*
X275618750Y-134750000D01*
X336750000Y-138000000D02*
X339250000Y-135500000D01*
X338688468Y-155295000D02*
X336750000Y-153356532D01*
X140880456Y-134750000D02*
X146380456Y-129250000D01*
X255180456Y-134750000D02*
X260430456Y-129500000D01*
X283181250Y-134750000D02*
X293342956Y-134750000D01*
X161318750Y-134750000D02*
X165100000Y-130968750D01*
X241300000Y-130968750D02*
X245081250Y-134750000D01*
X343750000Y-136500000D02*
X342750000Y-135500000D01*
X110000000Y-129250000D02*
X115500000Y-134750000D01*
X298592956Y-129500000D02*
X300500000Y-129500000D01*
X178980456Y-134750000D02*
X184230456Y-129500000D01*
X342750000Y-135500000D02*
X339250000Y-135500000D01*
X127000000Y-130968750D02*
X130781250Y-134750000D01*
X130781250Y-134750000D02*
X140880456Y-134750000D01*
X237518750Y-134750000D02*
X241300000Y-130968750D01*
X107789510Y-129250000D02*
X110000000Y-129250000D01*
X87856250Y-134750000D02*
X102289510Y-134750000D01*
X84137500Y-131031250D02*
X87856250Y-134750000D01*
X305750000Y-134750000D02*
X313718750Y-134750000D01*
X222580456Y-129250000D02*
X224500000Y-129250000D01*
X165100000Y-130968750D02*
X168881250Y-134750000D01*
X153750000Y-134750000D02*
X161318750Y-134750000D01*
X338000000Y-134250000D02*
X339250000Y-135500000D01*
X300500000Y-129500000D02*
X305750000Y-134750000D01*
X206981250Y-134750000D02*
X217080456Y-134750000D01*
X346455000Y-155295000D02*
X338688468Y-155295000D01*
X115500000Y-134750000D02*
X123218750Y-134750000D01*
X168881250Y-134750000D02*
X178980456Y-134750000D01*
%TO.N,Net-(D19-A)*%
X82345000Y-125095000D02*
X78740000Y-125095000D01*
X84137500Y-126887500D02*
X82345000Y-125095000D01*
X84137500Y-127731250D02*
X84137500Y-126887500D01*
%TO.N,Net-(D20-A)*%
X106095000Y-125095000D02*
X102552500Y-125095000D01*
X107950000Y-126950000D02*
X106095000Y-125095000D01*
X107950000Y-127668750D02*
X107950000Y-126950000D01*
%TO.N,Net-(D21-A)*%
X127000000Y-127000000D02*
X125095000Y-125095000D01*
X127000000Y-127668750D02*
X127000000Y-127000000D01*
X125095000Y-125095000D02*
X121602500Y-125095000D01*
%TO.N,Net-(D22-A)*%
X144345000Y-125095000D02*
X140652500Y-125095000D01*
X146050000Y-126800000D02*
X144345000Y-125095000D01*
X146050000Y-127668750D02*
X146050000Y-126800000D01*
%TO.N,Net-(D23-A)*%
X165100000Y-126850000D02*
X163345000Y-125095000D01*
X165100000Y-127668750D02*
X165100000Y-126850000D01*
X163345000Y-125095000D02*
X159702500Y-125095000D01*
%TO.N,Net-(D24-A)*%
X184150000Y-127668750D02*
X184150000Y-126900000D01*
X182345000Y-125095000D02*
X178752500Y-125095000D01*
X184150000Y-126900000D02*
X182345000Y-125095000D01*
%TO.N,Net-(D25-A)*%
X203200000Y-126950000D02*
X201345000Y-125095000D01*
X203200000Y-127668750D02*
X203200000Y-126950000D01*
X201345000Y-125095000D02*
X197802500Y-125095000D01*
%TO.N,Net-(D26-A)*%
X222250000Y-127668750D02*
X222250000Y-127000000D01*
X222250000Y-127000000D02*
X220345000Y-125095000D01*
X220345000Y-125095000D02*
X216852500Y-125095000D01*
%TO.N,Net-(D27-A)*%
X241300000Y-127050000D02*
X239345000Y-125095000D01*
X239345000Y-125095000D02*
X235902500Y-125095000D01*
X241300000Y-127668750D02*
X241300000Y-127050000D01*
%TO.N,Net-(D28-A)*%
X258595000Y-125095000D02*
X254952500Y-125095000D01*
X260350000Y-127668750D02*
X260350000Y-126850000D01*
X260350000Y-126850000D02*
X258595000Y-125095000D01*
%TO.N,Net-(D29-A)*%
X279400000Y-126900000D02*
X277595000Y-125095000D01*
X279400000Y-127668750D02*
X279400000Y-126900000D01*
X277595000Y-125095000D02*
X274002500Y-125095000D01*
%TO.N,Net-(D30-A)*%
X296595000Y-125095000D02*
X293052500Y-125095000D01*
X298450000Y-127731250D02*
X298450000Y-126950000D01*
X298450000Y-126950000D02*
X296595000Y-125095000D01*
%TO.N,Net-(D31-A)*%
X317500000Y-127000000D02*
X315595000Y-125095000D01*
X315595000Y-125095000D02*
X312102500Y-125095000D01*
X317500000Y-127668750D02*
X317500000Y-127000000D01*
%TO.N,Net-(D32-A)*%
X336750000Y-131837500D02*
X336750000Y-125930000D01*
X337343750Y-132431250D02*
X336750000Y-131837500D01*
X336750000Y-125930000D02*
X335915000Y-125095000D01*
%TO.N,Net-(D33-A)*%
X365918750Y-132431250D02*
X365250000Y-131762500D01*
X365250000Y-131762500D02*
X365250000Y-125855000D01*
X365250000Y-125855000D02*
X364490000Y-125095000D01*
%TO.N,Net-(D34-A)*%
X55562500Y-150812500D02*
X53657500Y-148907500D01*
X55562500Y-151543750D02*
X55562500Y-150812500D01*
X53657500Y-148907500D02*
X50165000Y-148907500D01*
%TO.N,ROW4*%
X191893750Y-153000000D02*
X224031250Y-153000000D01*
X58406250Y-154843750D02*
X69250000Y-144000000D01*
X227012500Y-150018750D02*
X229993750Y-153000000D01*
X300231250Y-153000000D02*
X303212500Y-150018750D01*
X55562500Y-154843750D02*
X58406250Y-154843750D01*
X69250000Y-144000000D02*
X76750000Y-144000000D01*
X309943750Y-156750000D02*
X303212500Y-150018750D01*
X224031250Y-153000000D02*
X227012500Y-150018750D01*
X76750000Y-144000000D02*
X81750000Y-149000000D01*
X147893750Y-153000000D02*
X150812500Y-150081250D01*
X150812500Y-150081250D02*
X153731250Y-153000000D01*
X83250000Y-153000000D02*
X109731250Y-153000000D01*
X109731250Y-153000000D02*
X112712500Y-150018750D01*
X81750000Y-149000000D02*
X81750000Y-151500000D01*
X81750000Y-151500000D02*
X83250000Y-153000000D01*
X229993750Y-153000000D02*
X262131250Y-153000000D01*
X188912500Y-150018750D02*
X191893750Y-153000000D01*
X268093750Y-153000000D02*
X300231250Y-153000000D01*
X347250000Y-156750000D02*
X309943750Y-156750000D01*
X349456250Y-151037500D02*
X349456250Y-154543750D01*
X185931250Y-153000000D02*
X188912500Y-150018750D01*
X153731250Y-153000000D02*
X185931250Y-153000000D01*
X349456250Y-154543750D02*
X347250000Y-156750000D01*
X262131250Y-153000000D02*
X265112500Y-150018750D01*
X265112500Y-150018750D02*
X268093750Y-153000000D01*
X112712500Y-150018750D02*
X115693750Y-153000000D01*
X115693750Y-153000000D02*
X147893750Y-153000000D01*
%TO.N,ROW5*%
X118000000Y-152000000D02*
X129781250Y-152000000D01*
X129781250Y-152000000D02*
X131762500Y-150018750D01*
X333000000Y-156250000D02*
X347000000Y-156250000D01*
X330200000Y-154781250D02*
X331531250Y-154781250D01*
X261500000Y-152000000D02*
X265000000Y-148500000D01*
X229000000Y-148250000D02*
X232750000Y-152000000D01*
X232750000Y-152000000D02*
X244143750Y-152000000D01*
X303500000Y-148250000D02*
X305250000Y-148250000D01*
X194500000Y-152000000D02*
X206043750Y-152000000D01*
X131762500Y-150018750D02*
X133346750Y-151603000D01*
X156750000Y-152000000D02*
X167881250Y-152000000D01*
X282243750Y-152000000D02*
X284162500Y-150081250D01*
X171843750Y-152000000D02*
X185542956Y-152000000D01*
X227250000Y-148250000D02*
X229000000Y-148250000D01*
X109250000Y-152000000D02*
X112750000Y-148500000D01*
X311781250Y-154781250D02*
X330200000Y-154781250D01*
X206043750Y-152000000D02*
X207962500Y-150081250D01*
X191000000Y-148500000D02*
X194500000Y-152000000D01*
X209881250Y-152000000D02*
X223500000Y-152000000D01*
X267000000Y-148500000D02*
X270500000Y-152000000D01*
X331531250Y-154781250D02*
X333000000Y-156250000D01*
X153250000Y-148500000D02*
X156750000Y-152000000D01*
X284162500Y-150081250D02*
X286081250Y-152000000D01*
X189042956Y-148500000D02*
X191000000Y-148500000D01*
X207962500Y-150081250D02*
X209881250Y-152000000D01*
X270500000Y-152000000D02*
X282243750Y-152000000D01*
X88500000Y-152000000D02*
X109250000Y-152000000D01*
X151005456Y-148500000D02*
X153250000Y-148500000D01*
X305250000Y-148250000D02*
X311781250Y-154781250D01*
X223500000Y-152000000D02*
X227250000Y-148250000D01*
X246062500Y-150081250D02*
X247981250Y-152000000D01*
X133346750Y-151603000D02*
X147902456Y-151603000D01*
X114500000Y-148500000D02*
X118000000Y-152000000D01*
X167881250Y-152000000D02*
X169862500Y-150018750D01*
X299750000Y-152000000D02*
X303500000Y-148250000D01*
X265000000Y-148500000D02*
X267000000Y-148500000D01*
X347000000Y-156250000D02*
X348956250Y-154293750D01*
X112750000Y-148500000D02*
X114500000Y-148500000D01*
X348956250Y-154293750D02*
X348956250Y-151037500D01*
X185542956Y-152000000D02*
X189042956Y-148500000D01*
X147902456Y-151603000D02*
X151005456Y-148500000D01*
X86518750Y-150018750D02*
X88500000Y-152000000D01*
X247981250Y-152000000D02*
X261500000Y-152000000D01*
X169862500Y-150018750D02*
X171843750Y-152000000D01*
X286081250Y-152000000D02*
X299750000Y-152000000D01*
X244143750Y-152000000D02*
X246062500Y-150081250D01*
%TO.N,Net-(D35-A)*%
X86518750Y-146018750D02*
X84645000Y-144145000D01*
X86518750Y-146718750D02*
X86518750Y-146018750D01*
X84645000Y-144145000D02*
X81121250Y-144145000D01*
%TO.N,Net-(D36-A)*%
X110895000Y-144145000D02*
X107315000Y-144145000D01*
X112712500Y-146718750D02*
X112712500Y-145962500D01*
X112712500Y-145962500D02*
X110895000Y-144145000D01*
%TO.N,Net-(D37-A)*%
X131762500Y-146012500D02*
X129895000Y-144145000D01*
X129895000Y-144145000D02*
X126365000Y-144145000D01*
X131762500Y-146718750D02*
X131762500Y-146012500D01*
%TO.N,Net-(D38-A)*%
X150812500Y-146781250D02*
X150812500Y-146062500D01*
X148895000Y-144145000D02*
X145415000Y-144145000D01*
X150812500Y-146062500D02*
X148895000Y-144145000D01*
%TO.N,Net-(D39-A)*%
X167895000Y-144145000D02*
X164465000Y-144145000D01*
X169862500Y-146112500D02*
X167895000Y-144145000D01*
X169862500Y-146718750D02*
X169862500Y-146112500D01*
%TO.N,Net-(D40-A)*%
X188912500Y-146718750D02*
X188912500Y-145912500D01*
X188912500Y-145912500D02*
X187145000Y-144145000D01*
X187145000Y-144145000D02*
X183515000Y-144145000D01*
%TO.N,Net-(D41-A)*%
X207962500Y-145962500D02*
X206145000Y-144145000D01*
X206145000Y-144145000D02*
X202565000Y-144145000D01*
X207962500Y-146781250D02*
X207962500Y-145962500D01*
%TO.N,Net-(D42-A)*%
X225145000Y-144145000D02*
X221615000Y-144145000D01*
X227012500Y-146718750D02*
X227012500Y-146012500D01*
X227012500Y-146012500D02*
X225145000Y-144145000D01*
%TO.N,Net-(D43-A)*%
X246062500Y-146781250D02*
X246062500Y-146062500D01*
X244145000Y-144145000D02*
X240665000Y-144145000D01*
X246062500Y-146062500D02*
X244145000Y-144145000D01*
%TO.N,Net-(D44-A)*%
X265112500Y-146718750D02*
X265112500Y-146112500D01*
X263145000Y-144145000D02*
X259715000Y-144145000D01*
X265112500Y-146112500D02*
X263145000Y-144145000D01*
%TO.N,Net-(D45-A)*%
X284162500Y-146781250D02*
X284162500Y-146162500D01*
X282145000Y-144145000D02*
X278765000Y-144145000D01*
X284162500Y-146162500D02*
X282145000Y-144145000D01*
%TO.N,Net-(D46-A)*%
X301395000Y-144145000D02*
X297815000Y-144145000D01*
X303212500Y-146718750D02*
X303212500Y-145962500D01*
X303212500Y-145962500D02*
X301395000Y-144145000D01*
%TO.N,Net-(D47-A)*%
X330200000Y-151481250D02*
X329500000Y-150781250D01*
X329500000Y-146718250D02*
X332073250Y-144145000D01*
X329500000Y-150781250D02*
X329500000Y-146718250D01*
%TO.N,Net-(D48-A)*%
X90875000Y-166625000D02*
X92075000Y-166625000D01*
X89185750Y-163195000D02*
X89185750Y-164935750D01*
X89185750Y-164935750D02*
X90875000Y-166625000D01*
%TO.N,ROW6*%
X213806250Y-172750000D02*
X217487500Y-169068750D01*
X251906250Y-172750000D02*
X255587500Y-169068750D01*
X94900000Y-172750000D02*
X137731250Y-172750000D01*
X175831250Y-172750000D02*
X179387500Y-169193750D01*
X349956250Y-154793750D02*
X347500000Y-157250000D01*
X293687500Y-169068750D02*
X297368750Y-172750000D01*
X144843750Y-172750000D02*
X175831250Y-172750000D01*
X137731250Y-172750000D02*
X141287500Y-169193750D01*
X297368750Y-172750000D02*
X339000000Y-172750000D01*
X339000000Y-172750000D02*
X340081250Y-173831250D01*
X349956250Y-151037500D02*
X349956250Y-154793750D01*
X179387500Y-169193750D02*
X182943750Y-172750000D01*
X221168750Y-172750000D02*
X251906250Y-172750000D01*
X217487500Y-169068750D02*
X221168750Y-172750000D01*
X290006250Y-172750000D02*
X293687500Y-169068750D01*
X349500000Y-162750000D02*
X349500000Y-171200000D01*
X141287500Y-169193750D02*
X144843750Y-172750000D01*
X349500000Y-171200000D02*
X346868750Y-173831250D01*
X259268750Y-172750000D02*
X290006250Y-172750000D01*
X340081250Y-173831250D02*
X346868750Y-173831250D01*
X92075000Y-169925000D02*
X94900000Y-172750000D01*
X255587500Y-169068750D02*
X259268750Y-172750000D01*
X182943750Y-172750000D02*
X213806250Y-172750000D01*
%TO.N,Net-(D49-A)*%
X122237500Y-165768750D02*
X122237500Y-164987500D01*
X122237500Y-164987500D02*
X120445000Y-163195000D01*
X120445000Y-163195000D02*
X116840000Y-163195000D01*
%TO.N,ROW7*%
X364398643Y-155296644D02*
X365503356Y-155296644D01*
X365000000Y-153250000D02*
X365750000Y-154000000D01*
X299500000Y-171250000D02*
X321793750Y-171250000D01*
X360205000Y-151205000D02*
X360313111Y-151205000D01*
X234106250Y-171500000D02*
X236537500Y-169068750D01*
X261500000Y-171500000D02*
X272206250Y-171500000D01*
X185500000Y-171750000D02*
X195881250Y-171750000D01*
X289500000Y-171500000D02*
X293500000Y-167500000D01*
X137592956Y-171500000D02*
X141342956Y-167750000D01*
X365750000Y-154000000D02*
X365750000Y-155050000D01*
X321793750Y-171250000D02*
X323056250Y-169987500D01*
X329262500Y-169987500D02*
X323056250Y-169987500D01*
X359561194Y-157938806D02*
X341311194Y-157938806D01*
X219500000Y-167500000D02*
X223500000Y-171500000D01*
X143250000Y-167750000D02*
X147250000Y-171750000D01*
X341311194Y-157938806D02*
X329262500Y-169987500D01*
X295750000Y-167500000D02*
X299500000Y-171250000D01*
X217667956Y-167500000D02*
X219500000Y-167500000D01*
X362358111Y-153250000D02*
X365000000Y-153250000D01*
X236537500Y-169068750D02*
X238968750Y-171500000D01*
X274637500Y-169068750D02*
X277068750Y-171500000D01*
X360180000Y-151180000D02*
X360205000Y-151205000D01*
X213417956Y-171750000D02*
X217667956Y-167500000D01*
X124668750Y-171500000D02*
X137592956Y-171500000D01*
X251767956Y-171500000D02*
X255767956Y-167500000D01*
X354265750Y-149265750D02*
X354265750Y-150265750D01*
X277068750Y-171500000D02*
X289500000Y-171500000D01*
X157781250Y-171750000D02*
X160337500Y-169193750D01*
X257500000Y-167500000D02*
X261500000Y-171500000D01*
X353137500Y-148137500D02*
X354265750Y-149265750D01*
X223500000Y-171500000D02*
X234106250Y-171500000D01*
X175442956Y-171750000D02*
X179442956Y-167750000D01*
X238968750Y-171500000D02*
X251767956Y-171500000D01*
X293500000Y-167500000D02*
X295750000Y-167500000D01*
X351856250Y-148137500D02*
X353137500Y-148137500D01*
X162893750Y-171750000D02*
X175442956Y-171750000D01*
X355180000Y-151180000D02*
X360180000Y-151180000D01*
X195881250Y-171750000D02*
X198437500Y-169193750D01*
X147250000Y-171750000D02*
X157781250Y-171750000D01*
X272206250Y-171500000D02*
X274637500Y-169068750D01*
X365503356Y-155296644D02*
X365750000Y-155050000D01*
X354265750Y-150265750D02*
X355180000Y-151180000D01*
X361238000Y-156250000D02*
X361238000Y-156262000D01*
X360313111Y-151205000D02*
X362358111Y-153250000D01*
X255767956Y-167500000D02*
X257500000Y-167500000D01*
X179442956Y-167750000D02*
X181500000Y-167750000D01*
X181500000Y-167750000D02*
X185500000Y-171750000D01*
X141342956Y-167750000D02*
X143250000Y-167750000D01*
X198437500Y-169193750D02*
X200993750Y-171750000D01*
X122237500Y-169068750D02*
X124668750Y-171500000D01*
X160337500Y-169193750D02*
X162893750Y-171750000D01*
X200993750Y-171750000D02*
X213417956Y-171750000D01*
X363851999Y-154750000D02*
X364398643Y-155296644D01*
X361238000Y-156262000D02*
X359561194Y-157938806D01*
%TO.N,Net-(D50-A)*%
X141287500Y-165037500D02*
X139445000Y-163195000D01*
X141287500Y-165893750D02*
X141287500Y-165037500D01*
X139445000Y-163195000D02*
X135890000Y-163195000D01*
%TO.N,Net-(D51-A)*%
X160337500Y-165893750D02*
X160337500Y-165087500D01*
X158445000Y-163195000D02*
X154940000Y-163195000D01*
X160337500Y-165087500D02*
X158445000Y-163195000D01*
%TO.N,Net-(D52-A)*%
X179387500Y-165137500D02*
X177445000Y-163195000D01*
X179387500Y-165893750D02*
X179387500Y-165137500D01*
X177445000Y-163195000D02*
X173990000Y-163195000D01*
%TO.N,Net-(D53-A)*%
X198437500Y-165187500D02*
X196445000Y-163195000D01*
X196445000Y-163195000D02*
X193040000Y-163195000D01*
X198437500Y-165893750D02*
X198437500Y-165187500D01*
%TO.N,Net-(D54-A)*%
X215695000Y-163195000D02*
X212090000Y-163195000D01*
X217487500Y-165768750D02*
X217487500Y-164987500D01*
X217487500Y-164987500D02*
X215695000Y-163195000D01*
%TO.N,Net-(D55-A)*%
X234695000Y-163195000D02*
X231140000Y-163195000D01*
X236537500Y-165037500D02*
X234695000Y-163195000D01*
X236537500Y-165768750D02*
X236537500Y-165037500D01*
%TO.N,Net-(D56-A)*%
X253695000Y-163195000D02*
X250190000Y-163195000D01*
X255587500Y-165768750D02*
X255587500Y-165087500D01*
X255587500Y-165087500D02*
X253695000Y-163195000D01*
%TO.N,Net-(D57-A)*%
X274637500Y-165768750D02*
X274637500Y-164887500D01*
X274637500Y-164887500D02*
X272945000Y-163195000D01*
X272945000Y-163195000D02*
X269240000Y-163195000D01*
%TO.N,Net-(D58-A)*%
X291945000Y-163195000D02*
X288290000Y-163195000D01*
X293687500Y-164937500D02*
X291945000Y-163195000D01*
X293687500Y-165768750D02*
X293687500Y-164937500D01*
%TO.N,Net-(D59-A)*%
X320167000Y-163798250D02*
X323056250Y-166687500D01*
X320167000Y-163195000D02*
X320167000Y-163798250D01*
%TO.N,Net-(D60-A)*%
X346250000Y-169912500D02*
X346250000Y-164005000D01*
X346250000Y-164005000D02*
X345440000Y-163195000D01*
X346868750Y-170531250D02*
X346250000Y-169912500D01*
%TO.N,Net-(D61-A)*%
X81756250Y-184943750D02*
X81756250Y-184256250D01*
X81756250Y-184256250D02*
X79745000Y-182245000D01*
X79745000Y-182245000D02*
X76358750Y-182245000D01*
%TO.N,ROW8*%
X354653112Y-152545000D02*
X359758064Y-152545000D01*
X348237500Y-194250000D02*
X346868750Y-192881250D01*
X345500000Y-194250000D02*
X346868750Y-192881250D01*
X362295000Y-155081937D02*
X362295000Y-172045000D01*
X127756250Y-192250000D02*
X131762500Y-188243750D01*
X296825000Y-192250000D02*
X300831250Y-188243750D01*
X359758064Y-152545000D02*
X362295000Y-155081937D01*
X369000000Y-191750000D02*
X366500000Y-194250000D01*
X351856250Y-149637500D02*
X352487500Y-149637500D01*
X362295000Y-172045000D02*
X369000000Y-178750001D01*
X81756250Y-188243750D02*
X85762500Y-192250000D01*
X135768750Y-192250000D02*
X296825000Y-192250000D01*
X131762500Y-188243750D02*
X135768750Y-192250000D01*
X369000000Y-178750001D02*
X369000000Y-191750000D01*
X306837500Y-194250000D02*
X345500000Y-194250000D01*
X85762500Y-192250000D02*
X127756250Y-192250000D01*
X352900750Y-150050750D02*
X352900750Y-150792638D01*
X366500000Y-194250000D02*
X348237500Y-194250000D01*
X300831250Y-188243750D02*
X306837500Y-194250000D01*
X352487500Y-149637500D02*
X352900750Y-150050750D01*
X352900750Y-150792638D02*
X354653112Y-152545000D01*
%TO.N,ROW9*%
X352445750Y-150303862D02*
X352445750Y-150945750D01*
X300500000Y-186750000D02*
X302750000Y-186750000D01*
X345350000Y-191250000D02*
X356100000Y-191250000D01*
X132117956Y-186500000D02*
X127117956Y-191500000D01*
X206581250Y-191500000D02*
X271381250Y-191500000D01*
X368545000Y-178938468D02*
X368545000Y-191455000D01*
X354500000Y-153000000D02*
X359569596Y-153000000D01*
X361840000Y-172233468D02*
X368545000Y-178938468D01*
X352445750Y-150945750D02*
X354500000Y-153000000D01*
X133750000Y-186500000D02*
X132117956Y-186500000D01*
X127117956Y-191500000D02*
X108825000Y-191500000D01*
X138750000Y-191500000D02*
X133750000Y-186500000D01*
X351856250Y-150137500D02*
X352279388Y-150137500D01*
X201406250Y-191500000D02*
X138750000Y-191500000D01*
X368545000Y-191455000D02*
X367118750Y-192881250D01*
X108825000Y-191500000D02*
X105568750Y-188243750D01*
X274637500Y-188243750D02*
X277893750Y-191500000D01*
X203993750Y-188912500D02*
X206581250Y-191500000D01*
X322131250Y-192881250D02*
X327818750Y-192881250D01*
X356100000Y-191250000D02*
X357731250Y-192881250D01*
X321762500Y-193250000D02*
X322131250Y-192881250D01*
X277893750Y-191500000D02*
X295750000Y-191500000D01*
X203993750Y-188912500D02*
X201406250Y-191500000D01*
X352279388Y-150137500D02*
X352445750Y-150303862D01*
X361840000Y-155270404D02*
X361840000Y-172233468D01*
X295750000Y-191500000D02*
X300500000Y-186750000D01*
X357731250Y-192881250D02*
X365918750Y-192881250D01*
X328487500Y-193550000D02*
X343050000Y-193550000D01*
X343050000Y-193550000D02*
X345350000Y-191250000D01*
X309250000Y-193250000D02*
X321762500Y-193250000D01*
X367118750Y-192881250D02*
X365918750Y-192881250D01*
X271381250Y-191500000D02*
X274637500Y-188243750D01*
X327818750Y-192881250D02*
X328487500Y-193550000D01*
X359569596Y-153000000D02*
X361840000Y-155270404D01*
X302750000Y-186750000D02*
X309250000Y-193250000D01*
%TO.N,Net-(D62-A)*%
X105568750Y-184318750D02*
X103495000Y-182245000D01*
X105568750Y-184943750D02*
X105568750Y-184318750D01*
X103495000Y-182245000D02*
X100171250Y-182245000D01*
%TO.N,Net-(D63-A)*%
X129745000Y-182245000D02*
X126365000Y-182245000D01*
X131762500Y-184943750D02*
X131762500Y-184262500D01*
X131762500Y-184262500D02*
X129745000Y-182245000D01*
%TO.N,Net-(D64-A)*%
X201104500Y-182245000D02*
X201295000Y-182245000D01*
X201295000Y-182245000D02*
X203993750Y-184943750D01*
X203993750Y-184943750D02*
X203993750Y-185612500D01*
%TO.N,Net-(D65-A)*%
X272745000Y-182245000D02*
X269240000Y-182245000D01*
X274637500Y-184943750D02*
X274637500Y-184137500D01*
X274637500Y-184137500D02*
X272745000Y-182245000D01*
%TO.N,Net-(D66-A)*%
X298745000Y-182245000D02*
X295433750Y-182245000D01*
X300831250Y-184331250D02*
X298745000Y-182245000D01*
X300831250Y-184943750D02*
X300831250Y-184331250D01*
%TO.N,Net-(D67-A)*%
X327000000Y-188762500D02*
X327000000Y-182855000D01*
X327818750Y-189581250D02*
X327000000Y-188762500D01*
X327000000Y-182855000D02*
X326390000Y-182245000D01*
%TO.N,Net-(D68-A)*%
X346250000Y-183055000D02*
X345440000Y-182245000D01*
X346868750Y-189581250D02*
X346250000Y-188962500D01*
X346250000Y-188962500D02*
X346250000Y-183055000D01*
%TO.N,Net-(D69-A)*%
X365918750Y-189581250D02*
X365250000Y-188912500D01*
X365250000Y-188912500D02*
X365250000Y-183005000D01*
X365250000Y-183005000D02*
X364490000Y-182245000D01*
%TO.N,Net-(D70-A)*%
X368750000Y-149500000D02*
X373000000Y-149500000D01*
X365750000Y-151750000D02*
X366500000Y-151750000D01*
X373000000Y-149500000D02*
X373975000Y-150475000D01*
X373975000Y-150475000D02*
X373975000Y-151750000D01*
X366500000Y-151750000D02*
X368750000Y-149500000D01*
D39*
%TO.N,VCC*%
X347600000Y-105100000D02*
X348456250Y-105956250D01*
X352500000Y-105270678D02*
X351770678Y-106000000D01*
X348456250Y-107637500D02*
X347250000Y-108843750D01*
X351770678Y-106000000D02*
X351250000Y-106000000D01*
X352500000Y-103500000D02*
X352500000Y-105270678D01*
X347600000Y-103500000D02*
X347600000Y-105100000D01*
X348456250Y-105956250D02*
X348456250Y-107637500D01*
X347250000Y-112300000D02*
X347662500Y-112712500D01*
X347250000Y-108843750D02*
X347250000Y-112300000D01*
D40*
%TO.N,COL8*%
X354000000Y-137805989D02*
X349956250Y-141849739D01*
X349956250Y-141849739D02*
X349956250Y-144237500D01*
X354000000Y-136500000D02*
X354000000Y-137805989D01*
D39*
%TO.N,SLOCK_IND*%
X61118750Y-188912500D02*
X62412500Y-188912500D01*
D40*
X351000000Y-142250000D02*
X350456250Y-142793750D01*
X62412500Y-188912500D02*
X62500000Y-189000000D01*
X350456250Y-142793750D02*
X350456250Y-144237500D01*
%TO.N,RESET*%
X357250000Y-139750000D02*
X358850000Y-141350000D01*
X354000000Y-144123546D02*
X352486046Y-145637500D01*
X355769000Y-139750000D02*
X354000000Y-141519000D01*
X356250000Y-139750000D02*
X355769000Y-139750000D01*
X357500000Y-143750000D02*
X358250000Y-143750000D01*
X358850000Y-141350000D02*
X358850000Y-142606250D01*
X358850000Y-143150000D02*
X358850000Y-142606250D01*
X354000000Y-141519000D02*
X354000000Y-144123546D01*
X352486046Y-145637500D02*
X351856250Y-145637500D01*
X356250000Y-139750000D02*
X357250000Y-139750000D01*
X358250000Y-143750000D02*
X358850000Y-143150000D01*
%TO.N,RGBLED*%
X352500000Y-129500000D02*
X352570000Y-129430000D01*
X352750000Y-141500000D02*
X350956250Y-143293750D01*
X353250000Y-135123000D02*
X352500000Y-134373000D01*
X350956250Y-143293750D02*
X350956250Y-144237500D01*
X352500000Y-134373000D02*
X352500000Y-129500000D01*
X352570000Y-129421888D02*
X357187500Y-124804388D01*
X357187500Y-124804388D02*
X357187500Y-121468750D01*
X353250000Y-139750000D02*
X352750000Y-140250000D01*
X352570000Y-129430000D02*
X352570000Y-129421888D01*
X352750000Y-140250000D02*
X352750000Y-141500000D01*
D39*
%TO.N,Net-(LED1-A)*%
X53687500Y-182562500D02*
X50000000Y-178875000D01*
X50000000Y-175730000D02*
X48895000Y-174625000D01*
X50000000Y-178875000D02*
X50000000Y-175730000D01*
X59318750Y-182562500D02*
X53687500Y-182562500D01*
%TO.N,Net-(LED2-A)*%
X59318750Y-185737500D02*
X53663750Y-185737500D01*
X53663750Y-185737500D02*
X48895000Y-180968750D01*
%TO.N,Net-(LED3-A)*%
X53662500Y-188912500D02*
X52062500Y-187312500D01*
X52062500Y-187312500D02*
X48895000Y-187312500D01*
X59318750Y-188912500D02*
X53662500Y-188912500D01*
D40*
%TO.N,D-*%
X346956250Y-137706250D02*
X346956250Y-144237500D01*
X346075000Y-136525000D02*
X346075000Y-136825000D01*
X346075000Y-136825000D02*
X346956250Y-137706250D01*
%TO.N,Net-(U2-IO2)*%
X349284250Y-108709500D02*
X348456250Y-109537500D01*
X349300000Y-104800000D02*
X349750000Y-105250000D01*
X346075000Y-119925000D02*
X346075000Y-134725000D01*
X349320000Y-116680000D02*
X346075000Y-119925000D01*
X348456250Y-109537500D02*
X349320000Y-110401250D01*
X349750000Y-105250000D02*
X349750000Y-105750000D01*
X349284250Y-106215750D02*
X349284250Y-108709500D01*
X350300000Y-104700000D02*
X350300000Y-103500000D01*
X349300000Y-103500000D02*
X349300000Y-104800000D01*
X349750000Y-105750000D02*
X349284250Y-106215750D01*
X349320000Y-110401250D02*
X349320000Y-116680000D01*
X349750000Y-105250000D02*
X350300000Y-104700000D01*
%TO.N,Net-(U2-IO1)*%
X349750000Y-110250000D02*
X349750000Y-116875000D01*
X350800000Y-105450000D02*
X349750000Y-106500000D01*
X350756250Y-109537500D02*
X350462500Y-109537500D01*
X350800000Y-103500000D02*
X350800000Y-105450000D01*
X350800000Y-102550000D02*
X350800000Y-103500000D01*
X346505000Y-132005000D02*
X348000000Y-133500000D01*
X349750000Y-108531250D02*
X350756250Y-109537500D01*
X349750000Y-116875000D02*
X346505000Y-120120000D01*
X346505000Y-120120000D02*
X346505000Y-132005000D01*
X350500000Y-102250000D02*
X350800000Y-102550000D01*
X349800000Y-102469000D02*
X350019000Y-102250000D01*
X348000000Y-133500000D02*
X348000000Y-134750000D01*
X349750000Y-106500000D02*
X349750000Y-108531250D01*
X349800000Y-103500000D02*
X349800000Y-102469000D01*
X350462500Y-109537500D02*
X349750000Y-110250000D01*
X350019000Y-102250000D02*
X350500000Y-102250000D01*
%TO.N,D+*%
X347456250Y-137543750D02*
X347456250Y-144237500D01*
X348000000Y-136550000D02*
X348000000Y-137000000D01*
X348000000Y-137000000D02*
X347456250Y-137543750D01*
%TO.N,RESW_A*%
X368975000Y-167525000D02*
X368975000Y-166250000D01*
X366712500Y-168275000D02*
X368225000Y-168275000D01*
X368225000Y-168275000D02*
X368975000Y-167525000D01*
X368225000Y-169275000D02*
X368225000Y-168275000D01*
X366500000Y-169900000D02*
X367600000Y-169900000D01*
X367600000Y-169900000D02*
X368225000Y-169275000D01*
%TO.N,Net-(U1-PD2)*%
X351856250Y-149137500D02*
X352637500Y-149137500D01*
X362750000Y-154893470D02*
X362750000Y-171250000D01*
X364600000Y-173100000D02*
X364912500Y-173100000D01*
X359946532Y-152090000D02*
X362750000Y-154893470D01*
X353355750Y-149855750D02*
X353355750Y-150605750D01*
X353355750Y-150605750D02*
X354840000Y-152090000D01*
X352637500Y-149137500D02*
X353355750Y-149855750D01*
X362750000Y-171250000D02*
X364600000Y-173100000D01*
X354840000Y-152090000D02*
X359946532Y-152090000D01*
%TO.N,Net-(U1-PD1)*%
X351856250Y-148637500D02*
X352887500Y-148637500D01*
X363250000Y-154750001D02*
X363250000Y-166612500D01*
X363250000Y-166612500D02*
X364912500Y-168275000D01*
X353810750Y-150452638D02*
X354993112Y-151635000D01*
X360134999Y-151635000D02*
X363250000Y-154750001D01*
X353810750Y-149560750D02*
X353810750Y-150452638D01*
X352887500Y-148637500D02*
X353810750Y-149560750D01*
X354993112Y-151635000D02*
X360134999Y-151635000D01*
%TO.N,RESW_B*%
X366500000Y-171500000D02*
X369000000Y-171500000D01*
X367462500Y-173037500D02*
X369375000Y-171125000D01*
X369000000Y-171500000D02*
X369375000Y-171125000D01*
X371000000Y-169500000D02*
X372500000Y-169500000D01*
X369375000Y-171125000D02*
X371000000Y-169500000D01*
X373975000Y-168025000D02*
X373975000Y-166250000D01*
X372500000Y-169500000D02*
X373975000Y-168025000D01*
X366712500Y-173037500D02*
X367462500Y-173037500D01*
%TO.N,Net-(USB1-CC1)*%
X345200000Y-106550000D02*
X345250000Y-106500000D01*
X345200000Y-107625000D02*
X345200000Y-106550000D01*
X348763479Y-105217592D02*
X348763479Y-105236521D01*
X348800000Y-105200000D02*
X348800000Y-103500000D01*
X348763479Y-105236521D02*
X348800000Y-105200000D01*
%TO.N,Net-(USB1-CC2)*%
X351800000Y-104956553D02*
X351800000Y-103500000D01*
X353137500Y-106750000D02*
X353137500Y-107625000D01*
X351518044Y-105246239D02*
X351518044Y-105238509D01*
X351518044Y-105238509D02*
X351800000Y-104956553D01*
%TO.N,Net-(U1-~{HWB}{slash}PE2)*%
X345500000Y-152750000D02*
X345956250Y-152293750D01*
X345956250Y-152293750D02*
X345956250Y-151037500D01*
X343000000Y-152750000D02*
X345500000Y-152750000D01*
%TO.N,Net-(RGB1-DOUT)*%
X339684500Y-119934500D02*
X339750000Y-120000000D01*
X315834250Y-119934500D02*
X339684500Y-119934500D01*
X349000000Y-120000000D02*
X350731250Y-118268750D01*
X314325000Y-121443750D02*
X315834250Y-119934500D01*
X350731250Y-118268750D02*
X351987500Y-118268750D01*
%TO.N,Net-(RGB2-DOUT)*%
X273843750Y-121443750D02*
X275353000Y-119934500D01*
X307434250Y-119934500D02*
X309125000Y-118243750D01*
X275353000Y-119934500D02*
X307434250Y-119934500D01*
%TO.N,Net-(RGB3-DOUT)*%
X230981250Y-121443750D02*
X232603000Y-119822000D01*
X232603000Y-119822000D02*
X267065500Y-119822000D01*
X267065500Y-119822000D02*
X268643750Y-118243750D01*
%TO.N,Net-(RGB4-DOUT)*%
X183356250Y-121443750D02*
X184878000Y-119922000D01*
X224103000Y-119922000D02*
X225781250Y-118243750D01*
X184878000Y-119922000D02*
X224103000Y-119922000D01*
%TO.N,Net-(RGB5-DOUT)*%
X141287500Y-121443750D02*
X142809250Y-119922000D01*
X142809250Y-119922000D02*
X176478000Y-119922000D01*
X176478000Y-119922000D02*
X178156250Y-118243750D01*
%TO.N,Net-(RGB6-DOUT)*%
X136493750Y-118243750D02*
X136087500Y-118243750D01*
X101534250Y-119922000D02*
X134409250Y-119922000D01*
X100012500Y-121443750D02*
X101534250Y-119922000D01*
X134409250Y-119922000D02*
X136087500Y-118243750D01*
%TO.N,Net-(RGB7-DOUT)*%
X92884250Y-120172000D02*
X94812500Y-118243750D01*
X59228000Y-120172000D02*
X92884250Y-120172000D01*
X57950000Y-121450000D02*
X59228000Y-120172000D01*
%TO.N,Net-(RGB8-DOUT)*%
X49250000Y-118250000D02*
X46250000Y-121250000D01*
X45000000Y-133750000D02*
X45000000Y-136250000D01*
X46000000Y-151750000D02*
X44250000Y-153500000D01*
X46250000Y-121250000D02*
X46250000Y-132500000D01*
X52750000Y-174250000D02*
X52750000Y-175418750D01*
X44250000Y-153500000D02*
X44250000Y-165750000D01*
X44250000Y-165750000D02*
X52750000Y-174250000D01*
X45000000Y-136250000D02*
X46000000Y-137250000D01*
X52750000Y-118250000D02*
X49250000Y-118250000D01*
X46000000Y-137250000D02*
X46000000Y-151750000D01*
X46250000Y-132500000D02*
X45000000Y-133750000D01*
X52750000Y-175418750D02*
X52743750Y-175418750D01*
%TO.N,Net-(RGB10-DIN)*%
X57943750Y-178618750D02*
X59590500Y-176972000D01*
X94331250Y-175418750D02*
X94812500Y-175418750D01*
X59590500Y-176972000D02*
X93259250Y-176972000D01*
X93259250Y-176972000D02*
X94812500Y-175418750D01*
%TO.N,Net-(RGB10-DOUT)*%
X101509250Y-177122000D02*
X134359250Y-177122000D01*
X134359250Y-177122000D02*
X136087500Y-175393750D01*
X100012500Y-178618750D02*
X101509250Y-177122000D01*
%TO.N,Net-(RGB11-DOUT)*%
X177150000Y-174600000D02*
X178375000Y-174600000D01*
X174372000Y-177378000D02*
X177150000Y-174600000D01*
X142503250Y-177378000D02*
X174372000Y-177378000D01*
X141287500Y-178593750D02*
X142503250Y-177378000D01*
X178375000Y-174625000D02*
X178375000Y-174600000D01*
%TO.N,Net-(RGB12-DOUT)*%
X224400000Y-174600000D02*
X225781250Y-174600000D01*
X185003000Y-176372000D02*
X222628000Y-176372000D01*
X183575000Y-177800000D02*
X185003000Y-176372000D01*
X222628000Y-176372000D02*
X224400000Y-174600000D01*
%TO.N,Net-(RGB13-DOUT)*%
X267771750Y-176290750D02*
X268643750Y-175418750D01*
X232490500Y-176290750D02*
X267771750Y-176290750D01*
X230981250Y-177800000D02*
X232490500Y-176290750D01*
%TO.N,Net-(RGB14-DOUT)*%
X275490500Y-176972000D02*
X307546750Y-176972000D01*
X307546750Y-176972000D02*
X309125000Y-175393750D01*
X273843750Y-178618750D02*
X275490500Y-176972000D01*
%TO.N,Net-(RGB15-DOUT)*%
X350353000Y-176972000D02*
X351987500Y-175337500D01*
X314325000Y-178593750D02*
X315946750Y-176972000D01*
X315946750Y-176972000D02*
X350353000Y-176972000D01*
%TO.N,LAYER_IND*%
X352342579Y-145137500D02*
X351856250Y-145137500D01*
X353040580Y-143459420D02*
X353040580Y-144439498D01*
X353040580Y-144439498D02*
X352342579Y-145137500D01*
X351856250Y-145137500D02*
X352228421Y-145137500D01*
X353056644Y-143443356D02*
X353040580Y-143459420D01*
D39*
X61118750Y-182562500D02*
X62437500Y-182562500D01*
D40*
X62437500Y-182562500D02*
X62500000Y-182500000D01*
%TO.N,CAPS_IND*%
X62487500Y-185737500D02*
X62500000Y-185750000D01*
D39*
X61118750Y-185737500D02*
X62487500Y-185737500D01*
D40*
X345250000Y-142250000D02*
X345956250Y-142956250D01*
X345956250Y-142956250D02*
X345956250Y-144237500D01*
%TO.N,COL0*%
X341290000Y-144333192D02*
X341290000Y-145540000D01*
X343354834Y-146637500D02*
X345056250Y-146637500D01*
X343189334Y-146472000D02*
X343354834Y-146637500D01*
X342222000Y-146472000D02*
X343189334Y-146472000D01*
X341290000Y-145540000D02*
X342222000Y-146472000D01*
X342433125Y-143190067D02*
X341290000Y-144333192D01*
%TO.N,COL1*%
X342975867Y-146902000D02*
X343211368Y-147137500D01*
X341976336Y-146902000D02*
X342975867Y-146902000D01*
X76258750Y-166628750D02*
X74387500Y-168500000D01*
X74387500Y-168500000D02*
X70000000Y-168500000D01*
X341760686Y-142756673D02*
X340860000Y-143657359D01*
X343211368Y-147137500D02*
X345056250Y-147137500D01*
X74771250Y-160021250D02*
X74771250Y-146685000D01*
X340860000Y-143657359D02*
X340860000Y-145785664D01*
X76258750Y-165735000D02*
X76258750Y-166628750D01*
X76258750Y-161508750D02*
X74771250Y-160021250D01*
X340860000Y-145785664D02*
X341976336Y-146902000D01*
X76258750Y-165735000D02*
X76258750Y-161508750D01*
%TO.N,COL2*%
X343067902Y-147637500D02*
X345056250Y-147637500D01*
X340430000Y-142976372D02*
X340430000Y-145963776D01*
X342787402Y-147357000D02*
X343067902Y-147637500D01*
X340430000Y-145963776D02*
X341823224Y-147357000D01*
X341823224Y-147357000D02*
X342787402Y-147357000D01*
X341098287Y-142308085D02*
X340430000Y-142976372D01*
%TO.N,COL3*%
X188177500Y-184785000D02*
X184843750Y-188118750D01*
X340451796Y-141836861D02*
X340000000Y-142288657D01*
X342924434Y-148137500D02*
X345056250Y-148137500D01*
X340000000Y-146141888D02*
X341670112Y-147812000D01*
X342598934Y-147812000D02*
X342924434Y-148137500D01*
X340000000Y-142288657D02*
X340000000Y-146141888D01*
X341670112Y-147812000D02*
X342598934Y-147812000D01*
X184843750Y-188118750D02*
X154868750Y-188118750D01*
X154868750Y-188118750D02*
X154825000Y-188075000D01*
%TO.N,COL4*%
X342780968Y-148637500D02*
X345056250Y-148637500D01*
X339554501Y-146304501D02*
X341517000Y-148267000D01*
X341517000Y-148267000D02*
X342410467Y-148267000D01*
X342410467Y-148267000D02*
X342780968Y-148637500D01*
X339800000Y-141373000D02*
X339554501Y-141618499D01*
X339554501Y-141618499D02*
X339554501Y-146304501D01*
%TO.N,COL5*%
X339124501Y-146482613D02*
X341338888Y-148697000D01*
X342197000Y-148697000D02*
X342637500Y-149137500D01*
X341338888Y-148697000D02*
X342197000Y-148697000D01*
X342637500Y-149137500D02*
X345056250Y-149137500D01*
X339124501Y-140873000D02*
X339124501Y-146482613D01*
%TO.N,COL6*%
X345570000Y-153930000D02*
X346456250Y-153043750D01*
X338277000Y-140373000D02*
X338160000Y-140490000D01*
X339253872Y-153930000D02*
X345570000Y-153930000D01*
X346456250Y-153043750D02*
X346456250Y-151037500D01*
X338160000Y-152836128D02*
X339253872Y-153930000D01*
X338160000Y-140490000D02*
X338160000Y-152836128D01*
X338500000Y-140373000D02*
X338277000Y-140373000D01*
%TO.N,COL7*%
X307240000Y-165735000D02*
X307240000Y-165158750D01*
X304750000Y-169081250D02*
X307240000Y-166591250D01*
X297968750Y-162718750D02*
X292250000Y-157000000D01*
X304800000Y-162718750D02*
X297968750Y-162718750D01*
X332700000Y-139500000D02*
X320750000Y-139500000D01*
X332750000Y-139550000D02*
X332700000Y-139500000D01*
X351500000Y-138000000D02*
X351500000Y-139662521D01*
X320750000Y-139500000D02*
X319146250Y-141103750D01*
X351500000Y-139662521D02*
X349456250Y-141706271D01*
X307240000Y-166591250D02*
X307240000Y-165735000D01*
X307240000Y-165158750D02*
X304800000Y-162718750D01*
X349456250Y-141706271D02*
X349456250Y-144237500D01*
X304750000Y-169862500D02*
X304750000Y-169081250D01*
X351503000Y-137997000D02*
X351500000Y-138000000D01*
X319146250Y-141103750D02*
X319146250Y-146685000D01*
%TD*%
M02*
