%TF.GenerationSoftware,KiCad,Pcbnew,9.0.2*%
%TF.CreationDate,2025-09-10T16:53:27+09:00*%
%TF.ProjectId,CL70_PCB,434c3730-5f50-4434-922e-6b696361645f,rev?*%
%TF.SameCoordinates,Original*%
%TF.FileFunction,Soldermask,Bot*%
%TF.FilePolarity,Negative*%
%FSLAX46Y46*%
G04 Gerber Fmt 4.6, Leading zero omitted, Abs format (unit mm)*
G04 Created by KiCad (PCBNEW 9.0.2) date 2025-09-10 16:53:27*
%MOMM*%
%LPD*%
G01*
G04 APERTURE LIST*
G04 Aperture macros list*
%AMRoundRect*
0 Rectangle with rounded corners*
0 $1 Rounding radius*
0 $2 $3 $4 $5 $6 $7 $8 $9 X,Y pos of 4 corners*
0 Add a 4 corners polygon primitive as box body*
4,1,4,$2,$3,$4,$5,$6,$7,$8,$9,$2,$3,0*
0 Add four circle primitives for the rounded corners*
1,1,$1+$1,$2,$3*
1,1,$1+$1,$4,$5*
1,1,$1+$1,$6,$7*
1,1,$1+$1,$8,$9*
0 Add four rect primitives between the rounded corners*
20,1,$1+$1,$2,$3,$4,$5,0*
20,1,$1+$1,$4,$5,$6,$7,0*
20,1,$1+$1,$6,$7,$8,$9,0*
20,1,$1+$1,$8,$9,$2,$3,0*%
G04 Aperture macros list end*
%ADD10C,0.000000*%
%ADD11C,1.750000*%
%ADD12C,4.000000*%
%ADD13C,2.500000*%
%ADD14R,1.800000X1.800000*%
%ADD15C,1.800000*%
%ADD16C,3.050000*%
%ADD17RoundRect,0.250000X-1.025000X-1.000000X1.025000X-1.000000X1.025000X1.000000X-1.025000X1.000000X0*%
%ADD18R,2.000000X2.000000*%
%ADD19C,2.000000*%
%ADD20R,2.000000X3.200000*%
%ADD21R,1.000000X0.750000*%
%ADD22R,1.800000X1.000000*%
%ADD23RoundRect,0.225000X0.375000X-0.225000X0.375000X0.225000X-0.375000X0.225000X-0.375000X-0.225000X0*%
%ADD24R,0.750000X1.000000*%
%ADD25R,0.900000X0.800000*%
%ADD26R,1.000000X1.200000*%
%ADD27R,1.000000X0.900000*%
%ADD28R,1.800000X1.100000*%
%ADD29C,1.700000*%
%ADD30R,1.700000X1.700000*%
%ADD31R,0.800000X0.900000*%
%ADD32RoundRect,0.250000X0.350000X-0.450000X0.350000X0.450000X-0.350000X0.450000X-0.350000X-0.450000X0*%
%ADD33C,0.650000*%
%ADD34R,0.600000X1.450000*%
%ADD35R,0.300000X1.450000*%
%ADD36O,1.000000X1.600000*%
%ADD37O,1.000000X2.100000*%
%ADD38C,5.000000*%
%ADD39O,0.250000X1.000000*%
%ADD40O,1.000000X0.250000*%
%ADD41RoundRect,0.250000X0.625000X-0.375000X0.625000X0.375000X-0.625000X0.375000X-0.625000X-0.375000X0*%
G04 APERTURE END LIST*
D10*
%TO.C,G\u002A\u002A\u002A*%
G36*
X282034005Y-158223862D02*
G01*
X282034005Y-158967584D01*
X281573906Y-158967584D01*
X281113807Y-158967584D01*
X281113807Y-158854135D01*
X281113807Y-158740686D01*
X281441549Y-158740686D01*
X281769291Y-158740686D01*
X281769291Y-158110413D01*
X281769291Y-157480140D01*
X281901648Y-157480140D01*
X282034005Y-157480140D01*
X282034005Y-158223862D01*
G37*
G36*
X268523111Y-158674398D02*
G01*
X268571275Y-158699247D01*
X268606790Y-158737932D01*
X268627493Y-158785843D01*
X268631221Y-158838364D01*
X268615813Y-158890884D01*
X268579105Y-158938789D01*
X268550740Y-158961932D01*
X268518221Y-158976514D01*
X268476576Y-158980190D01*
X268465347Y-158979913D01*
X268404000Y-158966263D01*
X268358065Y-158933337D01*
X268329250Y-158882911D01*
X268319266Y-158816760D01*
X268326844Y-158773068D01*
X268354862Y-158724389D01*
X268398577Y-158687826D01*
X268452731Y-158669194D01*
X268464459Y-158668000D01*
X268523111Y-158674398D01*
G37*
G36*
X258593570Y-157599723D02*
G01*
X258776933Y-157719307D01*
X258776933Y-157839227D01*
X258776693Y-157870327D01*
X258775296Y-157916024D01*
X258772932Y-157947455D01*
X258769921Y-157959147D01*
X258764980Y-157956904D01*
X258741897Y-157943560D01*
X258703617Y-157920218D01*
X258653923Y-157889197D01*
X258596596Y-157852818D01*
X258430283Y-157746488D01*
X258427012Y-158357036D01*
X258423741Y-158967584D01*
X258285201Y-158967584D01*
X258146660Y-158967584D01*
X258146660Y-158223862D01*
X258146660Y-157480140D01*
X258278433Y-157480140D01*
X258410206Y-157480140D01*
X258593570Y-157599723D01*
G37*
G36*
X267896399Y-157599723D02*
G01*
X268079762Y-157719307D01*
X268079762Y-157839227D01*
X268079521Y-157870327D01*
X268078125Y-157916024D01*
X268075761Y-157947455D01*
X268072750Y-157959147D01*
X268067809Y-157956904D01*
X268044726Y-157943560D01*
X268006446Y-157920218D01*
X267956752Y-157889197D01*
X267899425Y-157852818D01*
X267733112Y-157746488D01*
X267729841Y-158357036D01*
X267726569Y-158967584D01*
X267588029Y-158967584D01*
X267449489Y-158967584D01*
X267449489Y-158223862D01*
X267449489Y-157480140D01*
X267581262Y-157480140D01*
X267713035Y-157480140D01*
X267896399Y-157599723D01*
G37*
G36*
X269434265Y-157599723D02*
G01*
X269617628Y-157719307D01*
X269617628Y-157839227D01*
X269617387Y-157870327D01*
X269615991Y-157916024D01*
X269613627Y-157947455D01*
X269610616Y-157959147D01*
X269605675Y-157956904D01*
X269582592Y-157943560D01*
X269544312Y-157920218D01*
X269494618Y-157889197D01*
X269437291Y-157852818D01*
X269270978Y-157746488D01*
X269267707Y-158357036D01*
X269264435Y-158967584D01*
X269125895Y-158967584D01*
X268987355Y-158967584D01*
X268987355Y-158223862D01*
X268987355Y-157480140D01*
X269119128Y-157480140D01*
X269250901Y-157480140D01*
X269434265Y-157599723D01*
G37*
G36*
X280962541Y-157593589D02*
G01*
X280962541Y-157707038D01*
X280590680Y-157707038D01*
X280560755Y-157707057D01*
X280469221Y-157707364D01*
X280387362Y-157708007D01*
X280318285Y-157708936D01*
X280265098Y-157710103D01*
X280230907Y-157711458D01*
X280218819Y-157712951D01*
X280219835Y-157715406D01*
X280230002Y-157736233D01*
X280250221Y-157776481D01*
X280279423Y-157834057D01*
X280316541Y-157906867D01*
X280360504Y-157992816D01*
X280410244Y-158089810D01*
X280464693Y-158195756D01*
X280522783Y-158308559D01*
X280545036Y-158351732D01*
X280602767Y-158463736D01*
X280657002Y-158568961D01*
X280706590Y-158665175D01*
X280750380Y-158750144D01*
X280787221Y-158821636D01*
X280815963Y-158877418D01*
X280835454Y-158915257D01*
X280844546Y-158932919D01*
X280862345Y-158967584D01*
X280720210Y-158967249D01*
X280578075Y-158966913D01*
X280259787Y-158343938D01*
X279941499Y-157720963D01*
X279941499Y-157600551D01*
X279941499Y-157480140D01*
X280452020Y-157480140D01*
X280962541Y-157480140D01*
X280962541Y-157593589D01*
G37*
G36*
X270796715Y-157848567D02*
G01*
X270828605Y-157850780D01*
X270840358Y-157854214D01*
X270836940Y-157865514D01*
X270825809Y-157898457D01*
X270807767Y-157950582D01*
X270783652Y-158019507D01*
X270754298Y-158102850D01*
X270720544Y-158198230D01*
X270683226Y-158303264D01*
X270643180Y-158415570D01*
X270446001Y-158967584D01*
X270299650Y-158967584D01*
X270153299Y-158967584D01*
X269961506Y-158428701D01*
X269929752Y-158339359D01*
X269892185Y-158233329D01*
X269857908Y-158136217D01*
X269827786Y-158050494D01*
X269802684Y-157978632D01*
X269783467Y-157923100D01*
X269771002Y-157886369D01*
X269766152Y-157870909D01*
X269766761Y-157864467D01*
X269776061Y-157858179D01*
X269798742Y-157854376D01*
X269838744Y-157852502D01*
X269900004Y-157852001D01*
X270037418Y-157852001D01*
X270162593Y-158255376D01*
X270183981Y-158324017D01*
X270212689Y-158415246D01*
X270238665Y-158496744D01*
X270260973Y-158565636D01*
X270278682Y-158619049D01*
X270290857Y-158654109D01*
X270296566Y-158667942D01*
X270300611Y-158662053D01*
X270311489Y-158635062D01*
X270328024Y-158588793D01*
X270349312Y-158525928D01*
X270374447Y-158449148D01*
X270402525Y-158361134D01*
X270432643Y-158264568D01*
X270559923Y-157852001D01*
X270700141Y-157848437D01*
X270749743Y-157847783D01*
X270796715Y-157848567D01*
G37*
G36*
X277861598Y-158223862D02*
G01*
X277861598Y-158967584D01*
X277729241Y-158967584D01*
X277596884Y-158967584D01*
X277596884Y-158715475D01*
X277596884Y-158463366D01*
X277398348Y-158463216D01*
X277304128Y-158462053D01*
X277225001Y-158457912D01*
X277160717Y-158449852D01*
X277106015Y-158436934D01*
X277055636Y-158418217D01*
X277004319Y-158392760D01*
X276941084Y-158349580D01*
X276874722Y-158278833D01*
X276824727Y-158193201D01*
X276792584Y-158096184D01*
X276779777Y-157991284D01*
X276781864Y-157962810D01*
X277057569Y-157962810D01*
X277063996Y-158043899D01*
X277091510Y-158114839D01*
X277138503Y-158172596D01*
X277203371Y-158214130D01*
X277234321Y-158225046D01*
X277278726Y-158234131D01*
X277338312Y-158240624D01*
X277418081Y-158245250D01*
X277425379Y-158245553D01*
X277485773Y-158247209D01*
X277536317Y-158247139D01*
X277571905Y-158245437D01*
X277587430Y-158242195D01*
X277588251Y-158240341D01*
X277591000Y-158218896D01*
X277593372Y-158177218D01*
X277595233Y-158119194D01*
X277596449Y-158048710D01*
X277596884Y-157969652D01*
X277596884Y-157707038D01*
X277442467Y-157707109D01*
X277382186Y-157708035D01*
X277321922Y-157710759D01*
X277273039Y-157714843D01*
X277242448Y-157719846D01*
X277175560Y-157747724D01*
X277118366Y-157795444D01*
X277079495Y-157860309D01*
X277059388Y-157941788D01*
X277057569Y-157962810D01*
X276781864Y-157962810D01*
X276787788Y-157881999D01*
X276797692Y-157835666D01*
X276836041Y-157733113D01*
X276893492Y-157646168D01*
X276968685Y-157576225D01*
X277060263Y-157524679D01*
X277166867Y-157492922D01*
X277184963Y-157490545D01*
X277230709Y-157487196D01*
X277294337Y-157484332D01*
X277371415Y-157482102D01*
X277457508Y-157480655D01*
X277548182Y-157480140D01*
X277861598Y-157480140D01*
X277861598Y-157969652D01*
X277861598Y-158223862D01*
G37*
G36*
X263621327Y-157474417D02*
G01*
X263718695Y-157506057D01*
X263804983Y-157553195D01*
X263877554Y-157614103D01*
X263933772Y-157687054D01*
X263971002Y-157770320D01*
X263986609Y-157862173D01*
X263989291Y-157927634D01*
X263866168Y-157931244D01*
X263819691Y-157932583D01*
X263778034Y-157932220D01*
X263752737Y-157927013D01*
X263738806Y-157914282D01*
X263731244Y-157891346D01*
X263725057Y-157855524D01*
X263720727Y-157836553D01*
X263692649Y-157780772D01*
X263646788Y-157735442D01*
X263587910Y-157702698D01*
X263520783Y-157684676D01*
X263450172Y-157683510D01*
X263380844Y-157701337D01*
X263334257Y-157725534D01*
X263281318Y-157773090D01*
X263249737Y-157833963D01*
X263239266Y-157908519D01*
X263239597Y-157927645D01*
X263242408Y-157958840D01*
X263249400Y-157988984D01*
X263262135Y-158020126D01*
X263282179Y-158054314D01*
X263311095Y-158093597D01*
X263350446Y-158140024D01*
X263401797Y-158195645D01*
X263466710Y-158262507D01*
X263546750Y-158342661D01*
X263643481Y-158438155D01*
X263983156Y-158772200D01*
X263983072Y-158869892D01*
X263982988Y-158967584D01*
X263466164Y-158967584D01*
X262949340Y-158967584D01*
X262949340Y-158854135D01*
X262949340Y-158740686D01*
X263277082Y-158740686D01*
X263358642Y-158740465D01*
X263438442Y-158739770D01*
X263506270Y-158738673D01*
X263558816Y-158737243D01*
X263592770Y-158735551D01*
X263604824Y-158733668D01*
X263604798Y-158733539D01*
X263595305Y-158722274D01*
X263570297Y-158695786D01*
X263532080Y-158656429D01*
X263482959Y-158606560D01*
X263425239Y-158548535D01*
X263361226Y-158484710D01*
X263265796Y-158388364D01*
X263182008Y-158299487D01*
X263114802Y-158222068D01*
X263062712Y-158153739D01*
X263024268Y-158092130D01*
X262998003Y-158034872D01*
X262982449Y-157979596D01*
X262976139Y-157923933D01*
X262977604Y-157865512D01*
X262996259Y-157768820D01*
X263036880Y-157679548D01*
X263097576Y-157603211D01*
X263176758Y-157541365D01*
X263272839Y-157495565D01*
X263384229Y-157467367D01*
X263403890Y-157464539D01*
X263515513Y-157460002D01*
X263621327Y-157474417D01*
G37*
G36*
X266230657Y-157474417D02*
G01*
X266328025Y-157506057D01*
X266414313Y-157553195D01*
X266486884Y-157614103D01*
X266543102Y-157687054D01*
X266580332Y-157770320D01*
X266595939Y-157862173D01*
X266598621Y-157927634D01*
X266475498Y-157931244D01*
X266429021Y-157932583D01*
X266387364Y-157932220D01*
X266362067Y-157927013D01*
X266348136Y-157914282D01*
X266340574Y-157891346D01*
X266334387Y-157855524D01*
X266330057Y-157836553D01*
X266301980Y-157780772D01*
X266256118Y-157735442D01*
X266197241Y-157702698D01*
X266130113Y-157684676D01*
X266059502Y-157683510D01*
X265990174Y-157701337D01*
X265943587Y-157725534D01*
X265890648Y-157773090D01*
X265859068Y-157833963D01*
X265848596Y-157908519D01*
X265848927Y-157927645D01*
X265851738Y-157958840D01*
X265858730Y-157988984D01*
X265871466Y-158020126D01*
X265891509Y-158054314D01*
X265920425Y-158093597D01*
X265959776Y-158140024D01*
X266011127Y-158195645D01*
X266076040Y-158262507D01*
X266156080Y-158342661D01*
X266252811Y-158438155D01*
X266592486Y-158772200D01*
X266592402Y-158869892D01*
X266592318Y-158967584D01*
X266075494Y-158967584D01*
X265558670Y-158967584D01*
X265558670Y-158854135D01*
X265558670Y-158740686D01*
X265886412Y-158740686D01*
X265967973Y-158740465D01*
X266047772Y-158739770D01*
X266115600Y-158738673D01*
X266168146Y-158737243D01*
X266202100Y-158735551D01*
X266214154Y-158733668D01*
X266214128Y-158733539D01*
X266204635Y-158722274D01*
X266179627Y-158695786D01*
X266141410Y-158656429D01*
X266092289Y-158606560D01*
X266034569Y-158548535D01*
X265970556Y-158484710D01*
X265875126Y-158388364D01*
X265791338Y-158299487D01*
X265724132Y-158222068D01*
X265672042Y-158153739D01*
X265633598Y-158092130D01*
X265607333Y-158034872D01*
X265591779Y-157979596D01*
X265585469Y-157923933D01*
X265586934Y-157865512D01*
X265605589Y-157768820D01*
X265646210Y-157679548D01*
X265706906Y-157603211D01*
X265786088Y-157541365D01*
X265882169Y-157495565D01*
X265993559Y-157467367D01*
X266013220Y-157464539D01*
X266124843Y-157460002D01*
X266230657Y-157474417D01*
G37*
G36*
X273248000Y-158223862D02*
G01*
X273248000Y-158967584D01*
X273115643Y-158967584D01*
X272983286Y-158967584D01*
X272983286Y-158696154D01*
X272983286Y-158424724D01*
X272842741Y-158428288D01*
X272702197Y-158431852D01*
X272559956Y-158696567D01*
X272417715Y-158961281D01*
X272264623Y-158964829D01*
X272260463Y-158964922D01*
X272202965Y-158965416D01*
X272156857Y-158964383D01*
X272126742Y-158962021D01*
X272117220Y-158958526D01*
X272122423Y-158949442D01*
X272144508Y-158910015D01*
X272173351Y-158857640D01*
X272207070Y-158795824D01*
X272243782Y-158728076D01*
X272281603Y-158657903D01*
X272318652Y-158588815D01*
X272353045Y-158524319D01*
X272382899Y-158467924D01*
X272406331Y-158423138D01*
X272421460Y-158393469D01*
X272426401Y-158382426D01*
X272423724Y-158380691D01*
X272405063Y-158369218D01*
X272375621Y-158351417D01*
X272367662Y-158346414D01*
X272315451Y-158304449D01*
X272264936Y-158250470D01*
X272222915Y-158192536D01*
X272196184Y-158138702D01*
X272175129Y-158059686D01*
X272165837Y-157959147D01*
X272447629Y-157959147D01*
X272450474Y-158008616D01*
X272467390Y-158072027D01*
X272501570Y-158121243D01*
X272555345Y-158160626D01*
X272578220Y-158172443D01*
X272602210Y-158181443D01*
X272631021Y-158187607D01*
X272669751Y-158191692D01*
X272723497Y-158194458D01*
X272797355Y-158196665D01*
X272983286Y-158201399D01*
X272983286Y-157953037D01*
X272983286Y-157704674D01*
X272803270Y-157709008D01*
X272745470Y-157710602D01*
X272688111Y-157713210D01*
X272646451Y-157717151D01*
X272615101Y-157723229D01*
X272588671Y-157732246D01*
X272561772Y-157745008D01*
X272516607Y-157774250D01*
X272476939Y-157820617D01*
X272454593Y-157881037D01*
X272447629Y-157959147D01*
X272165837Y-157959147D01*
X272165175Y-157951980D01*
X272176325Y-157848538D01*
X272207467Y-157752477D01*
X272257491Y-157666911D01*
X272325284Y-157594959D01*
X272409737Y-157539737D01*
X272410449Y-157539384D01*
X272448258Y-157522198D01*
X272486701Y-157508615D01*
X272529287Y-157498230D01*
X272579524Y-157490640D01*
X272640923Y-157485440D01*
X272716992Y-157482226D01*
X272811242Y-157480594D01*
X272927182Y-157480140D01*
X273248000Y-157480140D01*
X273248000Y-157953037D01*
X273248000Y-158223862D01*
G37*
G36*
X257812097Y-158228966D02*
G01*
X257811728Y-158312046D01*
X257810220Y-158375773D01*
X257807070Y-158425703D01*
X257801776Y-158467388D01*
X257793835Y-158506383D01*
X257782745Y-158548242D01*
X257768587Y-158593439D01*
X257718035Y-158709138D01*
X257652689Y-158806238D01*
X257573532Y-158883700D01*
X257481550Y-158940487D01*
X257377727Y-158975559D01*
X257332765Y-158983815D01*
X257214277Y-158989998D01*
X257103594Y-158972957D01*
X257002339Y-158933689D01*
X256912135Y-158873190D01*
X256834603Y-158792456D01*
X256771366Y-158692483D01*
X256724048Y-158574267D01*
X256720661Y-158562915D01*
X256692931Y-158437764D01*
X256679090Y-158304978D01*
X256678824Y-158216418D01*
X256950325Y-158216418D01*
X256955331Y-158339800D01*
X256972268Y-158456667D01*
X257001243Y-158560077D01*
X257029536Y-158618500D01*
X257074447Y-158678691D01*
X257127153Y-158724973D01*
X257182384Y-158751770D01*
X257217659Y-158759360D01*
X257292941Y-158759179D01*
X257360676Y-158735237D01*
X257419781Y-158688037D01*
X257469172Y-158618085D01*
X257472653Y-158611573D01*
X257504537Y-158536276D01*
X257526362Y-158449292D01*
X257538895Y-158346521D01*
X257542902Y-158223862D01*
X257536861Y-158084280D01*
X257518269Y-157963736D01*
X257487078Y-157864788D01*
X257443240Y-157787292D01*
X257386710Y-157731098D01*
X257374945Y-157723063D01*
X257308126Y-157693520D01*
X257238891Y-157686720D01*
X257170959Y-157701373D01*
X257108047Y-157736187D01*
X257053872Y-157789873D01*
X257012151Y-157861139D01*
X257005810Y-157876601D01*
X256975673Y-157977876D01*
X256957142Y-158093463D01*
X256950325Y-158216418D01*
X256678824Y-158216418D01*
X256678684Y-158169597D01*
X256691262Y-158036660D01*
X256716370Y-157911207D01*
X256753556Y-157798276D01*
X256802366Y-157702906D01*
X256854413Y-157634274D01*
X256933911Y-157561803D01*
X257023487Y-157508756D01*
X257120024Y-157474939D01*
X257220406Y-157460160D01*
X257321517Y-157464224D01*
X257420240Y-157486937D01*
X257513458Y-157528108D01*
X257598056Y-157587541D01*
X257670918Y-157665045D01*
X257728925Y-157760424D01*
X257740150Y-157784505D01*
X257766303Y-157846810D01*
X257785435Y-157905931D01*
X257798564Y-157967533D01*
X257806706Y-158037280D01*
X257810877Y-158120835D01*
X257812095Y-158223862D01*
X257812097Y-158228966D01*
G37*
G36*
X261442470Y-158228966D02*
G01*
X261442100Y-158312046D01*
X261440592Y-158375773D01*
X261437442Y-158425703D01*
X261432148Y-158467388D01*
X261424207Y-158506383D01*
X261413117Y-158548242D01*
X261398959Y-158593439D01*
X261348407Y-158709138D01*
X261283061Y-158806238D01*
X261203904Y-158883700D01*
X261111922Y-158940487D01*
X261008100Y-158975559D01*
X260963137Y-158983815D01*
X260844649Y-158989998D01*
X260733966Y-158972957D01*
X260632711Y-158933689D01*
X260542507Y-158873190D01*
X260464975Y-158792456D01*
X260401739Y-158692483D01*
X260354420Y-158574267D01*
X260351034Y-158562915D01*
X260323303Y-158437764D01*
X260309462Y-158304978D01*
X260309197Y-158216418D01*
X260580698Y-158216418D01*
X260585703Y-158339800D01*
X260602640Y-158456667D01*
X260631615Y-158560077D01*
X260659908Y-158618500D01*
X260704819Y-158678691D01*
X260757525Y-158724973D01*
X260812757Y-158751770D01*
X260848031Y-158759360D01*
X260923313Y-158759179D01*
X260991048Y-158735237D01*
X261050153Y-158688037D01*
X261099544Y-158618085D01*
X261103025Y-158611573D01*
X261134909Y-158536276D01*
X261156735Y-158449292D01*
X261169267Y-158346521D01*
X261173275Y-158223862D01*
X261167233Y-158084280D01*
X261148641Y-157963736D01*
X261117450Y-157864788D01*
X261073612Y-157787292D01*
X261017082Y-157731098D01*
X261005318Y-157723063D01*
X260938498Y-157693520D01*
X260869263Y-157686720D01*
X260801331Y-157701373D01*
X260738419Y-157736187D01*
X260684244Y-157789873D01*
X260642523Y-157861139D01*
X260636182Y-157876601D01*
X260606045Y-157977876D01*
X260587514Y-158093463D01*
X260580698Y-158216418D01*
X260309197Y-158216418D01*
X260309057Y-158169597D01*
X260321634Y-158036660D01*
X260346743Y-157911207D01*
X260383928Y-157798276D01*
X260432738Y-157702906D01*
X260484785Y-157634274D01*
X260564283Y-157561803D01*
X260653859Y-157508756D01*
X260750396Y-157474939D01*
X260850778Y-157460160D01*
X260951889Y-157464224D01*
X261050612Y-157486937D01*
X261143831Y-157528108D01*
X261228429Y-157587541D01*
X261301290Y-157665045D01*
X261359298Y-157760424D01*
X261370523Y-157784505D01*
X261396675Y-157846810D01*
X261415807Y-157905931D01*
X261428936Y-157967533D01*
X261437078Y-158037280D01*
X261441249Y-158120835D01*
X261442467Y-158223862D01*
X261442470Y-158228966D01*
G37*
G36*
X265350162Y-158228966D02*
G01*
X265349793Y-158312046D01*
X265348284Y-158375773D01*
X265345135Y-158425703D01*
X265339840Y-158467388D01*
X265331900Y-158506383D01*
X265320810Y-158548242D01*
X265306651Y-158593439D01*
X265256099Y-158709138D01*
X265190753Y-158806238D01*
X265111597Y-158883700D01*
X265019615Y-158940487D01*
X264915792Y-158975559D01*
X264870829Y-158983815D01*
X264752341Y-158989998D01*
X264641659Y-158972957D01*
X264540404Y-158933689D01*
X264450199Y-158873190D01*
X264372667Y-158792456D01*
X264309431Y-158692483D01*
X264262112Y-158574267D01*
X264258726Y-158562915D01*
X264230996Y-158437764D01*
X264217154Y-158304978D01*
X264216889Y-158216418D01*
X264488390Y-158216418D01*
X264493396Y-158339800D01*
X264510332Y-158456667D01*
X264539308Y-158560077D01*
X264567600Y-158618500D01*
X264612511Y-158678691D01*
X264665217Y-158724973D01*
X264720449Y-158751770D01*
X264755724Y-158759360D01*
X264831006Y-158759179D01*
X264898741Y-158735237D01*
X264957846Y-158688037D01*
X265007236Y-158618085D01*
X265010717Y-158611573D01*
X265042602Y-158536276D01*
X265064427Y-158449292D01*
X265076960Y-158346521D01*
X265080967Y-158223862D01*
X265074926Y-158084280D01*
X265056333Y-157963736D01*
X265025142Y-157864788D01*
X264981305Y-157787292D01*
X264924774Y-157731098D01*
X264913010Y-157723063D01*
X264846190Y-157693520D01*
X264776956Y-157686720D01*
X264709024Y-157701373D01*
X264646112Y-157736187D01*
X264591936Y-157789873D01*
X264550216Y-157861139D01*
X264543874Y-157876601D01*
X264513738Y-157977876D01*
X264495207Y-158093463D01*
X264488390Y-158216418D01*
X264216889Y-158216418D01*
X264216749Y-158169597D01*
X264229327Y-158036660D01*
X264254435Y-157911207D01*
X264291621Y-157798276D01*
X264340431Y-157702906D01*
X264392477Y-157634274D01*
X264471975Y-157561803D01*
X264561551Y-157508756D01*
X264658088Y-157474939D01*
X264758471Y-157460160D01*
X264859581Y-157464224D01*
X264958304Y-157486937D01*
X265051523Y-157528108D01*
X265136121Y-157587541D01*
X265208982Y-157665045D01*
X265266990Y-157760424D01*
X265278215Y-157784505D01*
X265304367Y-157846810D01*
X265323499Y-157905931D01*
X265336628Y-157967533D01*
X265344770Y-158037280D01*
X265348942Y-158120835D01*
X265350159Y-158223862D01*
X265350162Y-158228966D01*
G37*
G36*
X271989073Y-158289877D02*
G01*
X271999655Y-158412944D01*
X271997157Y-158478196D01*
X271977168Y-158600773D01*
X271937856Y-158709033D01*
X271880029Y-158801832D01*
X271804492Y-158878024D01*
X271712050Y-158936463D01*
X271603510Y-158976005D01*
X271555334Y-158984571D01*
X271475430Y-158988972D01*
X271389518Y-158985196D01*
X271307724Y-158973818D01*
X271240174Y-158955412D01*
X271187268Y-158931589D01*
X271113417Y-158884651D01*
X271052132Y-158828718D01*
X271007562Y-158767829D01*
X270983859Y-158706021D01*
X270975866Y-158665053D01*
X271102047Y-158665053D01*
X271119770Y-158665066D01*
X271171565Y-158665658D01*
X271205024Y-158668013D01*
X271225565Y-158673328D01*
X271238606Y-158682800D01*
X271249568Y-158697623D01*
X271267417Y-158718504D01*
X271315698Y-158749980D01*
X271379082Y-158770569D01*
X271451722Y-158777949D01*
X271524099Y-158770715D01*
X271600334Y-158742900D01*
X271662374Y-158694826D01*
X271679689Y-158672796D01*
X271707385Y-158622457D01*
X271727549Y-158567196D01*
X271735345Y-158518688D01*
X271735345Y-158488941D01*
X271347727Y-158485608D01*
X270960110Y-158482274D01*
X270963045Y-158381430D01*
X270965748Y-158326808D01*
X270969260Y-158299495D01*
X271215202Y-158299495D01*
X271475274Y-158299495D01*
X271497623Y-158299454D01*
X271573296Y-158298678D01*
X271638620Y-158297034D01*
X271689879Y-158294680D01*
X271723360Y-158291775D01*
X271735345Y-158288474D01*
X271734507Y-158282900D01*
X271727584Y-158257675D01*
X271715947Y-158222474D01*
X271685854Y-158162384D01*
X271639022Y-158110530D01*
X271581955Y-158074494D01*
X271518535Y-158054074D01*
X271452647Y-158049068D01*
X271388173Y-158059274D01*
X271328997Y-158084489D01*
X271279001Y-158124512D01*
X271242070Y-158179140D01*
X271222086Y-158248172D01*
X271215202Y-158299495D01*
X270969260Y-158299495D01*
X270977362Y-158236494D01*
X270999079Y-158157620D01*
X271032848Y-158081820D01*
X271040805Y-158067307D01*
X271102255Y-157984515D01*
X271181389Y-157919207D01*
X271277131Y-157872102D01*
X271388401Y-157843923D01*
X271462262Y-157837157D01*
X271572650Y-157845583D01*
X271674514Y-157875724D01*
X271765942Y-157925800D01*
X271845023Y-157994032D01*
X271909846Y-158078642D01*
X271958499Y-158177850D01*
X271988690Y-158288474D01*
X271989073Y-158289877D01*
G37*
G36*
X276064549Y-157472581D02*
G01*
X276149146Y-157491407D01*
X276245393Y-157531233D01*
X276349717Y-157598550D01*
X276439621Y-157685195D01*
X276512431Y-157788974D01*
X276545729Y-157857031D01*
X276584858Y-157976929D01*
X276607350Y-158107273D01*
X276613104Y-158242771D01*
X276602014Y-158378127D01*
X276573978Y-158508047D01*
X276528890Y-158627237D01*
X276524603Y-158635993D01*
X276462007Y-158735055D01*
X276381086Y-158822248D01*
X276286165Y-158894243D01*
X276181569Y-158947709D01*
X276071623Y-158979316D01*
X276064986Y-158980385D01*
X276015168Y-158985136D01*
X275953992Y-158987181D01*
X275893179Y-158986075D01*
X275813939Y-158977916D01*
X275692362Y-158947026D01*
X275583703Y-158895584D01*
X275489575Y-158824906D01*
X275411592Y-158736311D01*
X275351371Y-158631115D01*
X275310523Y-158510636D01*
X275302210Y-158475971D01*
X275438790Y-158475971D01*
X275575371Y-158475971D01*
X275604139Y-158545378D01*
X275626223Y-158589419D01*
X275679711Y-158655112D01*
X275750124Y-158702437D01*
X275836905Y-158731070D01*
X275939498Y-158740686D01*
X275964018Y-158740399D01*
X276014111Y-158736126D01*
X276057398Y-158724373D01*
X276106921Y-158702138D01*
X276135301Y-158686997D01*
X276193282Y-158646119D01*
X276239144Y-158594733D01*
X276280047Y-158525536D01*
X276281012Y-158523625D01*
X276307893Y-158460187D01*
X276325465Y-158392570D01*
X276335005Y-158313964D01*
X276337791Y-158217559D01*
X276332845Y-158122849D01*
X276311388Y-158008843D01*
X276273461Y-157911244D01*
X276219624Y-157831391D01*
X276150439Y-157770618D01*
X276126900Y-157755900D01*
X276059285Y-157724850D01*
X275987040Y-157710250D01*
X275901449Y-157709976D01*
X275840427Y-157718118D01*
X275753624Y-157747010D01*
X275681542Y-157794037D01*
X275626425Y-157857568D01*
X275590517Y-157935971D01*
X275576020Y-157984358D01*
X275439115Y-157984358D01*
X275302210Y-157984358D01*
X275309871Y-157949693D01*
X275314978Y-157928400D01*
X275344387Y-157839140D01*
X275384253Y-157753801D01*
X275430868Y-157679478D01*
X275480524Y-157623264D01*
X275491412Y-157613873D01*
X275559003Y-157566030D01*
X275638444Y-157522968D01*
X275718670Y-157490838D01*
X275772507Y-157477344D01*
X275866417Y-157465536D01*
X275967035Y-157463953D01*
X276064549Y-157472581D01*
G37*
G36*
X283022762Y-157472581D02*
G01*
X283107359Y-157491407D01*
X283203606Y-157531233D01*
X283307930Y-157598550D01*
X283397835Y-157685195D01*
X283470645Y-157788974D01*
X283503943Y-157857031D01*
X283543071Y-157976929D01*
X283565564Y-158107273D01*
X283571317Y-158242771D01*
X283560228Y-158378127D01*
X283532191Y-158508047D01*
X283487103Y-158627237D01*
X283482816Y-158635993D01*
X283420221Y-158735055D01*
X283339300Y-158822248D01*
X283244378Y-158894243D01*
X283139782Y-158947709D01*
X283029837Y-158979316D01*
X283023199Y-158980385D01*
X282973381Y-158985136D01*
X282912205Y-158987181D01*
X282851392Y-158986075D01*
X282772153Y-158977916D01*
X282650576Y-158947026D01*
X282541916Y-158895584D01*
X282447788Y-158824906D01*
X282369806Y-158736311D01*
X282309584Y-158631115D01*
X282268737Y-158510636D01*
X282260423Y-158475971D01*
X282397004Y-158475971D01*
X282533585Y-158475971D01*
X282562352Y-158545378D01*
X282584437Y-158589419D01*
X282637925Y-158655112D01*
X282708337Y-158702437D01*
X282795118Y-158731070D01*
X282897711Y-158740686D01*
X282922231Y-158740399D01*
X282972324Y-158736126D01*
X283015612Y-158724373D01*
X283065135Y-158702138D01*
X283093514Y-158686997D01*
X283151495Y-158646119D01*
X283197357Y-158594733D01*
X283238261Y-158525536D01*
X283239225Y-158523625D01*
X283266106Y-158460187D01*
X283283678Y-158392570D01*
X283293219Y-158313964D01*
X283296005Y-158217559D01*
X283291058Y-158122849D01*
X283269601Y-158008843D01*
X283231674Y-157911244D01*
X283177838Y-157831391D01*
X283108652Y-157770618D01*
X283085113Y-157755900D01*
X283017498Y-157724850D01*
X282945253Y-157710250D01*
X282859663Y-157709976D01*
X282798641Y-157718118D01*
X282711838Y-157747010D01*
X282639756Y-157794037D01*
X282584638Y-157857568D01*
X282548730Y-157935971D01*
X282534233Y-157984358D01*
X282397328Y-157984358D01*
X282260423Y-157984358D01*
X282268085Y-157949693D01*
X282273192Y-157928400D01*
X282302600Y-157839140D01*
X282342467Y-157753801D01*
X282389082Y-157679478D01*
X282438737Y-157623264D01*
X282449626Y-157613873D01*
X282517217Y-157566030D01*
X282596658Y-157522968D01*
X282676884Y-157490838D01*
X282730720Y-157477344D01*
X282824630Y-157465536D01*
X282925248Y-157463953D01*
X283022762Y-157472581D01*
G37*
G36*
X279732988Y-158223862D02*
G01*
X279732991Y-158228966D01*
X279732621Y-158312046D01*
X279731113Y-158375773D01*
X279727963Y-158425703D01*
X279722669Y-158467388D01*
X279714728Y-158506383D01*
X279703639Y-158548242D01*
X279689480Y-158593439D01*
X279638928Y-158709138D01*
X279573582Y-158806238D01*
X279494425Y-158883700D01*
X279402443Y-158940487D01*
X279298621Y-158975559D01*
X279253658Y-158983815D01*
X279135170Y-158989998D01*
X279024487Y-158972957D01*
X278923232Y-158933689D01*
X278833028Y-158873190D01*
X278755496Y-158792456D01*
X278692260Y-158692483D01*
X278644941Y-158574267D01*
X278641555Y-158562915D01*
X278613824Y-158437764D01*
X278599983Y-158304978D01*
X278599721Y-158217559D01*
X278870725Y-158217559D01*
X278871511Y-158267654D01*
X278882267Y-158393150D01*
X278905084Y-158502817D01*
X278939277Y-158595083D01*
X278984163Y-158668378D01*
X279039058Y-158721130D01*
X279103278Y-158751770D01*
X279107555Y-158752926D01*
X279184847Y-158762011D01*
X279254974Y-158747505D01*
X279316942Y-158710227D01*
X279369759Y-158651000D01*
X279412432Y-158570645D01*
X279443967Y-158469982D01*
X279444178Y-158469070D01*
X279455116Y-158400773D01*
X279461665Y-158316035D01*
X279463825Y-158223109D01*
X279461595Y-158130250D01*
X279454976Y-158045710D01*
X279443967Y-157977742D01*
X279442997Y-157973612D01*
X279411412Y-157875910D01*
X279368409Y-157797076D01*
X279315389Y-157738302D01*
X279253754Y-157700778D01*
X279184905Y-157685695D01*
X279110244Y-157694243D01*
X279089198Y-157701089D01*
X279025629Y-157738545D01*
X278971971Y-157797527D01*
X278928939Y-157876479D01*
X278897245Y-157973840D01*
X278877602Y-158088053D01*
X278870725Y-158217559D01*
X278599721Y-158217559D01*
X278599578Y-158169597D01*
X278612156Y-158036660D01*
X278637264Y-157911207D01*
X278674449Y-157798276D01*
X278723259Y-157702906D01*
X278775306Y-157634274D01*
X278854804Y-157561803D01*
X278944380Y-157508756D01*
X279040917Y-157474939D01*
X279141299Y-157460160D01*
X279242410Y-157464224D01*
X279341133Y-157486937D01*
X279434352Y-157528108D01*
X279518950Y-157587541D01*
X279591811Y-157665045D01*
X279649819Y-157760424D01*
X279661044Y-157784505D01*
X279687196Y-157846810D01*
X279706328Y-157905931D01*
X279719457Y-157967533D01*
X279727599Y-158037280D01*
X279731770Y-158120835D01*
X279732979Y-158223109D01*
X279732988Y-158223862D01*
G37*
G36*
X262614563Y-157508502D02*
G01*
X262616547Y-157521305D01*
X262621107Y-157557667D01*
X262627437Y-157612287D01*
X262635123Y-157681226D01*
X262643754Y-157760549D01*
X262652916Y-157846320D01*
X262662195Y-157934602D01*
X262671180Y-158021459D01*
X262679457Y-158102954D01*
X262686614Y-158175152D01*
X262692237Y-158234116D01*
X262695914Y-158275909D01*
X262697231Y-158296595D01*
X262697224Y-158298267D01*
X262695547Y-158310790D01*
X262687623Y-158318568D01*
X262668711Y-158322729D01*
X262634071Y-158324399D01*
X262578962Y-158324706D01*
X262460693Y-158324706D01*
X262411656Y-158275668D01*
X262367065Y-158239641D01*
X262296174Y-158208874D01*
X262211838Y-158198722D01*
X262193693Y-158199153D01*
X262109281Y-158214424D01*
X262037038Y-158249861D01*
X261979600Y-158303161D01*
X261939600Y-158372021D01*
X261919673Y-158454139D01*
X261920233Y-158531484D01*
X261941175Y-158609335D01*
X261981691Y-158674023D01*
X262039643Y-158723172D01*
X262112897Y-158754404D01*
X262199315Y-158765343D01*
X262246834Y-158762038D01*
X262320166Y-158742513D01*
X262381334Y-158707681D01*
X262426383Y-158660100D01*
X262451358Y-158602328D01*
X262459731Y-158564210D01*
X262592697Y-158564210D01*
X262725664Y-158564210D01*
X262717365Y-158617783D01*
X262708519Y-158659305D01*
X262672071Y-158747380D01*
X262614720Y-158824963D01*
X262538662Y-158889985D01*
X262446095Y-158940376D01*
X262339213Y-158974067D01*
X262338375Y-158974249D01*
X262217376Y-158989663D01*
X262103324Y-158983602D01*
X261998036Y-158958001D01*
X261903330Y-158914795D01*
X261821023Y-158855920D01*
X261752933Y-158783311D01*
X261700878Y-158698904D01*
X261666674Y-158604634D01*
X261652139Y-158502437D01*
X261659091Y-158394248D01*
X261689348Y-158282002D01*
X261707130Y-158241366D01*
X261760632Y-158160196D01*
X261830181Y-158093021D01*
X261911968Y-158041107D01*
X262002187Y-158005724D01*
X262097030Y-157988139D01*
X262192690Y-157989621D01*
X262285359Y-158011439D01*
X262371230Y-158054860D01*
X262435822Y-158098327D01*
X262428640Y-158050797D01*
X262425180Y-158025217D01*
X262419407Y-157977879D01*
X262412606Y-157918788D01*
X262405624Y-157855152D01*
X262389790Y-157707038D01*
X262058201Y-157707038D01*
X261726611Y-157707038D01*
X261726611Y-157593589D01*
X261726611Y-157480140D01*
X262167562Y-157480140D01*
X262608513Y-157480140D01*
X262614563Y-157508502D01*
G37*
G36*
X260108263Y-158020902D02*
G01*
X260089320Y-158119530D01*
X260051899Y-158211850D01*
X259996236Y-158294004D01*
X259922567Y-158362133D01*
X259881000Y-158389628D01*
X259801435Y-158426673D01*
X259715175Y-158445464D01*
X259615196Y-158447962D01*
X259526249Y-158438143D01*
X259444175Y-158413285D01*
X259371459Y-158370758D01*
X259301386Y-158307557D01*
X259239684Y-158242770D01*
X259248741Y-158335839D01*
X259254142Y-158380145D01*
X259275021Y-158480467D01*
X259305616Y-158567565D01*
X259344142Y-158635826D01*
X259395039Y-158687983D01*
X259463068Y-158727822D01*
X259539027Y-158749089D01*
X259617070Y-158750208D01*
X259691351Y-158729597D01*
X259712447Y-158718416D01*
X259759490Y-158682255D01*
X259797194Y-158638446D01*
X259818254Y-158594752D01*
X259820723Y-158585945D01*
X259826790Y-158575508D01*
X259839439Y-158569095D01*
X259863328Y-158565728D01*
X259903114Y-158564426D01*
X259963453Y-158564210D01*
X260100987Y-158564210D01*
X260092523Y-158598875D01*
X260089858Y-158609432D01*
X260050104Y-158718980D01*
X259992774Y-158810529D01*
X259918105Y-158883841D01*
X259826334Y-158938679D01*
X259717697Y-158974805D01*
X259650301Y-158985040D01*
X259554840Y-158986772D01*
X259459839Y-158976259D01*
X259376436Y-158954174D01*
X259300968Y-158917766D01*
X259214915Y-158852449D01*
X259140852Y-158767709D01*
X259079727Y-158665556D01*
X259032491Y-158548000D01*
X259000094Y-158417052D01*
X258983486Y-158274721D01*
X258983617Y-158123018D01*
X258989893Y-158043910D01*
X259002456Y-157963630D01*
X259281152Y-157963630D01*
X259281263Y-157972821D01*
X259293185Y-158050143D01*
X259326190Y-158116809D01*
X259382298Y-158177078D01*
X259400297Y-158190945D01*
X259445976Y-158218098D01*
X259489159Y-158235157D01*
X259557315Y-158246264D01*
X259634703Y-158240009D01*
X259704345Y-158210409D01*
X259768657Y-158156786D01*
X259784147Y-158139133D01*
X259825012Y-158071367D01*
X259844583Y-157998960D01*
X259844289Y-157925798D01*
X259825560Y-157855761D01*
X259789824Y-157792734D01*
X259738510Y-157740600D01*
X259673047Y-157703240D01*
X259594865Y-157684539D01*
X259516588Y-157686188D01*
X259439314Y-157708501D01*
X259374328Y-157749898D01*
X259324434Y-157807883D01*
X259292440Y-157879959D01*
X259281152Y-157963630D01*
X259002456Y-157963630D01*
X259008734Y-157923512D01*
X259038876Y-157820036D01*
X259081672Y-157729324D01*
X259138475Y-157647220D01*
X259189510Y-157594230D01*
X259274107Y-157534749D01*
X259370411Y-157492564D01*
X259474393Y-157467843D01*
X259582026Y-157460757D01*
X259689280Y-157471476D01*
X259792126Y-157500171D01*
X259886536Y-157547010D01*
X259968481Y-157612166D01*
X259994528Y-157640493D01*
X260051860Y-157725762D01*
X260089769Y-157820160D01*
X260108491Y-157919826D01*
X260108312Y-157998960D01*
X260108263Y-158020902D01*
G37*
G36*
X275075792Y-158223862D02*
G01*
X275075792Y-158527456D01*
X275075792Y-158967584D01*
X274719185Y-158967584D01*
X274633121Y-158967426D01*
X274536492Y-158966637D01*
X274459635Y-158965059D01*
X274399425Y-158962550D01*
X274352739Y-158958968D01*
X274316454Y-158954172D01*
X274287448Y-158948021D01*
X274219482Y-158925697D01*
X274128310Y-158876699D01*
X274055217Y-158810825D01*
X274001109Y-158728770D01*
X273985707Y-158686564D01*
X273973449Y-158615040D01*
X273971837Y-158541428D01*
X274244882Y-158541428D01*
X274256023Y-158606571D01*
X274289586Y-158663242D01*
X274344718Y-158708491D01*
X274346073Y-158709280D01*
X274365379Y-158718858D01*
X274388065Y-158725873D01*
X274418498Y-158730839D01*
X274461043Y-158734272D01*
X274520067Y-158736686D01*
X274599936Y-158738597D01*
X274811077Y-158742811D01*
X274811077Y-158527456D01*
X274811077Y-158312100D01*
X274630179Y-158312100D01*
X274592780Y-158312340D01*
X274498436Y-158316175D01*
X274424563Y-158325610D01*
X274367865Y-158341838D01*
X274325045Y-158366052D01*
X274292805Y-158399445D01*
X274267850Y-158443211D01*
X274257020Y-158470762D01*
X274244882Y-158541428D01*
X273971837Y-158541428D01*
X273971737Y-158536868D01*
X273980600Y-158461495D01*
X274000069Y-158398368D01*
X274007749Y-158382752D01*
X274060034Y-158308630D01*
X274129178Y-158250539D01*
X274210701Y-158212434D01*
X274226897Y-158207384D01*
X274260639Y-158196119D01*
X274274187Y-158188679D01*
X274270483Y-158182403D01*
X274252465Y-158174631D01*
X274225717Y-158164948D01*
X274210617Y-158160835D01*
X274204152Y-158158039D01*
X274181503Y-158144417D01*
X274149667Y-158123277D01*
X274118266Y-158098107D01*
X274069047Y-158035256D01*
X274039665Y-157957374D01*
X274036216Y-157922730D01*
X274296577Y-157922730D01*
X274314054Y-157983947D01*
X274352718Y-158037113D01*
X274410940Y-158078152D01*
X274431414Y-158087940D01*
X274458004Y-158098165D01*
X274486727Y-158104725D01*
X274523352Y-158108419D01*
X274573646Y-158110048D01*
X274643379Y-158110413D01*
X274811077Y-158110413D01*
X274811077Y-157908726D01*
X274811077Y-157707038D01*
X274642785Y-157707038D01*
X274625650Y-157707089D01*
X274532365Y-157709963D01*
X274460021Y-157718162D01*
X274405191Y-157732952D01*
X274364451Y-157755600D01*
X274334374Y-157787373D01*
X274311537Y-157829537D01*
X274301919Y-157857541D01*
X274296577Y-157922730D01*
X274036216Y-157922730D01*
X274030498Y-157865283D01*
X274032800Y-157817474D01*
X274038501Y-157769653D01*
X274046255Y-157736232D01*
X274048197Y-157731120D01*
X274086310Y-157660723D01*
X274139783Y-157598531D01*
X274201421Y-157553036D01*
X274219679Y-157543371D01*
X274259224Y-157524657D01*
X274299106Y-157509985D01*
X274342878Y-157498879D01*
X274394091Y-157490861D01*
X274456297Y-157485455D01*
X274533049Y-157482185D01*
X274627898Y-157480572D01*
X274744396Y-157480140D01*
X275075792Y-157480140D01*
X275075792Y-157908726D01*
X275075792Y-158223862D01*
G37*
%TD*%
D11*
%TO.C,S45*%
X271145000Y-149225000D03*
D12*
X276225000Y-149225000D03*
D11*
X281305000Y-149225000D03*
D13*
X272415000Y-146685000D03*
X278765000Y-144145000D03*
%TD*%
D11*
%TO.C,S53*%
X185420000Y-168275000D03*
D12*
X190500000Y-168275000D03*
D11*
X195580000Y-168275000D03*
D13*
X186690000Y-165735000D03*
X193040000Y-163195000D03*
%TD*%
D11*
%TO.C,S10*%
X218757500Y-111125000D03*
D12*
X223837500Y-111125000D03*
D11*
X228917500Y-111125000D03*
D13*
X220027500Y-108585000D03*
X226377500Y-106045000D03*
%TD*%
D11*
%TO.C,S9*%
X199707500Y-111125000D03*
D12*
X204787500Y-111125000D03*
D11*
X209867500Y-111125000D03*
D13*
X200977500Y-108585000D03*
X207327500Y-106045000D03*
%TD*%
D11*
%TO.C,S18*%
X42545000Y-134937500D03*
D12*
X47625000Y-134937500D03*
D11*
X52705000Y-134937500D03*
D13*
X43815000Y-132397500D03*
X50165000Y-129857500D03*
%TD*%
D11*
%TO.C,S16*%
X333057500Y-111125000D03*
D12*
X338137500Y-111125000D03*
D11*
X343217500Y-111125000D03*
D13*
X334327500Y-108585000D03*
X340677500Y-106045000D03*
%TD*%
D11*
%TO.C,S35*%
X73501250Y-149225000D03*
D12*
X78581250Y-149225000D03*
D11*
X83661250Y-149225000D03*
D13*
X74771250Y-146685000D03*
X81121250Y-144145000D03*
%TD*%
D11*
%TO.C,S61*%
X68738750Y-187325000D03*
D12*
X73818750Y-187325000D03*
D11*
X78898750Y-187325000D03*
D13*
X70008750Y-184785000D03*
X76358750Y-182245000D03*
%TD*%
D14*
%TO.C,LED1*%
X46355000Y-174625000D03*
D15*
X48895000Y-174625000D03*
%TD*%
D11*
%TO.C,S3*%
X85407500Y-111125000D03*
D12*
X90487500Y-111125000D03*
D11*
X95567500Y-111125000D03*
D13*
X86677500Y-108585000D03*
X93027500Y-106045000D03*
%TD*%
D11*
%TO.C,S64*%
X190182500Y-187325000D03*
D16*
X191452500Y-184785000D03*
D12*
X195262500Y-187325000D03*
D16*
X197802500Y-182245000D03*
D11*
X200342500Y-187325000D03*
D17*
X188177500Y-184785000D03*
X201104500Y-182245000D03*
%TD*%
D11*
%TO.C,S49*%
X109220000Y-168275000D03*
D12*
X114300000Y-168275000D03*
D11*
X119380000Y-168275000D03*
D13*
X110490000Y-165735000D03*
X116840000Y-163195000D03*
%TD*%
D11*
%TO.C,S50*%
X128270000Y-168275000D03*
D12*
X133350000Y-168275000D03*
D11*
X138430000Y-168275000D03*
D13*
X129540000Y-165735000D03*
X135890000Y-163195000D03*
%TD*%
D11*
%TO.C,S1*%
X42545000Y-111125000D03*
D12*
X47625000Y-111125000D03*
D11*
X52705000Y-111125000D03*
D13*
X43815000Y-108585000D03*
X50165000Y-106045000D03*
%TD*%
D11*
%TO.C,S33*%
X356870000Y-130175000D03*
D12*
X361950000Y-130175000D03*
D11*
X367030000Y-130175000D03*
D13*
X358140000Y-127635000D03*
X364490000Y-125095000D03*
%TD*%
D11*
%TO.C,S55*%
X223520000Y-168275000D03*
D12*
X228600000Y-168275000D03*
D11*
X233680000Y-168275000D03*
D13*
X224790000Y-165735000D03*
X231140000Y-163195000D03*
%TD*%
D11*
%TO.C,S60*%
X337820000Y-168275000D03*
D12*
X342900000Y-168275000D03*
D11*
X347980000Y-168275000D03*
D13*
X339090000Y-165735000D03*
X345440000Y-163195000D03*
%TD*%
D11*
%TO.C,S41*%
X194945000Y-149225000D03*
D12*
X200025000Y-149225000D03*
D11*
X205105000Y-149225000D03*
D13*
X196215000Y-146685000D03*
X202565000Y-144145000D03*
%TD*%
D11*
%TO.C,S5*%
X123507500Y-111125000D03*
D12*
X128587500Y-111125000D03*
D11*
X133667500Y-111125000D03*
D13*
X124777500Y-108585000D03*
X131127500Y-106045000D03*
%TD*%
D11*
%TO.C,S47*%
X321151250Y-149225000D03*
D16*
X322421250Y-146685000D03*
D12*
X326231250Y-149225000D03*
D16*
X328771250Y-144145000D03*
D11*
X331311250Y-149225000D03*
D17*
X319146250Y-146685000D03*
X332073250Y-144145000D03*
%TD*%
D11*
%TO.C,S57*%
X261620000Y-168275000D03*
D12*
X266700000Y-168275000D03*
D11*
X271780000Y-168275000D03*
D13*
X262890000Y-165735000D03*
X269240000Y-163195000D03*
%TD*%
D11*
%TO.C,S26*%
X209232500Y-130175000D03*
D12*
X214312500Y-130175000D03*
D11*
X219392500Y-130175000D03*
D13*
X210502500Y-127635000D03*
X216852500Y-125095000D03*
%TD*%
D11*
%TO.C,S43*%
X233045000Y-149225000D03*
D12*
X238125000Y-149225000D03*
D11*
X243205000Y-149225000D03*
D13*
X234315000Y-146685000D03*
X240665000Y-144145000D03*
%TD*%
D11*
%TO.C,S51*%
X147320000Y-168275000D03*
D12*
X152400000Y-168275000D03*
D11*
X157480000Y-168275000D03*
D13*
X148590000Y-165735000D03*
X154940000Y-163195000D03*
%TD*%
D11*
%TO.C,S59*%
X309245000Y-168275000D03*
D16*
X310515000Y-165735000D03*
D12*
X314325000Y-168275000D03*
D16*
X316865000Y-163195000D03*
D11*
X319405000Y-168275000D03*
D17*
X307240000Y-165735000D03*
X320167000Y-163195000D03*
%TD*%
D11*
%TO.C,S4*%
X104457500Y-111125000D03*
D12*
X109537500Y-111125000D03*
D11*
X114617500Y-111125000D03*
D13*
X105727500Y-108585000D03*
X112077500Y-106045000D03*
%TD*%
D11*
%TO.C,S63*%
X118745000Y-187325000D03*
D12*
X123825000Y-187325000D03*
D11*
X128905000Y-187325000D03*
D13*
X120015000Y-184785000D03*
X126365000Y-182245000D03*
%TD*%
D11*
%TO.C,S27*%
X228282500Y-130175000D03*
D12*
X233362500Y-130175000D03*
D11*
X238442500Y-130175000D03*
D13*
X229552500Y-127635000D03*
X235902500Y-125095000D03*
%TD*%
D11*
%TO.C,S58*%
X280670000Y-168275000D03*
D12*
X285750000Y-168275000D03*
D11*
X290830000Y-168275000D03*
D13*
X281940000Y-165735000D03*
X288290000Y-163195000D03*
%TD*%
D11*
%TO.C,S7*%
X161607500Y-111125000D03*
D12*
X166687500Y-111125000D03*
D11*
X171767500Y-111125000D03*
D13*
X162877500Y-108585000D03*
X169227500Y-106045000D03*
%TD*%
D11*
%TO.C,S62*%
X92551250Y-187325000D03*
D12*
X97631250Y-187325000D03*
D11*
X102711250Y-187325000D03*
D13*
X93821250Y-184785000D03*
X100171250Y-182245000D03*
%TD*%
D11*
%TO.C,S14*%
X294957500Y-111125000D03*
D12*
X300037500Y-111125000D03*
D11*
X305117500Y-111125000D03*
D13*
X296227500Y-108585000D03*
X302577500Y-106045000D03*
%TD*%
D11*
%TO.C,S39*%
X156845000Y-149225000D03*
D12*
X161925000Y-149225000D03*
D11*
X167005000Y-149225000D03*
D13*
X158115000Y-146685000D03*
X164465000Y-144145000D03*
%TD*%
D11*
%TO.C,S24*%
X171132500Y-130175000D03*
D12*
X176212500Y-130175000D03*
D11*
X181292500Y-130175000D03*
D13*
X172402500Y-127635000D03*
X178752500Y-125095000D03*
%TD*%
D11*
%TO.C,S54*%
X204470000Y-168275000D03*
D12*
X209550000Y-168275000D03*
D11*
X214630000Y-168275000D03*
D13*
X205740000Y-165735000D03*
X212090000Y-163195000D03*
%TD*%
D11*
%TO.C,S67*%
X318770000Y-187325000D03*
D12*
X323850000Y-187325000D03*
D11*
X328930000Y-187325000D03*
D13*
X320040000Y-184785000D03*
X326390000Y-182245000D03*
%TD*%
D11*
%TO.C,S29*%
X266382500Y-130175000D03*
D12*
X271462500Y-130175000D03*
D11*
X276542500Y-130175000D03*
D13*
X267652500Y-127635000D03*
X274002500Y-125095000D03*
%TD*%
D14*
%TO.C,LED3*%
X46355000Y-187312500D03*
D15*
X48895000Y-187312500D03*
%TD*%
D11*
%TO.C,S25*%
X190182500Y-130175000D03*
D12*
X195262500Y-130175000D03*
D11*
X200342500Y-130175000D03*
D13*
X191452500Y-127635000D03*
X197802500Y-125095000D03*
%TD*%
D11*
%TO.C,S36*%
X99695000Y-149225000D03*
D12*
X104775000Y-149225000D03*
D11*
X109855000Y-149225000D03*
D13*
X100965000Y-146685000D03*
X107315000Y-144145000D03*
%TD*%
D11*
%TO.C,S22*%
X133032500Y-130175000D03*
D12*
X138112500Y-130175000D03*
D11*
X143192500Y-130175000D03*
D13*
X134302500Y-127635000D03*
X140652500Y-125095000D03*
%TD*%
D11*
%TO.C,S66*%
X287813750Y-187325000D03*
D12*
X292893750Y-187325000D03*
D11*
X297973750Y-187325000D03*
D13*
X289083750Y-184785000D03*
X295433750Y-182245000D03*
%TD*%
D11*
%TO.C,S34*%
X42545000Y-153987500D03*
D12*
X47625000Y-153987500D03*
D11*
X52705000Y-153987500D03*
D13*
X43815000Y-151447500D03*
X50165000Y-148907500D03*
%TD*%
D11*
%TO.C,S69*%
X356870000Y-187325000D03*
D12*
X361950000Y-187325000D03*
D11*
X367030000Y-187325000D03*
D13*
X358140000Y-184785000D03*
X364490000Y-182245000D03*
%TD*%
D11*
%TO.C,S28*%
X247332500Y-130175000D03*
D12*
X252412500Y-130175000D03*
D11*
X257492500Y-130175000D03*
D13*
X248602500Y-127635000D03*
X254952500Y-125095000D03*
%TD*%
D11*
%TO.C,S30*%
X285432500Y-130175000D03*
D12*
X290512500Y-130175000D03*
D11*
X295592500Y-130175000D03*
D13*
X286702500Y-127635000D03*
X293052500Y-125095000D03*
%TD*%
D11*
%TO.C,S13*%
X275907500Y-111125000D03*
D12*
X280987500Y-111125000D03*
D11*
X286067500Y-111125000D03*
D13*
X277177500Y-108585000D03*
X283527500Y-106045000D03*
%TD*%
D11*
%TO.C,S23*%
X152082500Y-130175000D03*
D12*
X157162500Y-130175000D03*
D11*
X162242500Y-130175000D03*
D13*
X153352500Y-127635000D03*
X159702500Y-125095000D03*
%TD*%
D11*
%TO.C,S56*%
X242570000Y-168275000D03*
D12*
X247650000Y-168275000D03*
D11*
X252730000Y-168275000D03*
D13*
X243840000Y-165735000D03*
X250190000Y-163195000D03*
%TD*%
D11*
%TO.C,S17*%
X356870000Y-111125000D03*
D12*
X361950000Y-111125000D03*
D11*
X367030000Y-111125000D03*
D13*
X358140000Y-108585000D03*
X364490000Y-106045000D03*
%TD*%
D11*
%TO.C,S31*%
X304482500Y-130175000D03*
D12*
X309562500Y-130175000D03*
D11*
X314642500Y-130175000D03*
D13*
X305752500Y-127635000D03*
X312102500Y-125095000D03*
%TD*%
D11*
%TO.C,S52*%
X166370000Y-168275000D03*
D12*
X171450000Y-168275000D03*
D11*
X176530000Y-168275000D03*
D13*
X167640000Y-165735000D03*
X173990000Y-163195000D03*
%TD*%
D18*
%TO.C,RESW1*%
X368975000Y-166250000D03*
D19*
X373975000Y-166250000D03*
X371475000Y-166250000D03*
D20*
X365875000Y-158750000D03*
X377075000Y-158750000D03*
D19*
X373975000Y-151750000D03*
X368975000Y-151750000D03*
%TD*%
D11*
%TO.C,S46*%
X290195000Y-149225000D03*
D12*
X295275000Y-149225000D03*
D11*
X300355000Y-149225000D03*
D13*
X291465000Y-146685000D03*
X297815000Y-144145000D03*
%TD*%
D11*
%TO.C,S11*%
X237807500Y-111125000D03*
D12*
X242887500Y-111125000D03*
D11*
X247967500Y-111125000D03*
D13*
X239077500Y-108585000D03*
X245427500Y-106045000D03*
%TD*%
D11*
%TO.C,S12*%
X256857500Y-111125000D03*
D12*
X261937500Y-111125000D03*
D11*
X267017500Y-111125000D03*
D13*
X258127500Y-108585000D03*
X264477500Y-106045000D03*
%TD*%
D11*
%TO.C,S48*%
X78263750Y-168275000D03*
D16*
X79533750Y-165735000D03*
D12*
X83343750Y-168275000D03*
D16*
X85883750Y-163195000D03*
D11*
X88423750Y-168275000D03*
D17*
X76258750Y-165735000D03*
X89185750Y-163195000D03*
%TD*%
D11*
%TO.C,S42*%
X213995000Y-149225000D03*
D12*
X219075000Y-149225000D03*
D11*
X224155000Y-149225000D03*
D13*
X215265000Y-146685000D03*
X221615000Y-144145000D03*
%TD*%
D11*
%TO.C,S65*%
X261620000Y-187325000D03*
D12*
X266700000Y-187325000D03*
D11*
X271780000Y-187325000D03*
D13*
X262890000Y-184785000D03*
X269240000Y-182245000D03*
%TD*%
D11*
%TO.C,S68*%
X337820000Y-187325000D03*
D12*
X342900000Y-187325000D03*
D11*
X347980000Y-187325000D03*
D13*
X339090000Y-184785000D03*
X345440000Y-182245000D03*
%TD*%
D11*
%TO.C,S40*%
X175895000Y-149225000D03*
D12*
X180975000Y-149225000D03*
D11*
X186055000Y-149225000D03*
D13*
X177165000Y-146685000D03*
X183515000Y-144145000D03*
%TD*%
D11*
%TO.C,S19*%
X71120000Y-130175000D03*
D12*
X76200000Y-130175000D03*
D11*
X81280000Y-130175000D03*
D13*
X72390000Y-127635000D03*
X78740000Y-125095000D03*
%TD*%
D11*
%TO.C,S6*%
X142557500Y-111125000D03*
D12*
X147637500Y-111125000D03*
D11*
X152717500Y-111125000D03*
D13*
X143827500Y-108585000D03*
X150177500Y-106045000D03*
%TD*%
D11*
%TO.C,S21*%
X113982500Y-130175000D03*
D12*
X119062500Y-130175000D03*
D11*
X124142500Y-130175000D03*
D13*
X115252500Y-127635000D03*
X121602500Y-125095000D03*
%TD*%
D11*
%TO.C,S15*%
X314007500Y-111125000D03*
D12*
X319087500Y-111125000D03*
D11*
X324167500Y-111125000D03*
D13*
X315277500Y-108585000D03*
X321627500Y-106045000D03*
%TD*%
D14*
%TO.C,LED2*%
X46355000Y-180968750D03*
D15*
X48895000Y-180968750D03*
%TD*%
D11*
%TO.C,S20*%
X94932500Y-130175000D03*
D12*
X100012500Y-130175000D03*
D11*
X105092500Y-130175000D03*
D13*
X96202500Y-127635000D03*
X102552500Y-125095000D03*
%TD*%
D11*
%TO.C,S37*%
X118745000Y-149225000D03*
D12*
X123825000Y-149225000D03*
D11*
X128905000Y-149225000D03*
D13*
X120015000Y-146685000D03*
X126365000Y-144145000D03*
%TD*%
D11*
%TO.C,S32*%
X328295000Y-130175000D03*
D12*
X333375000Y-130175000D03*
D11*
X338455000Y-130175000D03*
D13*
X329565000Y-127635000D03*
X335915000Y-125095000D03*
%TD*%
D11*
%TO.C,S8*%
X180657500Y-111125000D03*
D12*
X185737500Y-111125000D03*
D11*
X190817500Y-111125000D03*
D13*
X181927500Y-108585000D03*
X188277500Y-106045000D03*
%TD*%
D11*
%TO.C,S38*%
X137795000Y-149225000D03*
D12*
X142875000Y-149225000D03*
D11*
X147955000Y-149225000D03*
D13*
X139065000Y-146685000D03*
X145415000Y-144145000D03*
%TD*%
D11*
%TO.C,S44*%
X252095000Y-149225000D03*
D12*
X257175000Y-149225000D03*
D11*
X262255000Y-149225000D03*
D13*
X253365000Y-146685000D03*
X259715000Y-144145000D03*
%TD*%
D11*
%TO.C,S2*%
X66357500Y-111125000D03*
D12*
X71437500Y-111125000D03*
D11*
X76517500Y-111125000D03*
D13*
X67627500Y-108585000D03*
X73977500Y-106045000D03*
%TD*%
D21*
%TO.C,C6*%
X353200000Y-153250000D03*
X351500000Y-153250000D03*
%TD*%
D22*
%TO.C,RGB7*%
X94812500Y-121443750D03*
X94812500Y-118243750D03*
X100012500Y-118243750D03*
X100012500Y-121443750D03*
%TD*%
D23*
%TO.C,D8*%
X193675000Y-112043750D03*
X193675000Y-108743750D03*
%TD*%
D22*
%TO.C,RGB16*%
X357187500Y-175337500D03*
X357187500Y-178537500D03*
X351987500Y-178537500D03*
X351987500Y-175337500D03*
%TD*%
%TO.C,RGB14*%
X273843750Y-175418750D03*
X273843750Y-178618750D03*
X268643750Y-178618750D03*
X268643750Y-175418750D03*
%TD*%
D24*
%TO.C,CRGB14*%
X277018750Y-176100000D03*
X277018750Y-177800000D03*
%TD*%
D23*
%TO.C,D58*%
X293687500Y-169068750D03*
X293687500Y-165768750D03*
%TD*%
%TO.C,D49*%
X122237500Y-169068750D03*
X122237500Y-165768750D03*
%TD*%
%TO.C,D60*%
X346868750Y-173831250D03*
X346868750Y-170531250D03*
%TD*%
D21*
%TO.C,C1*%
X350500000Y-138906250D03*
X348800000Y-138906250D03*
%TD*%
D23*
%TO.C,D55*%
X236537500Y-169068750D03*
X236537500Y-165768750D03*
%TD*%
%TO.C,D70*%
X365750000Y-155050000D03*
X365750000Y-151750000D03*
%TD*%
D22*
%TO.C,RGB6*%
X136087500Y-121443750D03*
X136087500Y-118243750D03*
X141287500Y-118243750D03*
X141287500Y-121443750D03*
%TD*%
D23*
%TO.C,D57*%
X274637500Y-169068750D03*
X274637500Y-165768750D03*
%TD*%
%TO.C,D14*%
X307975000Y-111981250D03*
X307975000Y-108681250D03*
%TD*%
%TO.C,D7*%
X174625000Y-112043750D03*
X174625000Y-108743750D03*
%TD*%
D21*
%TO.C,C9*%
X364800000Y-169900000D03*
X366500000Y-169900000D03*
%TD*%
D22*
%TO.C,RGB8*%
X52750000Y-121450000D03*
X52750000Y-118250000D03*
X57950000Y-118250000D03*
X57950000Y-121450000D03*
%TD*%
D23*
%TO.C,D47*%
X330200000Y-154781250D03*
X330200000Y-151481250D03*
%TD*%
%TO.C,D4*%
X117475000Y-112043750D03*
X117475000Y-108743750D03*
%TD*%
D24*
%TO.C,CRGB15*%
X317500000Y-176100000D03*
X317500000Y-177800000D03*
%TD*%
D25*
%TO.C,RC1*%
X346075000Y-136525000D03*
X346075000Y-134725000D03*
%TD*%
D24*
%TO.C,CRGB2*%
X317500000Y-120762500D03*
X317500000Y-119062500D03*
%TD*%
D23*
%TO.C,D27*%
X241300000Y-130968750D03*
X241300000Y-127668750D03*
%TD*%
%TO.C,D26*%
X222250000Y-130968750D03*
X222250000Y-127668750D03*
%TD*%
D25*
%TO.C,RC2*%
X348000000Y-134750000D03*
X348000000Y-136550000D03*
%TD*%
D23*
%TO.C,D20*%
X107950000Y-130968750D03*
X107950000Y-127668750D03*
%TD*%
D26*
%TO.C,U2*%
X350756250Y-107837500D03*
D27*
X350756250Y-109537500D03*
X348456250Y-109537500D03*
X348456250Y-107637500D03*
%TD*%
D21*
%TO.C,C8*%
X366500000Y-171500000D03*
X364800000Y-171500000D03*
%TD*%
D24*
%TO.C,CRGB9*%
X61250000Y-176100000D03*
X61250000Y-177800000D03*
%TD*%
%TO.C,CRGB11*%
X144750000Y-176550000D03*
X144750000Y-178250000D03*
%TD*%
D23*
%TO.C,D5*%
X136525000Y-112043750D03*
X136525000Y-108743750D03*
%TD*%
D24*
%TO.C,CRGB16*%
X360362500Y-176100000D03*
X360362500Y-177800000D03*
%TD*%
D23*
%TO.C,D37*%
X131762500Y-150018750D03*
X131762500Y-146718750D03*
%TD*%
%TO.C,D51*%
X160337500Y-169193750D03*
X160337500Y-165893750D03*
%TD*%
D24*
%TO.C,C4*%
X345281250Y-138906250D03*
X345281250Y-140606250D03*
%TD*%
D23*
%TO.C,D6*%
X155575000Y-112043750D03*
X155575000Y-108743750D03*
%TD*%
%TO.C,D62*%
X105568750Y-188243750D03*
X105568750Y-184943750D03*
%TD*%
%TO.C,D18*%
X55562500Y-135856250D03*
X55562500Y-132556250D03*
%TD*%
D22*
%TO.C,RGB13*%
X230981250Y-174600000D03*
X230981250Y-177800000D03*
X225781250Y-177800000D03*
X225781250Y-174600000D03*
%TD*%
D21*
%TO.C,C3*%
X359800000Y-146843750D03*
X361500000Y-146843750D03*
%TD*%
D23*
%TO.C,D13*%
X288925000Y-111981250D03*
X288925000Y-108681250D03*
%TD*%
D24*
%TO.C,CRGB4*%
X234156250Y-120650000D03*
X234156250Y-118950000D03*
%TD*%
D28*
%TO.C,SW1*%
X365050000Y-138906250D03*
X358850000Y-142606250D03*
X365050000Y-142606250D03*
X358850000Y-138906250D03*
%TD*%
D23*
%TO.C,D50*%
X141287500Y-169193750D03*
X141287500Y-165893750D03*
%TD*%
%TO.C,D43*%
X246062500Y-150081250D03*
X246062500Y-146781250D03*
%TD*%
%TO.C,D59*%
X323056250Y-169987500D03*
X323056250Y-166687500D03*
%TD*%
D21*
%TO.C,C7*%
X356750000Y-142500000D03*
X355050000Y-142500000D03*
%TD*%
D23*
%TO.C,D41*%
X207962500Y-150081250D03*
X207962500Y-146781250D03*
%TD*%
D22*
%TO.C,RGB12*%
X183575000Y-174600000D03*
X183575000Y-177800000D03*
X178375000Y-177800000D03*
X178375000Y-174600000D03*
%TD*%
D23*
%TO.C,D39*%
X169862500Y-150018750D03*
X169862500Y-146718750D03*
%TD*%
D22*
%TO.C,RGB4*%
X225781250Y-121443750D03*
X225781250Y-118243750D03*
X230981250Y-118243750D03*
X230981250Y-121443750D03*
%TD*%
D29*
%TO.C,J1*%
X358000000Y-160460000D03*
X355460000Y-160460000D03*
X358000000Y-163000000D03*
X355460000Y-163000000D03*
X358000000Y-165540000D03*
D30*
X355460000Y-165540000D03*
%TD*%
D22*
%TO.C,RGB2*%
X309125000Y-121443750D03*
X309125000Y-118243750D03*
X314325000Y-118243750D03*
X314325000Y-121443750D03*
%TD*%
D31*
%TO.C,RC8*%
X343000000Y-152750000D03*
X341200000Y-152750000D03*
%TD*%
D23*
%TO.C,D30*%
X298450000Y-131031250D03*
X298450000Y-127731250D03*
%TD*%
%TO.C,D54*%
X217487500Y-169068750D03*
X217487500Y-165768750D03*
%TD*%
%TO.C,D24*%
X184150000Y-130968750D03*
X184150000Y-127668750D03*
%TD*%
%TO.C,D36*%
X112712500Y-150018750D03*
X112712500Y-146718750D03*
%TD*%
D25*
%TO.C,RC7*%
X353137500Y-109425000D03*
X353137500Y-107625000D03*
%TD*%
D23*
%TO.C,D9*%
X212725000Y-112043750D03*
X212725000Y-108743750D03*
%TD*%
%TO.C,D38*%
X150812500Y-150081250D03*
X150812500Y-146781250D03*
%TD*%
%TO.C,D31*%
X317500000Y-130968750D03*
X317500000Y-127668750D03*
%TD*%
D22*
%TO.C,RGB1*%
X351987500Y-121468750D03*
X351987500Y-118268750D03*
X357187500Y-118268750D03*
X357187500Y-121468750D03*
%TD*%
D31*
%TO.C,RLED1*%
X61118750Y-182562500D03*
X59318750Y-182562500D03*
%TD*%
%TO.C,RLED2*%
X61118750Y-185737500D03*
X59318750Y-185737500D03*
%TD*%
D22*
%TO.C,RGB5*%
X178156250Y-121443750D03*
X178156250Y-118243750D03*
X183356250Y-118243750D03*
X183356250Y-121443750D03*
%TD*%
D21*
%TO.C,C2*%
X359843750Y-149225000D03*
X361543750Y-149225000D03*
%TD*%
D23*
%TO.C,D32*%
X337343750Y-135731250D03*
X337343750Y-132431250D03*
%TD*%
%TO.C,D21*%
X127000000Y-130968750D03*
X127000000Y-127668750D03*
%TD*%
%TO.C,D22*%
X146050000Y-130968750D03*
X146050000Y-127668750D03*
%TD*%
%TO.C,D40*%
X188912500Y-150018750D03*
X188912500Y-146718750D03*
%TD*%
D32*
%TO.C,Y1*%
X355193750Y-149043750D03*
X355193750Y-146843750D03*
X356893750Y-146843750D03*
X356893750Y-149043750D03*
%TD*%
D22*
%TO.C,RGB10*%
X100012500Y-175418750D03*
X100012500Y-178618750D03*
X94812500Y-178618750D03*
X94812500Y-175418750D03*
%TD*%
D23*
%TO.C,D53*%
X198437500Y-169193750D03*
X198437500Y-165893750D03*
%TD*%
D22*
%TO.C,RGB3*%
X268643750Y-121443750D03*
X268643750Y-118243750D03*
X273843750Y-118243750D03*
X273843750Y-121443750D03*
%TD*%
D23*
%TO.C,D34*%
X55562500Y-154843750D03*
X55562500Y-151543750D03*
%TD*%
%TO.C,D52*%
X179387500Y-169193750D03*
X179387500Y-165893750D03*
%TD*%
D31*
%TO.C,RC5*%
X364912500Y-168275000D03*
X366712500Y-168275000D03*
%TD*%
D33*
%TO.C,USB1*%
X347160000Y-102055000D03*
X352940000Y-102055000D03*
D34*
X346825000Y-103500000D03*
X347600000Y-103500000D03*
D35*
X348300000Y-103500000D03*
X348800000Y-103500000D03*
X349300000Y-103500000D03*
X349800000Y-103500000D03*
X350300000Y-103500000D03*
X350800000Y-103500000D03*
X351300000Y-103500000D03*
X351800000Y-103500000D03*
D34*
X352500000Y-103500000D03*
X353275000Y-103500000D03*
D36*
X345730000Y-98405000D03*
D37*
X345730000Y-102585000D03*
D36*
X354370000Y-98405000D03*
D37*
X354370000Y-102585000D03*
%TD*%
D23*
%TO.C,D15*%
X327025000Y-111918750D03*
X327025000Y-108618750D03*
%TD*%
D24*
%TO.C,CRGB6*%
X144750000Y-120750000D03*
X144750000Y-119050000D03*
%TD*%
D23*
%TO.C,D44*%
X265112500Y-150018750D03*
X265112500Y-146718750D03*
%TD*%
%TO.C,D19*%
X84137500Y-131031250D03*
X84137500Y-127731250D03*
%TD*%
D24*
%TO.C,CRGB5*%
X187000000Y-120750000D03*
X187000000Y-119050000D03*
%TD*%
D22*
%TO.C,RGB15*%
X314325000Y-175393750D03*
X314325000Y-178593750D03*
X309125000Y-178593750D03*
X309125000Y-175393750D03*
%TD*%
D23*
%TO.C,D12*%
X269875000Y-111981250D03*
X269875000Y-108681250D03*
%TD*%
%TO.C,D69*%
X365918750Y-192881250D03*
X365918750Y-189581250D03*
%TD*%
D24*
%TO.C,CRGB10*%
X103250000Y-176250000D03*
X103250000Y-177950000D03*
%TD*%
D23*
%TO.C,D64*%
X203993750Y-188912500D03*
X203993750Y-185612500D03*
%TD*%
D31*
%TO.C,RC3*%
X354450000Y-139750000D03*
X356250000Y-139750000D03*
%TD*%
%TO.C,RLED3*%
X61118750Y-188912500D03*
X59318750Y-188912500D03*
%TD*%
D24*
%TO.C,CRGB7*%
X103500000Y-120750000D03*
X103500000Y-119050000D03*
%TD*%
D23*
%TO.C,D68*%
X346868750Y-192881250D03*
X346868750Y-189581250D03*
%TD*%
%TO.C,D3*%
X98425000Y-112043750D03*
X98425000Y-108743750D03*
%TD*%
D22*
%TO.C,RGB11*%
X141287500Y-175393750D03*
X141287500Y-178593750D03*
X136087500Y-178593750D03*
X136087500Y-175393750D03*
%TD*%
D23*
%TO.C,D48*%
X92075000Y-169925000D03*
X92075000Y-166625000D03*
%TD*%
%TO.C,D17*%
X365918750Y-116681250D03*
X365918750Y-113381250D03*
%TD*%
%TO.C,D25*%
X203200000Y-130968750D03*
X203200000Y-127668750D03*
%TD*%
%TO.C,D46*%
X303212500Y-150018750D03*
X303212500Y-146718750D03*
%TD*%
%TO.C,D66*%
X300831250Y-188243750D03*
X300831250Y-184943750D03*
%TD*%
%TO.C,D1*%
X55562500Y-112043750D03*
X55562500Y-108743750D03*
%TD*%
%TO.C,D2*%
X79375000Y-112043750D03*
X79375000Y-108743750D03*
%TD*%
D22*
%TO.C,RGB9*%
X57943750Y-175418750D03*
X57943750Y-178618750D03*
X52743750Y-178618750D03*
X52743750Y-175418750D03*
%TD*%
D23*
%TO.C,D11*%
X250825000Y-112043750D03*
X250825000Y-108743750D03*
%TD*%
%TO.C,D61*%
X81756250Y-188243750D03*
X81756250Y-184943750D03*
%TD*%
%TO.C,D33*%
X365918750Y-135731250D03*
X365918750Y-132431250D03*
%TD*%
%TO.C,D56*%
X255587500Y-169068750D03*
X255587500Y-165768750D03*
%TD*%
%TO.C,D28*%
X260350000Y-130968750D03*
X260350000Y-127668750D03*
%TD*%
D24*
%TO.C,CRGB3*%
X277018750Y-120762500D03*
X277018750Y-119062500D03*
%TD*%
%TO.C,CRGB13*%
X234156250Y-175418750D03*
X234156250Y-177118750D03*
%TD*%
D23*
%TO.C,D67*%
X327818750Y-192881250D03*
X327818750Y-189581250D03*
%TD*%
D24*
%TO.C,C5*%
X341312500Y-149550000D03*
X341312500Y-151250000D03*
%TD*%
D23*
%TO.C,D23*%
X165100000Y-130968750D03*
X165100000Y-127668750D03*
%TD*%
%TO.C,D16*%
X342106250Y-116681250D03*
X342106250Y-113381250D03*
%TD*%
%TO.C,D10*%
X231775000Y-112043750D03*
X231775000Y-108743750D03*
%TD*%
%TO.C,D65*%
X274637500Y-188243750D03*
X274637500Y-184943750D03*
%TD*%
D25*
%TO.C,RC6*%
X345200000Y-109425000D03*
X345200000Y-107625000D03*
%TD*%
D23*
%TO.C,D42*%
X227012500Y-150018750D03*
X227012500Y-146718750D03*
%TD*%
%TO.C,D29*%
X279400000Y-130968750D03*
X279400000Y-127668750D03*
%TD*%
D24*
%TO.C,CRGB12*%
X187250000Y-175500000D03*
X187250000Y-177200000D03*
%TD*%
D23*
%TO.C,D63*%
X131762500Y-188243750D03*
X131762500Y-184943750D03*
%TD*%
D24*
%TO.C,CRGB1*%
X360362500Y-120762500D03*
X360362500Y-119062500D03*
%TD*%
D31*
%TO.C,RC4*%
X364912500Y-173100000D03*
X366712500Y-173100000D03*
%TD*%
D23*
%TO.C,D35*%
X86518750Y-150018750D03*
X86518750Y-146718750D03*
%TD*%
D24*
%TO.C,CRGB8*%
X61500000Y-121000000D03*
X61500000Y-119300000D03*
%TD*%
D38*
%TO.C,U1*%
X348456250Y-147637500D03*
D39*
X345956250Y-144237500D03*
X346456250Y-144237500D03*
X346956250Y-144237500D03*
X347456250Y-144237500D03*
X347956250Y-144237500D03*
X348456250Y-144237500D03*
X348956250Y-144237500D03*
X349456250Y-144237500D03*
X349956250Y-144237500D03*
X350456250Y-144237500D03*
X350956250Y-144237500D03*
D40*
X351856250Y-145137500D03*
X351856250Y-145637500D03*
X351856250Y-146137500D03*
X351856250Y-146637500D03*
X351856250Y-147137500D03*
X351856250Y-147637500D03*
X351856250Y-148137500D03*
X351856250Y-148637500D03*
X351856250Y-149137500D03*
X351856250Y-149637500D03*
X351856250Y-150137500D03*
D39*
X350956250Y-151037500D03*
X350456250Y-151037500D03*
X349956250Y-151037500D03*
X349456250Y-151037500D03*
X348956250Y-151037500D03*
X348456250Y-151037500D03*
X347956250Y-151037500D03*
X347456250Y-151037500D03*
X346956250Y-151037500D03*
X346456250Y-151037500D03*
X345956250Y-151037500D03*
D40*
X345056250Y-150137500D03*
X345056250Y-149637500D03*
X345056250Y-149137500D03*
X345056250Y-148637500D03*
X345056250Y-148137500D03*
X345056250Y-147637500D03*
X345056250Y-147137500D03*
X345056250Y-146637500D03*
X345056250Y-146137500D03*
X345056250Y-145637500D03*
X345056250Y-145137500D03*
%TD*%
D23*
%TO.C,D45*%
X284162500Y-150081250D03*
X284162500Y-146781250D03*
%TD*%
D41*
%TO.C,F1*%
X347662500Y-115512500D03*
X347662500Y-112712500D03*
%TD*%
M02*
